<svg width="22" height="17" viewBox="0 0 22 17" fill="none" xmlns="http://www.w3.org/2000/svg">
<path d="M13.5417 16.0014H7.15C3.20729 16.0014 0 12.8198 0 8.90863C0 7.01453 0.74375 5.23306 2.09479 3.89283L4.38438 1.62053C6.56146 -0.540175 10.1052 -0.540175 12.2823 1.62053L13.2365 2.56706H19.7917C20.9406 2.56706 21.875 3.49396 21.875 4.63373C21.875 5.77349 20.9406 6.70039 19.7917 6.70039H17.4281C17.6063 7.00419 17.7083 7.35759 17.7083 7.73373C17.7083 8.63376 17.125 9.40153 16.3135 9.68466C16.5365 10.0133 16.6667 10.409 16.6667 10.8337C16.6667 11.7338 16.0833 12.5015 15.2719 12.7847C15.4948 13.1133 15.625 13.509 15.625 13.9337C15.625 15.0745 14.6906 16.0014 13.5417 16.0014ZM8.33333 1.03463C7.16979 1.03463 6.00729 1.47379 5.12083 2.35213L2.83125 4.62443C1.67708 5.76936 1.04167 7.29043 1.04167 8.90863C1.04167 12.2494 3.78229 14.9681 7.15 14.9681H13.5417C14.1167 14.9681 14.5833 14.5041 14.5833 13.9348C14.5833 13.3654 14.1167 12.9014 13.5417 12.9014C13.2542 12.9014 13.0208 12.67 13.0208 12.3848C13.0208 12.0996 13.2542 11.8681 13.5417 11.8681H14.5833C15.1583 11.8681 15.625 11.4041 15.625 10.8348C15.625 10.2654 15.1583 9.80142 14.5833 9.80142H14.0625C13.775 9.80142 13.5417 9.56996 13.5417 9.28476C13.5417 8.99956 13.775 8.76809 14.0625 8.76809H15.625C16.2 8.76809 16.6667 8.30413 16.6667 7.73476C16.6667 7.16539 16.2 6.70143 15.625 6.70143H13.0208C12.7333 6.70143 12.5 6.46996 12.5 6.18476C12.5 5.89956 12.7333 5.66809 13.0208 5.66809H19.7917C20.3667 5.66809 20.8333 5.20413 20.8333 4.63476C20.8333 4.06539 20.3667 3.60143 19.7917 3.60143H8.85417C8.56667 3.60143 8.33333 3.36996 8.33333 3.08476C8.33333 2.79956 8.56667 2.56809 8.85417 2.56809H11.7635L11.5458 2.35213C10.6594 1.47379 9.49687 1.03463 8.33333 1.03463Z" fill="#7BA9EF"/>
</svg>
