<?xml version="1.0" encoding="utf-8"?>
<!-- Generator: Adobe Illustrator 22.1.0, SVG Export Plug-In . SVG Version: 6.00 Build 0)  -->
<svg version="1.1" id="Layer_1" xmlns="http://www.w3.org/2000/svg" xmlns:xlink="http://www.w3.org/1999/xlink" x="0px" y="0px"
	 viewBox="0 0 9.4 9.4" style="enable-background:new 0 0 9.4 9.4;" xml:space="preserve">
<style type="text/css">
	.st0{fill:#CE844B;}
	.st1{fill:#BB7A47;}
	.st2{fill:#59361A;}
	.st3{fill:#F0EE90;}
	.st4{fill:#55371B;}
	.st5{fill:#59361A;stroke:#603913;stroke-width:0.1;stroke-miterlimit:10;}
</style>
<title>Bear icon final</title>
<path class="st0" d="M6.9,11.2"/>
<path class="st1" d="M9.8,19.5"/>
<circle class="st0" cx="1.1" cy="2" r="1.1"/>
<circle class="st0" cx="8.3" cy="2.1" r="1.1"/>
<circle class="st2" cx="8.3" cy="2.1" r="0.7"/>
<circle class="st2" cx="1.1" cy="2.1" r="0.7"/>
<path class="st0" d="M9,8.5c0-1.3-0.6-4.4-0.6-4.4L8.3,3.3C8.3,2.6,7.7,2.1,7,2H2.9c0,0-1.8-0.1-2,1.5s-0.5,5-0.5,5"/>
<path class="st0" d="M7.2,9.9"/>
<ellipse class="st3" cx="4.7" cy="6.3" rx="1.2" ry="1.7"/>
<circle class="st4" cx="6.6" cy="4.3" r="0.4"/>
<path class="st4" d="M4.7,5.7c0,0,0.3,0,0.6-0.4S4.9,4.8,4.9,4.8H4.6C3.4,4.9,4.4,5.6,4.4,5.6C4.5,5.7,4.6,5.7,4.7,5.7z"/>
<rect x="4.6" y="5.6" class="st4" width="0.2" height="1.9"/>
<circle class="st4" cx="2.6" cy="4.3" r="0.4"/>
<path class="st5" d="M4.1,7.3c0.3,0.3,0.8,0.3,1.2,0V7.2C5,7.5,4.5,7.6,4.1,7.3c0-0.1,0-0.1,0-0.1V7.3z"/>
</svg>
