<svg width="212" height="171" viewBox="0 0 212 171" fill="none" xmlns="http://www.w3.org/2000/svg">
<mask id="mask0" mask-type="alpha" maskUnits="userSpaceOnUse" x="0" y="0" width="212" height="163">
<path d="M212 0H0V163H212V0Z" fill="#C4C4C4"/>
</mask>
<g mask="url(#mask0)">
<path d="M59.2961 115.702C67.744 115.702 74.5923 108.599 74.5923 99.8381C74.5923 91.0768 67.744 83.9744 59.2961 83.9744C50.8483 83.9744 44 91.0768 44 99.8381C44 108.599 50.8483 115.702 59.2961 115.702Z" fill="#CE844B"/>
<path d="M154.372 116.451C162.82 116.451 169.669 109.349 169.669 100.587C169.669 91.8259 162.82 84.7235 154.372 84.7235C145.925 84.7235 139.076 91.8259 139.076 100.587C139.076 109.349 145.925 116.451 154.372 116.451Z" fill="#CE844B"/>
<path d="M154.372 110.613C159.712 110.613 164.04 106.125 164.04 100.587C164.04 95.0498 159.712 90.5609 154.372 90.5609C149.033 90.5609 144.705 95.0498 144.705 100.587C144.705 106.125 149.033 110.613 154.372 110.613Z" fill="#59361A"/>
<path d="M59.2962 110.613C64.6354 110.613 68.9638 106.125 68.9638 100.587C68.9638 95.0498 64.6354 90.5609 59.2962 90.5609C53.9569 90.5609 49.6285 95.0498 49.6285 100.587C49.6285 106.125 53.9569 110.613 59.2962 110.613Z" fill="#59361A"/>
<path d="M82.4011 98.6689C82.4011 98.6689 58.5767 97.2154 56.4747 119.744C54.3724 142.272 49.8178 185.148 49.8178 185.148C49.8178 185.148 46.6645 200.046 66.1094 208.766H147.218C147.218 208.766 164.385 205.496 164.035 188.055C163.684 170.614 156.677 128.828 156.677 128.828L154.758 117.631C154.758 117.631 154.704 102.86 137.228 99.2354L82.4011 98.6689Z" fill="#CE844B"/>
<path d="M106.526 181.302C115.381 181.302 122.559 170.88 122.559 158.024C122.559 145.168 115.381 134.746 106.526 134.746C97.6722 134.746 90.4942 145.168 90.4942 158.024C90.4942 170.88 97.6722 181.302 106.526 181.302Z" fill="#F0EE90"/>
<path d="M132.565 136.148C135.22 136.148 137.372 133.915 137.372 131.162C137.372 128.408 135.22 126.176 132.565 126.176C129.909 126.176 127.757 128.408 127.757 131.162C127.757 133.915 129.909 136.148 132.565 136.148Z" fill="#55371B"/>
<path d="M106.873 150.393C106.873 150.393 110.904 150.871 114.586 144.789C118.268 138.706 109.949 137.575 109.949 137.575H104.766C90.0371 138.989 103.326 148.967 103.326 148.967C104.358 149.774 105.586 150.268 106.873 150.393Z" fill="#55371B"/>
<path d="M107.617 148.859H105.436V175.323H107.617V148.859Z" fill="#55371B"/>
<path d="M79.2411 136.148C81.8962 136.148 84.0486 133.915 84.0486 131.162C84.0486 128.408 81.8962 126.176 79.2411 126.176C76.5861 126.176 74.4334 128.408 74.4334 131.162C74.4334 133.915 76.5861 136.148 79.2411 136.148Z" fill="#55371B"/>
</g>
<path d="M65.75 163.5C65.75 165.444 64.3822 167.251 62.0675 168.587C59.7593 169.918 56.554 170.75 53 170.75C49.446 170.75 46.2407 169.918 43.9325 168.587C41.6178 167.251 40.25 165.444 40.25 163.5C40.25 161.556 41.6178 159.749 43.9325 158.413C46.2407 157.082 49.446 156.25 53 156.25C56.554 156.25 59.7593 157.082 62.0675 158.413C64.3822 159.749 65.75 161.556 65.75 163.5Z" fill="#CE844B" stroke="white" stroke-width="0.5"/>
<path d="M172.75 163.5C172.75 165.444 171.382 167.251 169.067 168.587C166.759 169.918 163.554 170.75 160 170.75C156.446 170.75 153.241 169.918 150.933 168.587C148.618 167.251 147.25 165.444 147.25 163.5C147.25 161.556 148.618 159.749 150.933 158.413C153.241 157.082 156.446 156.25 160 156.25C163.554 156.25 166.759 157.082 169.067 158.413C171.382 159.749 172.75 161.556 172.75 163.5Z" fill="#CE844B" stroke="white" stroke-width="0.5"/>
</svg>
