<svg width="73" height="50" viewBox="0 0 73 50" fill="none" xmlns="http://www.w3.org/2000/svg">
<path fill-rule="evenodd" clip-rule="evenodd" d="M71.1995 11.4779C71.1995 16.6897 68.1037 20.9153 64.2843 20.9153C60.4654 20.9153 57.3691 16.6897 57.3691 11.4779C57.3691 6.26617 60.4654 2.04059 64.2843 2.04059C68.1037 2.04059 71.1995 6.26617 71.1995 11.4779Z" fill="#CD844B"/>
<path fill-rule="evenodd" clip-rule="evenodd" d="M70.6877 11.4779C70.6877 16.6896 67.592 20.9152 63.7726 20.9152C59.9537 20.9152 56.8574 16.6896 56.8574 11.4779C56.8574 6.2661 59.9537 2.04053 63.7726 2.04053C67.592 2.04053 70.6877 6.2661 70.6877 11.4779Z" fill="#C47F4B"/>
<path fill-rule="evenodd" clip-rule="evenodd" d="M69.1513 11.733C69.1513 15.1143 67.202 17.8545 64.7976 17.8545C62.3927 17.8545 60.4434 15.1143 60.4434 11.733C60.4434 8.35165 62.3927 5.61145 64.7976 5.61145C67.202 5.61145 69.1513 8.35165 69.1513 11.733Z" fill="#58351A"/>
<mask id="mask0" mask-type="alpha" maskUnits="userSpaceOnUse" x="4" y="10" width="68" height="40">
<path fill-rule="evenodd" clip-rule="evenodd" d="M23.2957 10.7199C23.2448 10.7196 23.2019 10.7187 23.151 10.7175C22.0923 10.6914 9.07293 10.5282 7.88024 18.2369C7.02073 23.7894 5.29884 36.8292 4.31663 44.359C3.92669 47.3482 6.24945 49.9925 9.26405 49.9925C10.4417 49.9925 11.8636 49.9925 13.5803 49.9925H57.0072H66.6656C69.812 49.9925 72.1763 47.1212 71.5728 44.0334L67.164 21.4773L66.2148 18.1389C66.091 17.7037 66.033 17.2494 65.9133 16.813C65.5127 15.3519 63.7157 11.9293 55.6575 10.9217L23.2957 10.7199Z" fill="#CD844B"/>
</mask>
<g mask="url(#mask0)">
<path fill-rule="evenodd" clip-rule="evenodd" d="M23.2957 10.7199C23.2448 10.7196 23.2019 10.7187 23.151 10.7175C22.0923 10.6914 9.07293 10.5282 7.88024 18.2369C7.02073 23.7894 5.29884 36.8292 4.31663 44.359C3.92669 47.3482 6.24945 49.9925 9.26405 49.9925C10.4417 49.9925 11.8636 49.9925 13.5803 49.9925H57.0072H66.6656C69.812 49.9925 72.1763 47.1212 71.5728 44.0334L67.164 21.4773L66.2148 18.1389C66.091 17.7037 66.033 17.2494 65.9133 16.813C65.5127 15.3519 63.7157 11.9293 55.6575 10.9217L23.2957 10.7199Z" fill="#C47F4B"/>
<path fill-rule="evenodd" clip-rule="evenodd" d="M27.8745 10.7197C27.844 10.7195 27.8151 10.7189 27.7846 10.7181C26.9218 10.6947 13.6923 10.4633 12.4896 18.2369C11.5358 24.3985 9.52009 39.7801 8.63159 46.6208C8.39862 48.4145 9.79238 49.9925 11.6011 49.9925C13.0713 49.9925 15.1762 49.9925 18.1897 49.9925H61.6165H73.7038C75.5915 49.9925 77.0102 48.2697 76.648 46.417L71.7734 21.4773L70.7495 17.8766C70.6753 17.6155 70.6392 17.3467 70.5862 17.0804C70.3358 15.8242 68.8682 11.9972 60.2668 10.9217L27.8745 10.7197Z" fill="#CD844B"/>
<path fill-rule="evenodd" clip-rule="evenodd" d="M31.2894 12.7596C31.2894 12.7596 19.4907 12.268 18.45 19.8866C17.4087 27.5052 14.8555 49.9925 14.8555 49.9925C14.8555 49.9925 14.8555 49.9925 23.2211 49.9925H59.571H72.7379L68.0727 22.9587L67.122 19.1719C67.122 19.1719 67.0957 14.177 58.4413 12.9513L31.2894 12.7596Z" fill="#D28F5B"/>
</g>
<path fill-rule="evenodd" clip-rule="evenodd" d="M56.3467 45.3204C56.3467 52.8829 51.9818 51.4064 46.89 51.4064C41.7983 51.4064 37.9062 52.8829 37.9062 45.3204C37.9062 37.7578 42.0347 31.6279 47.1265 31.6279C52.2182 31.6279 56.3467 37.7578 56.3467 45.3204Z" fill="#EFED8F"/>
<path fill-rule="evenodd" clip-rule="evenodd" d="M47.9727 51.1131C47.9727 51.3394 48.1561 51.5229 48.3824 51.5229C48.6088 51.5229 48.7922 51.3394 48.7922 51.1131V36.1186C48.7922 35.8923 48.6088 35.7089 48.3824 35.7089C48.1561 35.7089 47.9727 35.8923 47.9727 36.1186V51.1131Z" fill="#55371B"/>
<path fill-rule="evenodd" clip-rule="evenodd" d="M47.7676 51.8281C47.7676 51.9413 47.8593 52.033 47.9725 52.033C48.0856 52.033 48.1774 51.9413 48.1774 51.8281V36.424C48.1774 36.3108 48.0856 36.2191 47.9725 36.2191C47.8593 36.2191 47.7676 36.3108 47.7676 36.424V51.8281Z" fill="#2F1E0F"/>
<mask id="mask1" mask-type="alpha" maskUnits="userSpaceOnUse" x="43" y="33" width="10" height="9">
<path fill-rule="evenodd" clip-rule="evenodd" d="M48.0023 41.3151C48.0023 41.3151 50.2183 41.6 52.2426 37.9718C53.9147 34.9756 51.0867 33.9933 50.0507 33.742C49.8132 33.6844 49.5706 33.6685 49.3263 33.6685H46.844C39.5992 34.4231 44.6833 39.2664 45.8354 40.2789C45.9805 40.4064 46.1194 40.5353 46.2765 40.6477C46.5632 40.8527 47.1297 41.1745 48.0023 41.3151Z" fill="#55371B"/>
</mask>
<g mask="url(#mask1)">
<path fill-rule="evenodd" clip-rule="evenodd" d="M48.2761 41.315C48.2761 41.315 50.842 41.6 53.1859 37.9717C55.1805 34.8852 51.6452 33.9358 50.5451 33.7211C50.3377 33.6806 50.128 33.6684 49.9167 33.6684H46.9349C38.4912 34.428 44.5107 39.33 45.7926 40.2982C45.9432 40.412 46.0883 40.5279 46.2478 40.6289C46.5694 40.8325 47.2343 41.1701 48.2761 41.315Z" fill="#2F1E0F"/>
<path fill-rule="evenodd" clip-rule="evenodd" d="M49.2995 41.315C49.2995 41.315 51.8655 41.6 54.2094 37.9717C56.2039 34.8852 52.6686 33.9358 51.5686 33.7211C51.3611 33.6806 51.1515 33.6684 50.9401 33.6684H47.9583C39.5147 34.428 45.5342 39.33 46.8161 40.2982C46.9667 40.412 47.1118 40.5279 47.2712 40.6289C47.5929 40.8325 48.2577 41.1701 49.2995 41.315Z" fill="#55371B"/>
</g>
<path fill-rule="evenodd" clip-rule="evenodd" d="M35.8572 29.3327C35.8572 30.8825 34.5958 32.138 33.0396 32.138C31.4841 32.138 30.2227 30.8825 30.2227 29.3327C30.2227 27.7829 31.4841 26.5267 33.0396 26.5267C34.5958 26.5267 35.8572 27.7829 35.8572 29.3327Z" fill="#55371B"/>
<path fill-rule="evenodd" clip-rule="evenodd" d="M34.8336 27.8021C34.8336 28.2247 34.4896 28.5672 34.0651 28.5672C33.6409 28.5672 33.2969 28.2247 33.2969 27.8021C33.2969 27.3794 33.6409 27.0368 34.0651 27.0368C34.4896 27.0368 34.8336 27.3794 34.8336 27.8021Z" fill="#7C5027"/>
<path fill-rule="evenodd" clip-rule="evenodd" d="M34.8325 27.802C34.8325 27.9429 34.7179 28.057 34.5764 28.057C34.435 28.057 34.3203 27.9429 34.3203 27.802C34.3203 27.6611 34.435 27.5469 34.5764 27.5469C34.7179 27.5469 34.8325 27.6611 34.8325 27.802Z" fill="white"/>
<path fill-rule="evenodd" clip-rule="evenodd" d="M34.8325 27.802C34.8325 27.9429 34.7179 28.057 34.5764 28.057C34.435 28.057 34.3203 27.9429 34.3203 27.802C34.3203 27.6611 34.435 27.5469 34.5764 27.5469C34.7179 27.5469 34.8325 27.6611 34.8325 27.802Z" fill="white"/>
<path fill-rule="evenodd" clip-rule="evenodd" d="M34.8325 27.802C34.8325 27.9429 34.7179 28.057 34.5764 28.057C34.435 28.057 34.3203 27.9429 34.3203 27.802C34.3203 27.6611 34.435 27.5469 34.5764 27.5469C34.7179 27.5469 34.8325 27.6611 34.8325 27.802Z" fill="white"/>
<path fill-rule="evenodd" clip-rule="evenodd" d="M58.4806 29.3751C58.4806 30.6666 57.4295 31.713 56.1326 31.713C54.8363 31.713 53.7852 30.6666 53.7852 29.3751C53.7852 28.0836 54.8363 27.0368 56.1326 27.0368C57.4295 27.0368 58.4806 28.0836 58.4806 29.3751Z" fill="#55371B"/>
<path fill-rule="evenodd" clip-rule="evenodd" d="M57.6263 28.1846C57.6263 28.5368 57.3396 28.8222 56.9859 28.8222C56.6324 28.8222 56.3457 28.5368 56.3457 28.1846C56.3457 27.8324 56.6324 27.5469 56.9859 27.5469C57.3396 27.5469 57.6263 27.8324 57.6263 28.1846Z" fill="#7C5027"/>
<path fill-rule="evenodd" clip-rule="evenodd" d="M57.6275 28.0571C57.6275 28.1979 57.5128 28.3121 57.3713 28.3121C57.2299 28.3121 57.1152 28.1979 57.1152 28.0571C57.1152 27.9162 57.2299 27.802 57.3713 27.802C57.5128 27.802 57.6275 27.9162 57.6275 28.0571Z" fill="white"/>
<path fill-rule="evenodd" clip-rule="evenodd" d="M57.6275 28.0571C57.6275 28.1979 57.5128 28.3121 57.3713 28.3121C57.2299 28.3121 57.1152 28.1979 57.1152 28.0571C57.1152 27.9162 57.2299 27.802 57.3713 27.802C57.5128 27.802 57.6275 27.9162 57.6275 28.0571Z" fill="white"/>
<path fill-rule="evenodd" clip-rule="evenodd" d="M57.6275 28.0571C57.6275 28.1979 57.5128 28.3121 57.3713 28.3121C57.2299 28.3121 57.1152 28.1979 57.1152 28.0571C57.1152 27.9162 57.2299 27.802 57.3713 27.802C57.5128 27.802 57.6275 27.9162 57.6275 28.0571Z" fill="white"/>
<path fill-rule="evenodd" clip-rule="evenodd" d="M18.9527 11.2224C18.9527 17.4204 14.7101 22.4456 9.47666 22.4456C4.24252 22.4456 0 17.4204 0 11.2224C0 5.02442 4.24252 0 9.47666 0C14.7101 0 18.9527 5.02442 18.9527 11.2224Z" fill="#C47F4B"/>
<path fill-rule="evenodd" clip-rule="evenodd" d="M19.978 11.2224C19.978 17.4204 15.7355 22.4456 10.502 22.4456C5.26791 22.4456 1.02539 17.4204 1.02539 11.2224C1.02539 5.02442 5.26791 0 10.502 0C15.7355 0 19.978 5.02442 19.978 11.2224Z" fill="#CD844B"/>
<path fill-rule="evenodd" clip-rule="evenodd" d="M15.879 11.4779C15.879 15.5636 13.2415 18.8747 9.98835 18.8747C6.73518 18.8747 4.09766 15.5636 4.09766 11.4779C4.09766 7.39213 6.73518 4.08105 9.98835 4.08105C13.2415 4.08105 15.879 7.39213 15.879 11.4779Z" fill="#58351A"/>
</svg>
