<svg viewBox="0 0 36 36" xmlns="http://www.w3.org/2000/svg"><g fill="none" fill-rule="evenodd" stroke="#5A5A5A" stroke-width="3"><circle cx="18" cy="18" r="4.5"/><path d="M34.5 20.5v-6h-4.974l-.376-.945c-.098-.247-.204-.49-.319-.73l-.457-.956 3.415-3.415-4.243-4.243-3.415 3.415-.957-.457c-.24-.115-.482-.22-.729-.319l-.945-.376V1.5h-6v4.71l-1.057.326c-.546.17-1.08.377-1.597.623l-.973.463L8.5 4.129 4.184 8.297l3.446 3.568-.452.941c-.118.246-.227.496-.328.749l-.376.945H1.5v6h4.71l.326 1.057c.172.553.383 1.094.633 1.617l.457.957-3.415 3.415 4.243 4.243 3.415-3.415.957.457c.523.25 1.064.461 1.617.633l1.057.326v4.71h6v-4.974l.945-.376c.273-.109.542-.227.807-.356l.979-.476 3.351 3.47 4.316-4.168-3.467-3.59.438-.936c.234-.498.432-1.012.595-1.537l.326-1.057h4.71z"/></g></svg>