<svg width="385" height="495" viewBox="0 0 385 495" fill="none" xmlns="http://www.w3.org/2000/svg">
<rect width="385" height="495" rx="5" fill="white"/>
<path d="M60.9981 366V355.783L51.8109 338.28H56.5629L63.0969 351.665L69.5913 338.28H74.3037L65.1957 355.783V366H60.9981ZM83.3195 366.475C81.4451 366.475 79.7555 366.053 78.2507 365.208C76.7723 364.337 75.5975 363.136 74.7263 361.604C73.8551 360.047 73.4195 358.238 73.4195 356.179C73.4195 354.12 73.8551 352.325 74.7263 350.794C75.6239 349.236 76.8251 348.035 78.3299 347.19C79.8347 346.319 81.5111 345.883 83.3591 345.883C85.2335 345.883 86.9099 346.319 88.3883 347.19C89.8931 348.035 91.0811 349.236 91.9523 350.794C92.8499 352.325 93.2987 354.12 93.2987 356.179C93.2987 358.238 92.8499 360.047 91.9523 361.604C91.0811 363.136 89.8931 364.337 88.3883 365.208C86.8835 366.053 85.1939 366.475 83.3195 366.475ZM83.3195 362.872C84.3227 362.872 85.2467 362.621 86.0915 362.119C86.9627 361.618 87.6623 360.878 88.1903 359.902C88.7183 358.898 88.9823 357.658 88.9823 356.179C88.9823 354.701 88.7183 353.473 88.1903 352.496C87.6887 351.493 87.0023 350.741 86.1311 350.239C85.2863 349.738 84.3623 349.487 83.3591 349.487C82.3559 349.487 81.4187 349.738 80.5475 350.239C79.7027 350.741 79.0163 351.493 78.4883 352.496C77.9603 353.473 77.6963 354.701 77.6963 356.179C77.6963 357.658 77.9603 358.898 78.4883 359.902C79.0163 360.878 79.7027 361.618 80.5475 362.119C81.3923 362.621 82.3163 362.872 83.3195 362.872ZM115.896 346.358V366H112.173L111.857 362.555C111.249 363.769 110.352 364.733 109.164 365.446C108.002 366.132 106.656 366.475 105.125 366.475C102.749 366.475 100.874 365.736 99.5014 364.258C98.155 362.779 97.4818 360.575 97.4818 357.644V346.358H101.64V357.209C101.64 361.01 103.197 362.911 106.313 362.911C107.87 362.911 109.151 362.357 110.154 361.248C111.183 360.139 111.698 358.555 111.698 356.496V346.358H115.896ZM121.196 366V346.358H124.958L125.314 350.081C126.001 348.787 126.951 347.771 128.166 347.032C129.406 346.266 130.898 345.883 132.64 345.883V350.279H131.492C130.33 350.279 129.288 350.477 128.364 350.873C127.466 351.242 126.74 351.889 126.186 352.813C125.658 353.711 125.394 354.965 125.394 356.575V366H121.196ZM150.137 366L144.355 346.358H148.553L152.355 361.169L156.631 346.358H161.304L165.581 361.169L169.383 346.358H173.58L167.799 366H163.482L158.968 350.556L154.453 366H150.137ZM185.491 366.475C183.616 366.475 181.927 366.053 180.422 365.208C178.943 364.337 177.769 363.136 176.897 361.604C176.026 360.047 175.591 358.238 175.591 356.179C175.591 354.12 176.026 352.325 176.897 350.794C177.795 349.236 178.996 348.035 180.501 347.19C182.006 346.319 183.682 345.883 185.53 345.883C187.405 345.883 189.081 346.319 190.559 347.19C192.064 348.035 193.252 349.236 194.123 350.794C195.021 352.325 195.47 354.12 195.47 356.179C195.47 358.238 195.021 360.047 194.123 361.604C193.252 363.136 192.064 364.337 190.559 365.208C189.055 366.053 187.365 366.475 185.491 366.475ZM185.491 362.872C186.494 362.872 187.418 362.621 188.263 362.119C189.134 361.618 189.833 360.878 190.361 359.902C190.889 358.898 191.153 357.658 191.153 356.179C191.153 354.701 190.889 353.473 190.361 352.496C189.86 351.493 189.173 350.741 188.302 350.239C187.457 349.738 186.533 349.487 185.53 349.487C184.527 349.487 183.59 349.738 182.719 350.239C181.874 350.741 181.187 351.493 180.659 352.496C180.131 353.473 179.867 354.701 179.867 356.179C179.867 357.658 180.131 358.898 180.659 359.902C181.187 360.878 181.874 361.618 182.719 362.119C183.563 362.621 184.487 362.872 185.491 362.872ZM200.009 366V346.358H203.771L204.128 350.081C204.814 348.787 205.764 347.771 206.979 347.032C208.22 346.266 209.711 345.883 211.454 345.883V350.279H210.305C209.144 350.279 208.101 350.477 207.177 350.873C206.279 351.242 205.553 351.889 204.999 352.813C204.471 353.711 204.207 354.965 204.207 356.575V366H200.009ZM215.053 366V337.488H219.25V354.476L226.774 346.358H231.803L223.448 355.268L233.031 366H227.725L219.25 355.942V366H215.053ZM236.283 366V337.488H240.481V366H236.283ZM254.984 366.475C253.11 366.475 251.42 366.053 249.915 365.208C248.437 364.337 247.262 363.136 246.391 361.604C245.52 360.047 245.084 358.238 245.084 356.179C245.084 354.12 245.52 352.325 246.391 350.794C247.288 349.236 248.49 348.035 249.994 347.19C251.499 346.319 253.176 345.883 255.024 345.883C256.898 345.883 258.574 346.319 260.053 347.19C261.558 348.035 262.746 349.236 263.617 350.794C264.514 352.325 264.963 354.12 264.963 356.179C264.963 358.238 264.514 360.047 263.617 361.604C262.746 363.136 261.558 364.337 260.053 365.208C258.548 366.053 256.858 366.475 254.984 366.475ZM254.984 362.872C255.987 362.872 256.911 362.621 257.756 362.119C258.627 361.618 259.327 360.878 259.855 359.902C260.383 358.898 260.647 357.658 260.647 356.179C260.647 354.701 260.383 353.473 259.855 352.496C259.353 351.493 258.667 350.741 257.796 350.239C256.951 349.738 256.027 349.487 255.024 349.487C254.02 349.487 253.083 349.738 252.212 350.239C251.367 350.741 250.681 351.493 250.153 352.496C249.625 353.473 249.361 354.701 249.361 356.179C249.361 357.658 249.625 358.898 250.153 359.902C250.681 360.878 251.367 361.618 252.212 362.119C253.057 362.621 253.981 362.872 254.984 362.872ZM276.155 366.475C274.492 366.475 273.119 366.198 272.037 365.644C270.955 365.089 270.149 364.363 269.621 363.466C269.093 362.542 268.829 361.538 268.829 360.456C268.829 358.555 269.569 357.05 271.047 355.942C272.525 354.833 274.637 354.278 277.383 354.278H282.531V353.922C282.531 352.391 282.109 351.242 281.264 350.477C280.445 349.711 279.376 349.328 278.056 349.328C276.895 349.328 275.878 349.619 275.007 350.2C274.162 350.754 273.647 351.586 273.463 352.694H269.265C269.397 351.269 269.872 350.054 270.691 349.051C271.535 348.022 272.591 347.243 273.859 346.715C275.152 346.16 276.565 345.883 278.096 345.883C280.841 345.883 282.967 346.609 284.471 348.061C285.976 349.487 286.729 351.44 286.729 353.922V366H283.085L282.729 362.634C282.175 363.716 281.369 364.627 280.313 365.366C279.257 366.106 277.871 366.475 276.155 366.475ZM276.987 363.07C278.122 363.07 279.073 362.806 279.838 362.278C280.63 361.723 281.237 360.997 281.66 360.1C282.109 359.202 282.386 358.212 282.491 357.13H277.819C276.155 357.13 274.967 357.42 274.255 358.001C273.568 358.582 273.225 359.308 273.225 360.179C273.225 361.076 273.555 361.789 274.215 362.317C274.901 362.819 275.825 363.07 276.987 363.07ZM300.573 366.475C298.672 366.475 296.995 366.026 295.543 365.129C294.091 364.231 292.956 363.004 292.138 361.446C291.319 359.888 290.91 358.12 290.91 356.14C290.91 354.16 291.319 352.404 292.138 350.873C292.956 349.315 294.091 348.101 295.543 347.23C297.022 346.332 298.711 345.883 300.612 345.883C302.17 345.883 303.529 346.187 304.691 346.794C305.879 347.401 306.803 348.259 307.463 349.368V337.488H311.661V366H307.899L307.463 362.951C306.829 363.875 305.958 364.693 304.849 365.406C303.741 366.119 302.315 366.475 300.573 366.475ZM301.325 362.832C303.12 362.832 304.585 362.212 305.721 360.971C306.882 359.73 307.463 358.133 307.463 356.179C307.463 354.199 306.882 352.602 305.721 351.388C304.585 350.147 303.12 349.526 301.325 349.526C299.53 349.526 298.051 350.147 296.89 351.388C295.728 352.602 295.147 354.199 295.147 356.179C295.147 357.473 295.411 358.621 295.939 359.624C296.467 360.628 297.193 361.42 298.117 362C299.068 362.555 300.137 362.832 301.325 362.832ZM318.616 366.238C317.824 366.238 317.164 365.987 316.636 365.485C316.135 364.957 315.884 364.337 315.884 363.624C315.884 362.885 316.135 362.264 316.636 361.763C317.164 361.235 317.824 360.971 318.616 360.971C319.408 360.971 320.055 361.235 320.557 361.763C321.058 362.264 321.309 362.885 321.309 363.624C321.309 364.337 321.058 364.957 320.557 365.485C320.055 365.987 319.408 366.238 318.616 366.238Z" fill="black"/>
<path d="M104.086 418L93.8297 390.28H98.3045L106.621 413.644L114.976 390.28H119.411L109.155 418H104.086ZM125.177 394.636C124.385 394.636 123.725 394.398 123.197 393.923C122.695 393.422 122.444 392.801 122.444 392.062C122.444 391.323 122.695 390.716 123.197 390.24C123.725 389.739 124.385 389.488 125.177 389.488C125.969 389.488 126.616 389.739 127.117 390.24C127.645 390.716 127.909 391.323 127.909 392.062C127.909 392.801 127.645 393.422 127.117 393.923C126.616 394.398 125.969 394.636 125.177 394.636ZM123.078 418V398.358H127.276V418H123.078ZM140.658 418.475C138.176 418.475 136.13 417.868 134.52 416.654C132.909 415.439 131.985 413.829 131.748 411.822H135.985C136.196 412.72 136.698 413.499 137.49 414.159C138.282 414.792 139.324 415.109 140.618 415.109C141.885 415.109 142.809 414.845 143.39 414.317C143.971 413.789 144.261 413.182 144.261 412.496C144.261 411.492 143.852 410.819 143.034 410.476C142.242 410.106 141.133 409.776 139.707 409.486C138.598 409.248 137.49 408.932 136.381 408.536C135.298 408.14 134.388 407.585 133.648 406.872C132.936 406.133 132.579 405.143 132.579 403.902C132.579 402.186 133.239 400.761 134.559 399.626C135.879 398.464 137.727 397.883 140.103 397.883C142.294 397.883 144.063 398.411 145.41 399.467C146.782 400.523 147.588 402.015 147.825 403.942H143.786C143.654 403.097 143.258 402.437 142.598 401.962C141.964 401.487 141.106 401.249 140.024 401.249C138.968 401.249 138.15 401.474 137.569 401.922C136.988 402.345 136.698 402.899 136.698 403.586C136.698 404.272 137.094 404.813 137.886 405.209C138.704 405.605 139.773 405.962 141.093 406.278C142.413 406.569 143.628 406.912 144.736 407.308C145.872 407.678 146.782 408.232 147.469 408.971C148.155 409.71 148.498 410.793 148.498 412.218C148.525 414.014 147.825 415.505 146.4 416.693C145 417.881 143.086 418.475 140.658 418.475ZM171.139 398.358V418H167.416L167.099 414.555C166.492 415.769 165.595 416.733 164.407 417.446C163.245 418.132 161.899 418.475 160.367 418.475C157.991 418.475 156.117 417.736 154.744 416.258C153.398 414.779 152.725 412.575 152.725 409.644V398.358H156.883V409.209C156.883 413.01 158.44 414.911 161.555 414.911C163.113 414.911 164.393 414.357 165.397 413.248C166.426 412.139 166.941 410.555 166.941 408.496V398.358H171.139ZM183.092 418.475C181.428 418.475 180.056 418.198 178.973 417.644C177.891 417.089 177.086 416.363 176.558 415.466C176.03 414.542 175.766 413.538 175.766 412.456C175.766 410.555 176.505 409.05 177.983 407.942C179.462 406.833 181.574 406.278 184.319 406.278H189.467V405.922C189.467 404.391 189.045 403.242 188.2 402.477C187.382 401.711 186.312 401.328 184.992 401.328C183.831 401.328 182.814 401.619 181.943 402.2C181.098 402.754 180.584 403.586 180.399 404.694H176.201C176.333 403.269 176.808 402.054 177.627 401.051C178.472 400.022 179.528 399.243 180.795 398.715C182.088 398.16 183.501 397.883 185.032 397.883C187.778 397.883 189.903 398.609 191.408 400.061C192.912 401.487 193.665 403.44 193.665 405.922V418H190.022L189.665 414.634C189.111 415.716 188.306 416.627 187.25 417.366C186.194 418.106 184.808 418.475 183.092 418.475ZM183.923 415.07C185.058 415.07 186.009 414.806 186.774 414.278C187.566 413.723 188.174 412.997 188.596 412.1C189.045 411.202 189.322 410.212 189.428 409.13H184.755C183.092 409.13 181.904 409.42 181.191 410.001C180.504 410.582 180.161 411.308 180.161 412.179C180.161 413.076 180.491 413.789 181.151 414.317C181.838 414.819 182.762 415.07 183.923 415.07ZM198.559 418V389.488H202.757V418H198.559ZM210.448 394.636C209.656 394.636 208.996 394.398 208.468 393.923C207.967 393.422 207.716 392.801 207.716 392.062C207.716 391.323 207.967 390.716 208.468 390.24C208.996 389.739 209.656 389.488 210.448 389.488C211.24 389.488 211.887 389.739 212.389 390.24C212.917 390.716 213.181 391.323 213.181 392.062C213.181 392.801 212.917 393.422 212.389 393.923C211.887 394.398 211.24 394.636 210.448 394.636ZM208.35 418V398.358H212.547V418H208.35ZM216.782 418V414.594L227.276 401.843H216.94V398.358H232.028V401.764L221.454 414.515H232.226V418H216.782ZM245.722 418.475C243.795 418.475 242.079 418.053 240.574 417.208C239.096 416.337 237.934 415.136 237.089 413.604C236.244 412.073 235.822 410.291 235.822 408.258C235.822 406.199 236.231 404.391 237.05 402.833C237.894 401.276 239.056 400.061 240.534 399.19C242.039 398.319 243.782 397.883 245.762 397.883C247.689 397.883 249.365 398.319 250.791 399.19C252.216 400.035 253.325 401.17 254.117 402.596C254.909 404.021 255.305 405.592 255.305 407.308C255.305 407.572 255.292 407.862 255.266 408.179C255.266 408.47 255.252 408.8 255.226 409.169H239.94C240.072 411.07 240.693 412.522 241.802 413.525C242.937 414.502 244.244 414.99 245.722 414.99C246.91 414.99 247.9 414.726 248.692 414.198C249.51 413.644 250.118 412.905 250.514 411.981H254.711C254.183 413.829 253.127 415.373 251.543 416.614C249.986 417.855 248.045 418.475 245.722 418.475ZM245.722 401.328C244.323 401.328 243.082 401.751 242 402.596C240.917 403.414 240.257 404.655 240.02 406.318H251.108C251.028 404.787 250.487 403.572 249.484 402.675C248.481 401.777 247.227 401.328 245.722 401.328ZM268.61 418.475C266.709 418.475 265.033 418.026 263.581 417.129C262.129 416.231 260.994 415.004 260.175 413.446C259.357 411.888 258.948 410.12 258.948 408.14C258.948 406.16 259.357 404.404 260.175 402.873C260.994 401.315 262.129 400.101 263.581 399.23C265.059 398.332 266.749 397.883 268.65 397.883C270.207 397.883 271.567 398.187 272.729 398.794C273.917 399.401 274.841 400.259 275.501 401.368V389.488H279.698V418H275.936L275.501 414.951C274.867 415.875 273.996 416.693 272.887 417.406C271.778 418.119 270.353 418.475 268.61 418.475ZM269.363 414.832C271.158 414.832 272.623 414.212 273.758 412.971C274.92 411.73 275.501 410.133 275.501 408.179C275.501 406.199 274.92 404.602 273.758 403.388C272.623 402.147 271.158 401.526 269.363 401.526C267.567 401.526 266.089 402.147 264.927 403.388C263.766 404.602 263.185 406.199 263.185 408.179C263.185 409.473 263.449 410.621 263.977 411.624C264.505 412.628 265.231 413.42 266.155 414C267.105 414.555 268.175 414.832 269.363 414.832ZM286.654 418.238C285.862 418.238 285.202 417.987 284.674 417.485C284.172 416.957 283.921 416.337 283.921 415.624C283.921 414.885 284.172 414.264 284.674 413.763C285.202 413.235 285.862 412.971 286.654 412.971C287.446 412.971 288.093 413.235 288.594 413.763C289.096 414.264 289.347 414.885 289.347 415.624C289.347 416.337 289.096 416.957 288.594 417.485C288.093 417.987 287.446 418.238 286.654 418.238Z" fill="#7FBDFF"/>
<mask id="mask0" mask-type="alpha" maskUnits="userSpaceOnUse" x="72" y="32" width="240" height="240">
<rect x="72" y="32" width="240" height="240" rx="120" fill="#F2C94C"/>
</mask>
<g mask="url(#mask0)">
<rect x="72" y="32" width="240" height="240" rx="120" fill="#F2C94C"/>
<rect x="120" y="75.2" width="144" height="196.8" fill="white"/>
<rect opacity="0.95" x="120" y="104" width="144" height="24" fill="#EB5757"/>
<rect x="124.8" y="110" width="12" height="12" fill="white"/>
</g>
<g filter="url(#filter0_d)">
<rect x="72" y="132.8" width="240" height="48" fill="#BB6BD9"/>
<rect x="84" y="144.8" width="24" height="24" fill="white"/>
</g>
<path d="M130.771 93.8H129.138V85.2073H126.198V83.8059H133.711V85.2073H130.771V93.8ZM144.122 88.7893C144.122 90.4163 143.714 91.6809 142.898 92.5833C142.087 93.4856 140.937 93.9368 139.446 93.9368C137.938 93.9368 136.778 93.4902 135.967 92.5969C135.16 91.6991 134.757 90.4254 134.757 88.7756C134.757 87.1259 135.162 85.859 135.974 84.9749C136.789 84.0907 137.951 83.6487 139.46 83.6487C140.946 83.6487 142.094 84.0976 142.905 84.9954C143.716 85.8931 144.122 87.1578 144.122 88.7893ZM136.493 88.7893C136.493 90.0198 136.742 90.954 137.238 91.592C137.735 92.2255 138.471 92.5422 139.446 92.5422C140.417 92.5422 141.148 92.2278 141.641 91.5989C142.137 90.97 142.386 90.0334 142.386 88.7893C142.386 87.5634 142.14 86.6337 141.647 86.0002C141.16 85.3668 140.431 85.05 139.46 85.05C138.48 85.05 137.74 85.3668 137.238 86.0002C136.742 86.6337 136.493 87.5634 136.493 88.7893ZM154.396 88.7073C154.396 90.357 153.938 91.6194 153.022 92.4944C152.106 93.3648 150.787 93.8 149.064 93.8H146.269V83.8059H149.358C150.949 83.8059 152.186 84.2343 153.07 85.0911C153.954 85.9478 154.396 87.1532 154.396 88.7073ZM152.674 88.762C152.674 86.3694 151.555 85.1731 149.317 85.1731H147.902V92.426H149.064C151.471 92.426 152.674 91.2047 152.674 88.762ZM162.75 93.8L161.752 91.0247H157.931L156.953 93.8H155.23L158.97 83.7649H160.747L164.486 93.8H162.75ZM161.321 89.6165L160.385 86.8958C160.316 86.7135 160.221 86.4264 160.098 86.0344C159.979 85.6425 159.897 85.3554 159.852 85.1731C159.729 85.7336 159.549 86.3466 159.312 87.012L158.409 89.6165H161.321ZM168.629 88.3655L170.994 83.8059H172.771L169.442 89.9241V93.8H167.802V89.9788L164.486 83.8059H166.264L168.629 88.3655ZM183.436 93.8H177.181V93.1985L179.84 90.4231C180.587 89.6484 181.111 89.0559 181.412 88.6458C181.713 88.2356 181.934 87.8437 182.075 87.47C182.216 87.0963 182.287 86.7043 182.287 86.2942C182.287 85.6972 182.091 85.2118 181.699 84.8381C181.307 84.4644 180.799 84.2776 180.175 84.2776C179.341 84.2776 178.543 84.5806 177.782 85.1868L177.413 84.7151C178.247 84.0133 179.172 83.6624 180.188 83.6624C181.059 83.6624 181.743 83.8948 182.239 84.3596C182.741 84.8245 182.991 85.4648 182.991 86.2805C182.991 86.9413 182.823 87.5816 182.485 88.2014C182.153 88.8167 181.542 89.5777 180.653 90.4846L178.09 93.1165V93.1438H183.436V93.8Z" fill="#4F4F4F"/>
<rect x="84" y="144.8" width="24" height="24" fill="white"/>
<path d="M93.4177 159.02L88.9606 155.572L86.7321 158.459L92.458 162.884L93.7268 163.86L94.8573 162.729L105.268 152.319L102.698 149.74L93.4177 159.02Z" fill="#5A5A5A"/>
<defs>
<filter id="filter0_d" x="68" y="128.8" width="248" height="56" filterUnits="userSpaceOnUse" color-interpolation-filters="sRGB">
<feFlood flood-opacity="0" result="BackgroundImageFix"/>
<feColorMatrix in="SourceAlpha" type="matrix" values="0 0 0 0 0 0 0 0 0 0 0 0 0 0 0 0 0 0 127 0"/>
<feOffset/>
<feGaussianBlur stdDeviation="2"/>
<feColorMatrix type="matrix" values="0 0 0 0 0 0 0 0 0 0 0 0 0 0 0 0 0 0 0.25 0"/>
<feBlend mode="normal" in2="BackgroundImageFix" result="effect1_dropShadow"/>
<feBlend mode="normal" in="SourceGraphic" in2="effect1_dropShadow" result="shape"/>
</filter>
</defs>
</svg>
