<svg width="350" height="450" viewBox="0 0 350 450" fill="none" xmlns="http://www.w3.org/2000/svg">
<rect width="350" height="450" rx="5" fill="white"/>
<path d="M37.0614 327.432C34.5654 327.432 32.4054 326.892 30.5814 325.812C28.7814 324.708 27.3894 323.184 26.4054 321.24C25.4214 319.272 24.9294 317.004 24.9294 314.436C24.9294 311.844 25.4214 309.576 26.4054 307.632C27.3894 305.664 28.7814 304.128 30.5814 303.024C32.4054 301.92 34.5654 301.368 37.0614 301.368C40.0134 301.368 42.4254 302.088 44.2974 303.528C46.1694 304.968 47.3574 306.984 47.8614 309.576H43.6134C43.2774 308.112 42.5574 306.948 41.4534 306.084C40.3494 305.22 38.8734 304.788 37.0254 304.788C34.5054 304.788 32.5134 305.652 31.0494 307.38C29.5854 309.084 28.8534 311.436 28.8534 314.436C28.8534 317.412 29.5854 319.752 31.0494 321.456C32.5134 323.16 34.5054 324.012 37.0254 324.012C38.8734 324.012 40.3494 323.604 41.4534 322.788C42.5574 321.972 43.2774 320.856 43.6134 319.44H47.8614C47.3574 321.936 46.1694 323.892 44.2974 325.308C42.4254 326.724 40.0134 327.432 37.0614 327.432ZM51.912 327V309.144H55.332L55.656 312.528C56.28 311.352 57.144 310.428 58.248 309.756C59.376 309.06 60.732 308.712 62.316 308.712V312.708H61.272C60.216 312.708 59.268 312.888 58.428 313.248C57.612 313.584 56.952 314.172 56.448 315.012C55.968 315.828 55.728 316.968 55.728 318.432V327H51.912ZM73.4476 327.432C71.6956 327.432 70.1356 327.048 68.7676 326.28C67.4236 325.488 66.3676 324.396 65.5996 323.004C64.8316 321.612 64.4476 319.992 64.4476 318.144C64.4476 316.272 64.8196 314.628 65.5636 313.212C66.3316 311.796 67.3876 310.692 68.7316 309.9C70.0996 309.108 71.6836 308.712 73.4836 308.712C75.2356 308.712 76.7596 309.108 78.0556 309.9C79.3516 310.668 80.3596 311.7 81.0796 312.996C81.7996 314.292 82.1596 315.72 82.1596 317.28C82.1596 317.52 82.1476 317.784 82.1236 318.072C82.1236 318.336 82.1116 318.636 82.0876 318.972H68.1916C68.3116 320.7 68.8756 322.02 69.8836 322.932C70.9156 323.82 72.1036 324.264 73.4476 324.264C74.5276 324.264 75.4276 324.024 76.1476 323.544C76.8916 323.04 77.4436 322.368 77.8036 321.528H81.6196C81.1396 323.208 80.1796 324.612 78.7396 325.74C77.3236 326.868 75.5596 327.432 73.4476 327.432ZM73.4476 311.844C72.1756 311.844 71.0476 312.228 70.0636 312.996C69.0796 313.74 68.4796 314.868 68.2636 316.38H78.3436C78.2716 314.988 77.7796 313.884 76.8676 313.068C75.9556 312.252 74.8156 311.844 73.4476 311.844ZM92.167 327.432C90.655 327.432 89.407 327.18 88.423 326.676C87.439 326.172 86.707 325.512 86.227 324.696C85.747 323.856 85.507 322.944 85.507 321.96C85.507 320.232 86.179 318.864 87.523 317.856C88.867 316.848 90.787 316.344 93.283 316.344H97.963V316.02C97.963 314.628 97.579 313.584 96.811 312.888C96.067 312.192 95.095 311.844 93.895 311.844C92.839 311.844 91.915 312.108 91.123 312.636C90.355 313.14 89.887 313.896 89.719 314.904H85.903C86.023 313.608 86.455 312.504 87.199 311.592C87.967 310.656 88.927 309.948 90.079 309.468C91.255 308.964 92.539 308.712 93.931 308.712C96.427 308.712 98.359 309.372 99.727 310.692C101.095 311.988 101.779 313.764 101.779 316.02V327H98.467L98.143 323.94C97.639 324.924 96.907 325.752 95.947 326.424C94.987 327.096 93.727 327.432 92.167 327.432ZM92.923 324.336C93.955 324.336 94.819 324.096 95.515 323.616C96.235 323.112 96.787 322.452 97.171 321.636C97.579 320.82 97.831 319.92 97.927 318.936H93.679C92.167 318.936 91.087 319.2 90.439 319.728C89.815 320.256 89.503 320.916 89.503 321.708C89.503 322.524 89.803 323.172 90.403 323.652C91.027 324.108 91.867 324.336 92.923 324.336ZM113.365 327C111.613 327 110.221 326.58 109.189 325.74C108.157 324.876 107.641 323.352 107.641 321.168V312.348H104.581V309.144H107.641L108.109 304.608H111.457V309.144H116.497V312.348H111.457V321.168C111.457 322.152 111.661 322.836 112.069 323.22C112.501 323.58 113.233 323.76 114.265 323.76H116.317V327H113.365ZM128.327 327.432C126.575 327.432 125.015 327.048 123.647 326.28C122.303 325.488 121.247 324.396 120.479 323.004C119.711 321.612 119.327 319.992 119.327 318.144C119.327 316.272 119.699 314.628 120.443 313.212C121.211 311.796 122.267 310.692 123.611 309.9C124.979 309.108 126.563 308.712 128.363 308.712C130.115 308.712 131.639 309.108 132.935 309.9C134.231 310.668 135.239 311.7 135.959 312.996C136.679 314.292 137.039 315.72 137.039 317.28C137.039 317.52 137.027 317.784 137.003 318.072C137.003 318.336 136.991 318.636 136.967 318.972H123.071C123.191 320.7 123.755 322.02 124.763 322.932C125.795 323.82 126.983 324.264 128.327 324.264C129.407 324.264 130.307 324.024 131.027 323.544C131.771 323.04 132.323 322.368 132.683 321.528H136.499C136.019 323.208 135.059 324.612 133.619 325.74C132.203 326.868 130.439 327.432 128.327 327.432ZM128.327 311.844C127.055 311.844 125.927 312.228 124.943 312.996C123.959 313.74 123.359 314.868 123.143 316.38H133.223C133.151 314.988 132.659 313.884 131.747 313.068C130.835 312.252 129.695 311.844 128.327 311.844ZM91.366 379.22C90.022 377.924 88.81 376.4 87.73 374.648C86.674 372.92 85.822 371 85.174 368.888C84.55 366.752 84.238 364.46 84.238 362.012C84.238 359.564 84.55 357.284 85.174 355.172C85.822 353.036 86.674 351.104 87.73 349.376C88.81 347.624 90.022 346.1 91.366 344.804H95.182V345.164C93.022 347.396 91.282 349.952 89.962 352.832C88.666 355.712 88.018 358.772 88.018 362.012C88.018 365.252 88.666 368.312 89.962 371.192C91.282 374.072 93.034 376.628 95.218 378.86V379.22H91.366ZM105.306 374.432C103.05 374.432 101.19 373.88 99.7256 372.776C98.2616 371.672 97.4216 370.208 97.2056 368.384H101.058C101.25 369.2 101.706 369.908 102.426 370.508C103.146 371.084 104.094 371.372 105.27 371.372C106.422 371.372 107.262 371.132 107.79 370.652C108.318 370.172 108.582 369.62 108.582 368.996C108.582 368.084 108.21 367.472 107.466 367.16C106.746 366.824 105.738 366.524 104.442 366.26C103.434 366.044 102.426 365.756 101.418 365.396C100.434 365.036 99.6056 364.532 98.9336 363.884C98.2856 363.212 97.9616 362.312 97.9616 361.184C97.9616 359.624 98.5616 358.328 99.7616 357.296C100.962 356.24 102.642 355.712 104.802 355.712C106.794 355.712 108.402 356.192 109.626 357.152C110.874 358.112 111.606 359.468 111.822 361.22H108.15C108.03 360.452 107.67 359.852 107.07 359.42C106.494 358.988 105.714 358.772 104.73 358.772C103.77 358.772 103.026 358.976 102.498 359.384C101.97 359.768 101.706 360.272 101.706 360.896C101.706 361.52 102.066 362.012 102.786 362.372C103.53 362.732 104.502 363.056 105.702 363.344C106.902 363.608 108.006 363.92 109.014 364.28C110.046 364.616 110.874 365.12 111.498 365.792C112.122 366.464 112.434 367.448 112.434 368.744C112.458 370.376 111.822 371.732 110.526 372.812C109.254 373.892 107.514 374.432 105.306 374.432ZM133.016 356.144V374H129.632L129.344 370.868C128.792 371.972 127.976 372.848 126.896 373.496C125.84 374.12 124.616 374.432 123.224 374.432C121.064 374.432 119.36 373.76 118.112 372.416C116.888 371.072 116.276 369.068 116.276 366.404V356.144H120.056V366.008C120.056 369.464 121.472 371.192 124.304 371.192C125.72 371.192 126.884 370.688 127.796 369.68C128.732 368.672 129.2 367.232 129.2 365.36V356.144H133.016ZM147.878 374.432C146.486 374.432 145.25 374.156 144.17 373.604C143.114 373.052 142.274 372.272 141.65 371.264L141.254 374H137.834V348.08H141.65V358.916C142.226 358.076 143.018 357.332 144.026 356.684C145.034 356.036 146.33 355.712 147.914 355.712C149.642 355.712 151.166 356.12 152.486 356.936C153.806 357.752 154.838 358.868 155.582 360.284C156.35 361.7 156.734 363.308 156.734 365.108C156.734 366.908 156.35 368.516 155.582 369.932C154.838 371.324 153.806 372.428 152.486 373.244C151.166 374.036 149.63 374.432 147.878 374.432ZM147.23 371.12C148.862 371.12 150.206 370.568 151.262 369.464C152.318 368.336 152.846 366.872 152.846 365.072C152.846 363.896 152.606 362.852 152.126 361.94C151.646 361.028 150.986 360.32 150.146 359.816C149.306 359.288 148.334 359.024 147.23 359.024C145.598 359.024 144.254 359.588 143.198 360.716C142.166 361.844 141.65 363.296 141.65 365.072C141.65 366.872 142.166 368.336 143.198 369.464C144.254 370.568 145.598 371.12 147.23 371.12ZM161.979 379.22C163.323 377.924 164.523 376.4 165.579 374.648C166.659 372.92 167.511 371 168.135 368.888C168.783 366.752 169.107 364.46 169.107 362.012C169.107 359.564 168.783 357.284 168.135 355.172C167.511 353.036 166.659 351.104 165.579 349.376C164.523 347.624 163.323 346.1 161.979 344.804H158.163V345.164C160.323 347.396 162.051 349.952 163.347 352.832C164.667 355.712 165.327 358.772 165.327 362.012C165.327 365.252 164.667 368.312 163.347 371.192C162.051 374.072 160.311 376.628 158.127 378.86V379.22H161.979ZM180.654 374C178.902 374 177.51 373.58 176.478 372.74C175.446 371.876 174.93 370.352 174.93 368.168V359.348H171.87V356.144H174.93L175.398 351.608H178.746V356.144H183.786V359.348H178.746V368.168C178.746 369.152 178.95 369.836 179.358 370.22C179.79 370.58 180.522 370.76 181.554 370.76H183.606V374H180.654ZM193.769 374.432C192.257 374.432 191.009 374.18 190.025 373.676C189.041 373.172 188.309 372.512 187.829 371.696C187.349 370.856 187.109 369.944 187.109 368.96C187.109 367.232 187.781 365.864 189.125 364.856C190.469 363.848 192.389 363.344 194.885 363.344H199.565V363.02C199.565 361.628 199.181 360.584 198.413 359.888C197.669 359.192 196.697 358.844 195.497 358.844C194.441 358.844 193.517 359.108 192.725 359.636C191.957 360.14 191.489 360.896 191.321 361.904H187.505C187.625 360.608 188.057 359.504 188.801 358.592C189.569 357.656 190.529 356.948 191.681 356.468C192.857 355.964 194.141 355.712 195.533 355.712C198.029 355.712 199.961 356.372 201.329 357.692C202.697 358.988 203.381 360.764 203.381 363.02V374H200.069L199.745 370.94C199.241 371.924 198.509 372.752 197.549 373.424C196.589 374.096 195.329 374.432 193.769 374.432ZM194.525 371.336C195.557 371.336 196.421 371.096 197.117 370.616C197.837 370.112 198.389 369.452 198.773 368.636C199.181 367.82 199.433 366.92 199.529 365.936H195.281C193.769 365.936 192.689 366.2 192.041 366.728C191.417 367.256 191.105 367.916 191.105 368.708C191.105 369.524 191.405 370.172 192.005 370.652C192.629 371.108 193.469 371.336 194.525 371.336ZM214.958 374.432C212.702 374.432 210.842 373.88 209.378 372.776C207.914 371.672 207.074 370.208 206.858 368.384H210.71C210.902 369.2 211.358 369.908 212.078 370.508C212.798 371.084 213.746 371.372 214.922 371.372C216.074 371.372 216.914 371.132 217.442 370.652C217.97 370.172 218.234 369.62 218.234 368.996C218.234 368.084 217.862 367.472 217.118 367.16C216.398 366.824 215.39 366.524 214.094 366.26C213.086 366.044 212.078 365.756 211.07 365.396C210.086 365.036 209.258 364.532 208.586 363.884C207.938 363.212 207.614 362.312 207.614 361.184C207.614 359.624 208.214 358.328 209.414 357.296C210.614 356.24 212.294 355.712 214.454 355.712C216.446 355.712 218.054 356.192 219.278 357.152C220.526 358.112 221.258 359.468 221.474 361.22H217.802C217.682 360.452 217.322 359.852 216.722 359.42C216.146 358.988 215.366 358.772 214.382 358.772C213.422 358.772 212.678 358.976 212.15 359.384C211.622 359.768 211.358 360.272 211.358 360.896C211.358 361.52 211.718 362.012 212.438 362.372C213.182 362.732 214.154 363.056 215.354 363.344C216.554 363.608 217.658 363.92 218.666 364.28C219.698 364.616 220.526 365.12 221.15 365.792C221.774 366.464 222.086 367.448 222.086 368.744C222.11 370.376 221.474 371.732 220.178 372.812C218.906 373.892 217.166 374.432 214.958 374.432ZM226.252 374V348.08H230.068V363.524L236.908 356.144H241.48L233.884 364.244L242.596 374H237.772L230.068 364.856V374H226.252ZM251.731 374.432C249.475 374.432 247.615 373.88 246.151 372.776C244.687 371.672 243.847 370.208 243.631 368.384H247.483C247.675 369.2 248.131 369.908 248.851 370.508C249.571 371.084 250.519 371.372 251.695 371.372C252.847 371.372 253.687 371.132 254.215 370.652C254.743 370.172 255.007 369.62 255.007 368.996C255.007 368.084 254.635 367.472 253.891 367.16C253.171 366.824 252.163 366.524 250.867 366.26C249.859 366.044 248.851 365.756 247.843 365.396C246.859 365.036 246.031 364.532 245.359 363.884C244.711 363.212 244.387 362.312 244.387 361.184C244.387 359.624 244.987 358.328 246.187 357.296C247.387 356.24 249.067 355.712 251.227 355.712C253.219 355.712 254.827 356.192 256.051 357.152C257.299 358.112 258.031 359.468 258.247 361.22H254.575C254.455 360.452 254.095 359.852 253.495 359.42C252.919 358.988 252.139 358.772 251.155 358.772C250.195 358.772 249.451 358.976 248.923 359.384C248.395 359.768 248.131 360.272 248.131 360.896C248.131 361.52 248.491 362.012 249.211 362.372C249.955 362.732 250.927 363.056 252.127 363.344C253.327 363.608 254.431 363.92 255.439 364.28C256.471 364.616 257.299 365.12 257.923 365.792C258.547 366.464 258.859 367.448 258.859 368.744C258.883 370.376 258.247 371.732 256.951 372.812C255.679 373.892 253.939 374.432 251.731 374.432ZM264.537 374.216C263.817 374.216 263.217 373.988 262.737 373.532C262.281 373.052 262.053 372.488 262.053 371.84C262.053 371.168 262.281 370.604 262.737 370.148C263.217 369.668 263.817 369.428 264.537 369.428C265.257 369.428 265.845 369.668 266.301 370.148C266.757 370.604 266.985 371.168 266.985 371.84C266.985 372.488 266.757 373.052 266.301 373.532C265.845 373.988 265.257 374.216 264.537 374.216Z" fill="black"/>
<path d="M156.116 327.432C154.604 327.432 153.356 327.18 152.372 326.676C151.388 326.172 150.656 325.512 150.176 324.696C149.696 323.856 149.456 322.944 149.456 321.96C149.456 320.232 150.128 318.864 151.472 317.856C152.816 316.848 154.736 316.344 157.232 316.344H161.912V316.02C161.912 314.628 161.528 313.584 160.76 312.888C160.016 312.192 159.044 311.844 157.844 311.844C156.788 311.844 155.864 312.108 155.072 312.636C154.304 313.14 153.836 313.896 153.668 314.904H149.852C149.972 313.608 150.404 312.504 151.148 311.592C151.916 310.656 152.876 309.948 154.028 309.468C155.204 308.964 156.488 308.712 157.88 308.712C160.376 308.712 162.308 309.372 163.676 310.692C165.044 311.988 165.728 313.764 165.728 316.02V327H162.416L162.092 323.94C161.588 324.924 160.856 325.752 159.896 326.424C158.936 327.096 157.676 327.432 156.116 327.432ZM156.872 324.336C157.904 324.336 158.768 324.096 159.464 323.616C160.184 323.112 160.736 322.452 161.12 321.636C161.528 320.82 161.78 319.92 161.876 318.936H157.628C156.116 318.936 155.036 319.2 154.388 319.728C153.764 320.256 153.452 320.916 153.452 321.708C153.452 322.524 153.752 323.172 154.352 323.652C154.976 324.108 155.816 324.336 156.872 324.336ZM178.638 327.432C176.886 327.432 175.314 327.036 173.922 326.244C172.554 325.452 171.474 324.36 170.682 322.968C169.914 321.552 169.53 319.92 169.53 318.072C169.53 316.224 169.914 314.604 170.682 313.212C171.474 311.796 172.554 310.692 173.922 309.9C175.314 309.108 176.886 308.712 178.638 308.712C180.846 308.712 182.694 309.288 184.182 310.44C185.694 311.592 186.666 313.152 187.098 315.12H183.102C182.862 314.136 182.334 313.368 181.518 312.816C180.702 312.264 179.742 311.988 178.638 311.988C177.702 311.988 176.838 312.228 176.046 312.708C175.254 313.164 174.618 313.848 174.138 314.76C173.658 315.648 173.418 316.752 173.418 318.072C173.418 319.392 173.658 320.508 174.138 321.42C174.618 322.308 175.254 322.992 176.046 323.472C176.838 323.952 177.702 324.192 178.638 324.192C179.742 324.192 180.702 323.916 181.518 323.364C182.334 322.812 182.862 322.032 183.102 321.024H187.098C186.69 322.944 185.73 324.492 184.218 325.668C182.706 326.844 180.846 327.432 178.638 327.432ZM198.373 327C196.621 327 195.229 326.58 194.197 325.74C193.165 324.876 192.649 323.352 192.649 321.168V312.348H189.589V309.144H192.649L193.117 304.608H196.465V309.144H201.505V312.348H196.465V321.168C196.465 322.152 196.669 322.836 197.077 323.22C197.509 323.58 198.241 323.76 199.273 323.76H201.325V327H198.373ZM207.599 305.76C206.879 305.76 206.279 305.544 205.799 305.112C205.343 304.656 205.115 304.092 205.115 303.42C205.115 302.748 205.343 302.196 205.799 301.764C206.279 301.308 206.879 301.08 207.599 301.08C208.319 301.08 208.907 301.308 209.363 301.764C209.843 302.196 210.083 302.748 210.083 303.42C210.083 304.092 209.843 304.656 209.363 305.112C208.907 305.544 208.319 305.76 207.599 305.76ZM205.691 327V309.144H209.507V327H205.691ZM222.897 327.432C221.193 327.432 219.657 327.048 218.289 326.28C216.945 325.488 215.877 324.396 215.085 323.004C214.293 321.588 213.897 319.944 213.897 318.072C213.897 316.2 214.293 314.568 215.085 313.176C215.901 311.76 216.993 310.668 218.361 309.9C219.729 309.108 221.253 308.712 222.933 308.712C224.637 308.712 226.161 309.108 227.505 309.9C228.873 310.668 229.953 311.76 230.745 313.176C231.561 314.568 231.969 316.2 231.969 318.072C231.969 319.944 231.561 321.588 230.745 323.004C229.953 324.396 228.873 325.488 227.505 326.28C226.137 327.048 224.601 327.432 222.897 327.432ZM222.897 324.156C223.809 324.156 224.649 323.928 225.417 323.472C226.209 323.016 226.845 322.344 227.325 321.456C227.805 320.544 228.045 319.416 228.045 318.072C228.045 316.728 227.805 315.612 227.325 314.724C226.869 313.812 226.245 313.128 225.453 312.672C224.685 312.216 223.845 311.988 222.933 311.988C222.021 311.988 221.169 312.216 220.377 312.672C219.609 313.128 218.985 313.812 218.505 314.724C218.025 315.612 217.785 316.728 217.785 318.072C217.785 319.416 218.025 320.544 218.505 321.456C218.985 322.344 219.609 323.016 220.377 323.472C221.145 323.928 221.985 324.156 222.897 324.156ZM236.096 327V309.144H239.48L239.768 312.276C240.32 311.172 241.124 310.308 242.18 309.684C243.26 309.036 244.496 308.712 245.888 308.712C248.048 308.712 249.74 309.384 250.964 310.728C252.212 312.072 252.836 314.076 252.836 316.74V327H249.056V317.136C249.056 313.68 247.64 311.952 244.808 311.952C243.392 311.952 242.216 312.456 241.28 313.464C240.368 314.472 239.912 315.912 239.912 317.784V327H236.096ZM263.378 327.432C261.866 327.432 260.618 327.18 259.634 326.676C258.65 326.172 257.918 325.512 257.438 324.696C256.958 323.856 256.718 322.944 256.718 321.96C256.718 320.232 257.39 318.864 258.734 317.856C260.078 316.848 261.998 316.344 264.494 316.344H269.174V316.02C269.174 314.628 268.79 313.584 268.022 312.888C267.278 312.192 266.306 311.844 265.106 311.844C264.05 311.844 263.126 312.108 262.334 312.636C261.566 313.14 261.098 313.896 260.93 314.904H257.114C257.234 313.608 257.666 312.504 258.41 311.592C259.178 310.656 260.138 309.948 261.29 309.468C262.466 308.964 263.75 308.712 265.142 308.712C267.638 308.712 269.57 309.372 270.938 310.692C272.306 311.988 272.99 313.764 272.99 316.02V327H269.678L269.354 323.94C268.85 324.924 268.118 325.752 267.158 326.424C266.198 327.096 264.938 327.432 263.378 327.432ZM264.134 324.336C265.166 324.336 266.03 324.096 266.726 323.616C267.446 323.112 267.998 322.452 268.382 321.636C268.79 320.82 269.042 319.92 269.138 318.936H264.89C263.378 318.936 262.298 319.2 261.65 319.728C261.026 320.256 260.714 320.916 260.714 321.708C260.714 322.524 261.014 323.172 261.614 323.652C262.238 324.108 263.078 324.336 264.134 324.336ZM287.483 327.432C286.091 327.432 284.855 327.156 283.775 326.604C282.719 326.052 281.879 325.272 281.255 324.264L280.859 327H277.439V301.08H281.255V311.916C281.831 311.076 282.623 310.332 283.631 309.684C284.639 309.036 285.935 308.712 287.519 308.712C289.247 308.712 290.771 309.12 292.091 309.936C293.411 310.752 294.443 311.868 295.187 313.284C295.955 314.7 296.339 316.308 296.339 318.108C296.339 319.908 295.955 321.516 295.187 322.932C294.443 324.324 293.411 325.428 292.091 326.244C290.771 327.036 289.235 327.432 287.483 327.432ZM286.835 324.12C288.467 324.12 289.811 323.568 290.867 322.464C291.923 321.336 292.451 319.872 292.451 318.072C292.451 316.896 292.211 315.852 291.731 314.94C291.251 314.028 290.591 313.32 289.751 312.816C288.911 312.288 287.939 312.024 286.835 312.024C285.203 312.024 283.859 312.588 282.803 313.716C281.771 314.844 281.255 316.296 281.255 318.072C281.255 319.872 281.771 321.336 282.803 322.464C283.859 323.568 285.203 324.12 286.835 324.12ZM300.467 327V301.08H304.283V327H300.467ZM317.467 327.432C315.715 327.432 314.155 327.048 312.787 326.28C311.443 325.488 310.387 324.396 309.619 323.004C308.851 321.612 308.467 319.992 308.467 318.144C308.467 316.272 308.839 314.628 309.583 313.212C310.351 311.796 311.407 310.692 312.751 309.9C314.119 309.108 315.703 308.712 317.503 308.712C319.255 308.712 320.779 309.108 322.075 309.9C323.371 310.668 324.379 311.7 325.099 312.996C325.819 314.292 326.179 315.72 326.179 317.28C326.179 317.52 326.167 317.784 326.143 318.072C326.143 318.336 326.131 318.636 326.107 318.972H312.211C312.331 320.7 312.895 322.02 313.903 322.932C314.935 323.82 316.123 324.264 317.467 324.264C318.547 324.264 319.447 324.024 320.167 323.544C320.911 323.04 321.463 322.368 321.823 321.528H325.639C325.159 323.208 324.199 324.612 322.759 325.74C321.343 326.868 319.579 327.432 317.467 327.432ZM317.467 311.844C316.195 311.844 315.067 312.228 314.083 312.996C313.099 313.74 312.499 314.868 312.283 316.38H322.363C322.291 314.988 321.799 313.884 320.887 313.068C319.975 312.252 318.835 311.844 317.467 311.844Z" fill="#7FBDFF"/>
<rect x="75" y="29" width="200" height="200" rx="100" fill="#56CCF2"/>
<rect x="165.5" y="176.5" width="99" height="19" rx="9.5" fill="#D8D8D8" stroke="#979797"/>
<mask id="mask0" mask-type="alpha" maskUnits="userSpaceOnUse" x="165" y="176" width="100" height="20">
<rect x="165.5" y="176.5" width="99" height="19" rx="9.5" fill="white" stroke="white"/>
</mask>
<g mask="url(#mask0)">
<rect x="165" y="176" width="100" height="20" fill="#FBBC05"/>
<path fill-rule="evenodd" clip-rule="evenodd" d="M254.777 185.949L257.683 183.043C257.878 182.848 257.878 182.532 257.683 182.336C257.488 182.141 257.171 182.141 256.976 182.336L254.07 185.242L251.164 182.336C250.969 182.141 250.652 182.141 250.457 182.336C250.262 182.532 250.262 182.848 250.457 183.043L253.363 185.949L250.457 188.855C250.262 189.051 250.262 189.367 250.457 189.562C250.652 189.758 250.969 189.758 251.164 189.562L254.07 186.656L256.976 189.562C257.171 189.758 257.488 189.758 257.683 189.562C257.878 189.367 257.878 189.051 257.683 188.855L254.777 185.949Z" fill="white"/>
<path d="M257.683 183.043L257.329 182.69V182.69L257.683 183.043ZM254.777 185.949L254.423 185.596L254.07 185.949L254.423 186.303L254.777 185.949ZM257.683 182.336L257.329 182.69L257.329 182.69L257.683 182.336ZM256.976 182.336L257.329 182.69V182.69L256.976 182.336ZM254.07 185.242L253.716 185.596L254.07 185.949L254.423 185.596L254.07 185.242ZM251.164 182.336L251.518 181.983V181.983L251.164 182.336ZM250.457 182.336L250.103 181.983L250.103 181.983L250.457 182.336ZM250.457 183.043L250.103 183.397H250.103L250.457 183.043ZM253.363 185.949L253.716 186.303L254.07 185.949L253.716 185.596L253.363 185.949ZM250.457 188.855L250.103 188.502H250.103L250.457 188.855ZM250.457 189.562L250.103 189.916L250.457 189.562ZM251.164 189.562L251.518 189.916L251.518 189.916L251.164 189.562ZM254.07 186.656L254.423 186.303L254.07 185.949L253.716 186.303L254.07 186.656ZM256.976 189.562L257.329 189.209L256.976 189.562ZM257.683 189.562L258.036 189.916L258.036 189.916L257.683 189.562ZM257.683 188.855L258.036 188.502L258.036 188.502L257.683 188.855ZM257.329 182.69L254.423 185.596L255.131 186.303L258.036 183.397L257.329 182.69ZM257.329 182.69V182.69L258.036 183.397C258.427 183.007 258.427 182.373 258.036 181.983L257.329 182.69ZM257.329 182.69H257.329L258.036 181.983C257.646 181.592 257.013 181.592 256.622 181.983L257.329 182.69ZM254.423 185.596L257.329 182.69L256.622 181.983L253.716 184.889L254.423 185.596ZM254.423 184.889L251.518 181.983L250.81 182.69L253.716 185.596L254.423 184.889ZM251.518 181.983C251.127 181.592 250.494 181.592 250.103 181.983L250.81 182.69H250.81L251.518 181.983ZM250.103 181.983C249.713 182.373 249.713 183.007 250.103 183.397L250.81 182.69V182.69L250.103 181.983ZM250.103 183.397L253.009 186.303L253.716 185.596L250.81 182.69L250.103 183.397ZM250.81 189.209L253.716 186.303L253.009 185.596L250.103 188.502L250.81 189.209ZM250.81 189.209L250.81 189.209L250.103 188.502C249.713 188.892 249.713 189.525 250.103 189.916L250.81 189.209ZM250.81 189.209H250.81L250.103 189.916C250.494 190.306 251.127 190.306 251.518 189.916L250.81 189.209ZM253.716 186.303L250.81 189.209L251.518 189.916L254.423 187.01L253.716 186.303ZM253.716 187.01L256.622 189.916L257.329 189.209L254.423 186.303L253.716 187.01ZM256.622 189.916C257.013 190.306 257.646 190.306 258.036 189.916L257.329 189.209V189.209L256.622 189.916ZM258.036 189.916C258.427 189.525 258.427 188.892 258.036 188.502L257.329 189.209V189.209L258.036 189.916ZM258.036 188.502L255.131 185.596L254.423 186.303L257.329 189.209L258.036 188.502Z" fill="white"/>
<mask id="mask1" mask-type="alpha" maskUnits="userSpaceOnUse" x="249" y="181" width="10" height="10">
<path fill-rule="evenodd" clip-rule="evenodd" d="M254.777 185.949L257.683 183.043C257.878 182.848 257.878 182.532 257.683 182.336C257.488 182.141 257.171 182.141 256.976 182.336L254.07 185.242L251.164 182.336C250.969 182.141 250.652 182.141 250.457 182.336C250.262 182.532 250.262 182.848 250.457 183.043L253.363 185.949L250.457 188.855C250.262 189.051 250.262 189.367 250.457 189.562C250.652 189.758 250.969 189.758 251.164 189.562L254.07 186.656L256.976 189.562C257.171 189.758 257.488 189.758 257.683 189.562C257.878 189.367 257.878 189.051 257.683 188.855L254.777 185.949Z" fill="white"/>
<path d="M257.683 183.043L257.329 182.69V182.69L257.683 183.043ZM254.777 185.949L254.423 185.596L254.07 185.949L254.423 186.303L254.777 185.949ZM257.683 182.336L257.329 182.69L257.329 182.69L257.683 182.336ZM256.976 182.336L257.329 182.69V182.69L256.976 182.336ZM254.07 185.242L253.716 185.596L254.07 185.949L254.423 185.596L254.07 185.242ZM251.164 182.336L251.518 181.983V181.983L251.164 182.336ZM250.457 182.336L250.103 181.983L250.103 181.983L250.457 182.336ZM250.457 183.043L250.103 183.397H250.103L250.457 183.043ZM253.363 185.949L253.716 186.303L254.07 185.949L253.716 185.596L253.363 185.949ZM250.457 188.855L250.103 188.502H250.103L250.457 188.855ZM250.457 189.562L250.103 189.916L250.457 189.562ZM251.164 189.562L251.518 189.916L251.518 189.916L251.164 189.562ZM254.07 186.656L254.423 186.303L254.07 185.949L253.716 186.303L254.07 186.656ZM256.976 189.562L257.329 189.209L256.976 189.562ZM257.683 189.562L258.036 189.916L258.036 189.916L257.683 189.562ZM257.683 188.855L258.036 188.502L258.036 188.502L257.683 188.855ZM257.329 182.69L254.423 185.596L255.131 186.303L258.036 183.397L257.329 182.69ZM257.329 182.69V182.69L258.036 183.397C258.427 183.007 258.427 182.373 258.036 181.983L257.329 182.69ZM257.329 182.69H257.329L258.036 181.983C257.646 181.592 257.013 181.592 256.622 181.983L257.329 182.69ZM254.423 185.596L257.329 182.69L256.622 181.983L253.716 184.889L254.423 185.596ZM254.423 184.889L251.518 181.983L250.81 182.69L253.716 185.596L254.423 184.889ZM251.518 181.983C251.127 181.592 250.494 181.592 250.103 181.983L250.81 182.69H250.81L251.518 181.983ZM250.103 181.983C249.713 182.373 249.713 183.007 250.103 183.397L250.81 182.69V182.69L250.103 181.983ZM250.103 183.397L253.009 186.303L253.716 185.596L250.81 182.69L250.103 183.397ZM250.81 189.209L253.716 186.303L253.009 185.596L250.103 188.502L250.81 189.209ZM250.81 189.209L250.81 189.209L250.103 188.502C249.713 188.892 249.713 189.525 250.103 189.916L250.81 189.209ZM250.81 189.209H250.81L250.103 189.916C250.494 190.306 251.127 190.306 251.518 189.916L250.81 189.209ZM253.716 186.303L250.81 189.209L251.518 189.916L254.423 187.01L253.716 186.303ZM253.716 187.01L256.622 189.916L257.329 189.209L254.423 186.303L253.716 187.01ZM256.622 189.916C257.013 190.306 257.646 190.306 258.036 189.916L257.329 189.209V189.209L256.622 189.916ZM258.036 189.916C258.427 189.525 258.427 188.892 258.036 188.502L257.329 189.209V189.209L258.036 189.916ZM258.036 188.502L255.131 185.596L254.423 186.303L257.329 189.209L258.036 188.502Z" fill="white"/>
</mask>
<g mask="url(#mask1)">
<rect x="249" y="181" width="10" height="10" fill="white"/>
</g>
</g>
<g filter="url(#filter0_d)">
<rect x="50" y="79" width="250" height="100" fill="white"/>
</g>
<path fill-rule="evenodd" clip-rule="evenodd" d="M275 118.5C279.142 118.5 282.5 115.142 282.5 111C282.5 106.858 279.142 103.5 275 103.5C270.858 103.5 267.5 106.858 267.5 111C267.5 115.142 270.858 118.5 275 118.5Z" stroke="#5A5A5A" stroke-width="1.5"/>
<path d="M269.446 111.188H279.078" stroke="#5A5A5A" stroke-width="1.5" stroke-linecap="round"/>
<path d="M276.522 108.194L280.019 111.305" stroke="#5A5A5A" stroke-width="1.5" stroke-linecap="round"/>
<path d="M276.522 114.417L280.019 111.305" stroke="#5A5A5A" stroke-width="1.5" stroke-linecap="round"/>
<g opacity="0.25">
<path fill-rule="evenodd" clip-rule="evenodd" d="M73.5846 142.486L73.5846 138.376C73.5846 138.1 73.3607 137.876 73.0846 137.876C72.8084 137.876 72.5846 138.1 72.5846 138.376L72.5846 142.486L68.4751 142.486C68.1989 142.486 67.9751 142.71 67.9751 142.986C67.9751 143.262 68.1989 143.486 68.4751 143.486L72.5846 143.486L72.5846 147.595C72.5846 147.872 72.8084 148.095 73.0846 148.095C73.3607 148.095 73.5846 147.872 73.5846 147.595L73.5846 143.486H77.6941C77.9703 143.486 78.1941 143.262 78.1941 142.986C78.1941 142.71 77.9703 142.486 77.6941 142.486H73.5846Z" fill="white"/>
<path d="M73.5846 138.376L73.0846 138.376L73.0846 138.376L73.5846 138.376ZM73.5846 142.486H73.0846L73.0846 142.986L73.5846 142.986V142.486ZM73.0846 137.876L73.0846 138.376L73.0846 138.376L73.0846 137.876ZM72.5846 138.376L73.0846 138.376L73.0846 138.376L72.5846 138.376ZM72.5846 142.486L72.5846 142.986H73.0846L73.0846 142.486H72.5846ZM68.4751 142.486L68.4751 141.986L68.4751 141.986V142.486ZM67.9751 142.986L67.4751 142.986V142.986L67.9751 142.986ZM68.4751 143.486V143.986L68.4751 143.986L68.4751 143.486ZM72.5846 143.486H73.0846V142.986H72.5846V143.486ZM72.5846 147.595L73.0846 147.595L73.0846 147.595L72.5846 147.595ZM73.0846 148.095L73.0846 148.595L73.0846 148.595L73.0846 148.095ZM73.5846 147.595L74.0846 147.595L74.0846 147.595L73.5846 147.595ZM73.5846 143.486V142.986H73.0846L73.0846 143.486L73.5846 143.486ZM77.6941 143.486V142.986V143.486ZM78.1941 142.986L78.6941 142.986V142.986L78.1941 142.986ZM77.6941 142.486V141.986V142.486ZM73.0846 138.376L73.0846 142.486H74.0846L74.0846 138.376L73.0846 138.376ZM73.0846 138.376L73.0846 138.376L74.0846 138.376C74.0846 137.824 73.6369 137.376 73.0846 137.376L73.0846 138.376ZM73.0846 138.376L73.0846 138.376L73.0846 137.376C72.5323 137.376 72.0846 137.824 72.0846 138.376L73.0846 138.376ZM73.0846 142.486L73.0846 138.376L72.0846 138.376L72.0846 142.486L73.0846 142.486ZM72.5846 141.986L68.4751 141.986L68.4751 142.986L72.5846 142.986L72.5846 141.986ZM68.4751 141.986C67.9228 141.986 67.4751 142.434 67.4751 142.986L68.4751 142.986L68.4751 142.986L68.4751 141.986ZM67.4751 142.986C67.4751 143.538 67.9228 143.986 68.4751 143.986L68.4751 142.986L68.4751 142.986L67.4751 142.986ZM68.4751 143.986L72.5846 143.986L72.5846 142.986L68.4751 142.986L68.4751 143.986ZM73.0846 147.595L73.0846 143.486L72.0846 143.486L72.0846 147.595L73.0846 147.595ZM73.0846 147.595L73.0846 147.595L72.0846 147.595C72.0846 148.148 72.5323 148.595 73.0846 148.595L73.0846 147.595ZM73.0846 147.595L73.0846 147.595L73.0846 148.595C73.6369 148.595 74.0846 148.148 74.0846 147.595L73.0846 147.595ZM73.0846 143.486L73.0846 147.595L74.0846 147.595L74.0846 143.486L73.0846 143.486ZM73.5846 143.986L77.6941 143.986V142.986H73.5846L73.5846 143.986ZM77.6941 143.986C78.2464 143.986 78.6941 143.538 78.6941 142.986L77.6941 142.986V142.986V143.986ZM78.6941 142.986C78.6941 142.434 78.2464 141.986 77.6941 141.986V142.986V142.986L78.6941 142.986ZM77.6941 141.986H73.5846V142.986H77.6941V141.986Z" fill="white"/>
<mask id="mask2" mask-type="alpha" maskUnits="userSpaceOnUse" x="67" y="137" width="12" height="12">
<path fill-rule="evenodd" clip-rule="evenodd" d="M73.5846 142.486L73.5846 138.376C73.5846 138.1 73.3607 137.876 73.0846 137.876C72.8084 137.876 72.5846 138.1 72.5846 138.376L72.5846 142.486L68.4751 142.486C68.1989 142.486 67.9751 142.71 67.9751 142.986C67.9751 143.262 68.1989 143.486 68.4751 143.486L72.5846 143.486L72.5846 147.595C72.5846 147.872 72.8084 148.095 73.0846 148.095C73.3607 148.095 73.5846 147.872 73.5846 147.595L73.5846 143.486H77.6941C77.9703 143.486 78.1941 143.262 78.1941 142.986C78.1941 142.71 77.9703 142.486 77.6941 142.486H73.5846Z" fill="white"/>
<path d="M73.5846 138.376L73.4346 138.376L73.4346 138.376L73.5846 138.376ZM73.5846 142.486L73.4346 142.486L73.4346 142.636L73.5846 142.636L73.5846 142.486ZM73.0846 137.876L73.0846 138.026L73.0846 138.026L73.0846 137.876ZM72.5846 138.376L72.7346 138.376L72.7346 138.376L72.5846 138.376ZM72.5846 142.486L72.5846 142.636L72.7346 142.636V142.486H72.5846ZM68.4751 142.486L68.4751 142.336L68.4751 142.336L68.4751 142.486ZM67.9751 142.986H67.8251L67.8251 142.986L67.9751 142.986ZM68.4751 143.486L68.4751 143.636L68.4751 143.636L68.4751 143.486ZM72.5846 143.486H72.7346V143.336H72.5846V143.486ZM72.5846 147.595L72.7346 147.595L72.7346 147.595L72.5846 147.595ZM73.0846 148.095L73.0846 148.245L73.0846 148.245L73.0846 148.095ZM73.5846 147.595L73.7346 147.595L73.7346 147.595L73.5846 147.595ZM73.5846 143.486L73.5846 143.336L73.4346 143.336L73.4346 143.486H73.5846ZM77.6941 143.486L77.6941 143.336L77.6941 143.486ZM78.1941 142.986L78.3441 142.986V142.986L78.1941 142.986ZM77.6941 142.486L77.6941 142.336L77.6941 142.486ZM73.4346 138.376L73.4346 142.486H73.7346L73.7346 138.376L73.4346 138.376ZM73.0846 138.026C73.2779 138.026 73.4346 138.183 73.4346 138.376L73.7346 138.376C73.7346 138.017 73.4436 137.726 73.0846 137.726L73.0846 138.026ZM72.7346 138.376C72.7346 138.183 72.8913 138.026 73.0846 138.026L73.0846 137.726C72.7256 137.726 72.4346 138.017 72.4346 138.376L72.7346 138.376ZM72.7346 142.486L72.7346 138.376L72.4346 138.376L72.4346 142.486L72.7346 142.486ZM72.5846 142.336L68.4751 142.336L68.4751 142.636L72.5846 142.636L72.5846 142.336ZM68.4751 142.336C68.1161 142.336 67.8251 142.627 67.8251 142.986L68.1251 142.986C68.1251 142.793 68.2818 142.636 68.4751 142.636L68.4751 142.336ZM67.8251 142.986C67.8251 143.345 68.1161 143.636 68.4751 143.636L68.4751 143.336C68.2818 143.336 68.1251 143.179 68.1251 142.986L67.8251 142.986ZM68.4751 143.636L72.5846 143.636L72.5846 143.336L68.4751 143.336L68.4751 143.636ZM72.7346 147.595L72.7346 143.486L72.4346 143.486L72.4346 147.595L72.7346 147.595ZM73.0846 147.945C72.8913 147.945 72.7346 147.789 72.7346 147.595L72.4346 147.595C72.4346 147.954 72.7256 148.245 73.0846 148.245L73.0846 147.945ZM73.4346 147.595C73.4346 147.789 73.2779 147.945 73.0846 147.945L73.0846 148.245C73.4436 148.245 73.7346 147.954 73.7346 147.595L73.4346 147.595ZM73.4346 143.486L73.4346 147.595L73.7346 147.595L73.7346 143.486L73.4346 143.486ZM73.5846 143.636H77.6941L77.6941 143.336L73.5846 143.336L73.5846 143.636ZM77.6941 143.636C78.0531 143.636 78.3441 143.345 78.3441 142.986L78.0441 142.986C78.0441 143.179 77.8874 143.336 77.6941 143.336L77.6941 143.636ZM78.3441 142.986C78.3441 142.627 78.0531 142.336 77.6941 142.336L77.6941 142.636C77.8874 142.636 78.0441 142.793 78.0441 142.986L78.3441 142.986ZM77.6941 142.336L73.5846 142.336V142.636L77.6941 142.636L77.6941 142.336Z" fill="white"/>
</mask>
<g mask="url(#mask2)">
<rect x="66" y="143.071" width="10" height="10" transform="rotate(-45 66 143.071)" fill="#5A5A5A"/>
</g>
</g>
<rect x="79.5" y="65.5" width="99" height="19" rx="9.5" fill="#D8D8D8" stroke="#979797"/>
<mask id="mask3" mask-type="alpha" maskUnits="userSpaceOnUse" x="79" y="65" width="100" height="20">
<rect x="79.5" y="65.5" width="99" height="19" rx="9.5" fill="white" stroke="white"/>
</mask>
<g mask="url(#mask3)">
<rect x="79" y="65" width="100" height="20" fill="#5F53FF"/>
<path fill-rule="evenodd" clip-rule="evenodd" d="M168.777 74.9494L171.683 72.0435C171.878 71.8482 171.878 71.5317 171.683 71.3364C171.488 71.1411 171.171 71.1411 170.976 71.3364L168.07 74.2423L165.164 71.3364C164.969 71.1411 164.652 71.1411 164.457 71.3364C164.262 71.5317 164.262 71.8482 164.457 72.0435L167.363 74.9494L164.457 77.8552C164.262 78.0505 164.262 78.3671 164.457 78.5623C164.652 78.7576 164.969 78.7576 165.164 78.5623L168.07 75.6565L170.976 78.5623C171.171 78.7576 171.488 78.7576 171.683 78.5623C171.878 78.3671 171.878 78.0505 171.683 77.8552L168.777 74.9494Z" fill="white"/>
<path d="M171.683 72.0435L171.329 71.6899V71.6899L171.683 72.0435ZM168.777 74.9494L168.423 74.5958L168.07 74.9494L168.423 75.3029L168.777 74.9494ZM171.683 71.3364L171.329 71.6899L171.329 71.6899L171.683 71.3364ZM170.976 71.3364L171.329 71.6899V71.6899L170.976 71.3364ZM168.07 74.2423L167.716 74.5958L168.07 74.9494L168.423 74.5958L168.07 74.2423ZM165.164 71.3364L165.518 70.9828V70.9828L165.164 71.3364ZM164.457 71.3364L164.103 70.9828L164.103 70.9828L164.457 71.3364ZM164.457 72.0435L164.103 72.397H164.103L164.457 72.0435ZM167.363 74.9494L167.716 75.3029L168.07 74.9494L167.716 74.5958L167.363 74.9494ZM164.457 77.8552L164.103 77.5017H164.103L164.457 77.8552ZM164.457 78.5623L164.103 78.9159L164.457 78.5623ZM165.164 78.5623L165.518 78.9159L165.518 78.9159L165.164 78.5623ZM168.07 75.6565L168.423 75.3029L168.07 74.9494L167.716 75.3029L168.07 75.6565ZM170.976 78.5623L171.329 78.2088L170.976 78.5623ZM171.683 78.5623L172.036 78.9159L172.036 78.9159L171.683 78.5623ZM171.683 77.8552L172.036 77.5017L172.036 77.5017L171.683 77.8552ZM171.329 71.6899L168.423 74.5958L169.131 75.3029L172.036 72.397L171.329 71.6899ZM171.329 71.6899V71.6899L172.036 72.397C172.427 72.0065 172.427 71.3734 172.036 70.9828L171.329 71.6899ZM171.329 71.6899H171.329L172.036 70.9828C171.646 70.5923 171.013 70.5923 170.622 70.9828L171.329 71.6899ZM168.423 74.5958L171.329 71.6899L170.622 70.9828L167.716 73.8887L168.423 74.5958ZM168.423 73.8887L165.518 70.9828L164.81 71.6899L167.716 74.5958L168.423 73.8887ZM165.518 70.9828C165.127 70.5923 164.494 70.5923 164.103 70.9828L164.81 71.6899H164.81L165.518 70.9828ZM164.103 70.9828C163.713 71.3734 163.713 72.0065 164.103 72.397L164.81 71.6899V71.6899L164.103 70.9828ZM164.103 72.397L167.009 75.3029L167.716 74.5958L164.81 71.6899L164.103 72.397ZM164.81 78.2088L167.716 75.3029L167.009 74.5958L164.103 77.5017L164.81 78.2088ZM164.81 78.2088L164.81 78.2088L164.103 77.5017C163.713 77.8922 163.713 78.5254 164.103 78.9159L164.81 78.2088ZM164.81 78.2088H164.81L164.103 78.9159C164.494 79.3064 165.127 79.3064 165.518 78.9159L164.81 78.2088ZM167.716 75.3029L164.81 78.2088L165.518 78.9159L168.423 76.01L167.716 75.3029ZM167.716 76.01L170.622 78.9159L171.329 78.2088L168.423 75.3029L167.716 76.01ZM170.622 78.9159C171.013 79.3064 171.646 79.3064 172.036 78.9159L171.329 78.2088V78.2088L170.622 78.9159ZM172.036 78.9159C172.427 78.5254 172.427 77.8922 172.036 77.5017L171.329 78.2088V78.2088L172.036 78.9159ZM172.036 77.5017L169.131 74.5958L168.423 75.3029L171.329 78.2088L172.036 77.5017Z" fill="white"/>
<mask id="mask4" mask-type="alpha" maskUnits="userSpaceOnUse" x="163" y="70" width="10" height="10">
<path fill-rule="evenodd" clip-rule="evenodd" d="M168.777 74.9494L171.683 72.0435C171.878 71.8482 171.878 71.5317 171.683 71.3364C171.488 71.1411 171.171 71.1411 170.976 71.3364L168.07 74.2423L165.164 71.3364C164.969 71.1411 164.652 71.1411 164.457 71.3364C164.262 71.5317 164.262 71.8482 164.457 72.0435L167.363 74.9494L164.457 77.8552C164.262 78.0505 164.262 78.3671 164.457 78.5623C164.652 78.7576 164.969 78.7576 165.164 78.5623L168.07 75.6565L170.976 78.5623C171.171 78.7576 171.488 78.7576 171.683 78.5623C171.878 78.3671 171.878 78.0505 171.683 77.8552L168.777 74.9494Z" fill="white"/>
<path d="M171.683 72.0435L171.329 71.6899V71.6899L171.683 72.0435ZM168.777 74.9494L168.423 74.5958L168.07 74.9494L168.423 75.3029L168.777 74.9494ZM171.683 71.3364L171.329 71.6899L171.329 71.6899L171.683 71.3364ZM170.976 71.3364L171.329 71.6899V71.6899L170.976 71.3364ZM168.07 74.2423L167.716 74.5958L168.07 74.9494L168.423 74.5958L168.07 74.2423ZM165.164 71.3364L165.518 70.9828V70.9828L165.164 71.3364ZM164.457 71.3364L164.103 70.9828L164.103 70.9828L164.457 71.3364ZM164.457 72.0435L164.103 72.397H164.103L164.457 72.0435ZM167.363 74.9494L167.716 75.3029L168.07 74.9494L167.716 74.5958L167.363 74.9494ZM164.457 77.8552L164.103 77.5017H164.103L164.457 77.8552ZM164.457 78.5623L164.103 78.9159L164.457 78.5623ZM165.164 78.5623L165.518 78.9159L165.518 78.9159L165.164 78.5623ZM168.07 75.6565L168.423 75.3029L168.07 74.9494L167.716 75.3029L168.07 75.6565ZM170.976 78.5623L171.329 78.2088L170.976 78.5623ZM171.683 78.5623L172.036 78.9159L172.036 78.9159L171.683 78.5623ZM171.683 77.8552L172.036 77.5017L172.036 77.5017L171.683 77.8552ZM171.329 71.6899L168.423 74.5958L169.131 75.3029L172.036 72.397L171.329 71.6899ZM171.329 71.6899V71.6899L172.036 72.397C172.427 72.0065 172.427 71.3734 172.036 70.9828L171.329 71.6899ZM171.329 71.6899H171.329L172.036 70.9828C171.646 70.5923 171.013 70.5923 170.622 70.9828L171.329 71.6899ZM168.423 74.5958L171.329 71.6899L170.622 70.9828L167.716 73.8887L168.423 74.5958ZM168.423 73.8887L165.518 70.9828L164.81 71.6899L167.716 74.5958L168.423 73.8887ZM165.518 70.9828C165.127 70.5923 164.494 70.5923 164.103 70.9828L164.81 71.6899H164.81L165.518 70.9828ZM164.103 70.9828C163.713 71.3734 163.713 72.0065 164.103 72.397L164.81 71.6899V71.6899L164.103 70.9828ZM164.103 72.397L167.009 75.3029L167.716 74.5958L164.81 71.6899L164.103 72.397ZM164.81 78.2088L167.716 75.3029L167.009 74.5958L164.103 77.5017L164.81 78.2088ZM164.81 78.2088L164.81 78.2088L164.103 77.5017C163.713 77.8922 163.713 78.5254 164.103 78.9159L164.81 78.2088ZM164.81 78.2088H164.81L164.103 78.9159C164.494 79.3064 165.127 79.3064 165.518 78.9159L164.81 78.2088ZM167.716 75.3029L164.81 78.2088L165.518 78.9159L168.423 76.01L167.716 75.3029ZM167.716 76.01L170.622 78.9159L171.329 78.2088L168.423 75.3029L167.716 76.01ZM170.622 78.9159C171.013 79.3064 171.646 79.3064 172.036 78.9159L171.329 78.2088V78.2088L170.622 78.9159ZM172.036 78.9159C172.427 78.5254 172.427 77.8922 172.036 77.5017L171.329 78.2088V78.2088L172.036 78.9159ZM172.036 77.5017L169.131 74.5958L168.423 75.3029L171.329 78.2088L172.036 77.5017Z" fill="white"/>
</mask>
<g mask="url(#mask4)">
<rect x="163" y="70" width="10" height="10" fill="white"/>
</g>
</g>
<line x1="63.5" y1="122.5" x2="252.5" y2="122.5" stroke="#5A5A5A" stroke-linecap="round"/>
<line opacity="0.3" x1="83.5" y1="152.5" x2="252.5" y2="152.5" stroke="#5A5A5A" stroke-linecap="round"/>
<defs>
<filter id="filter0_d" x="30" y="59" width="290" height="140" filterUnits="userSpaceOnUse" color-interpolation-filters="sRGB">
<feFlood flood-opacity="0" result="BackgroundImageFix"/>
<feColorMatrix in="SourceAlpha" type="matrix" values="0 0 0 0 0 0 0 0 0 0 0 0 0 0 0 0 0 0 127 0"/>
<feOffset/>
<feGaussianBlur stdDeviation="10"/>
<feColorMatrix type="matrix" values="0 0 0 0 0 0 0 0 0 0 0 0 0 0 0 0 0 0 0.15 0"/>
<feBlend mode="normal" in2="BackgroundImageFix" result="effect1_dropShadow"/>
<feBlend mode="normal" in="SourceGraphic" in2="effect1_dropShadow" result="shape"/>
</filter>
</defs>
</svg>
