<svg width="21" height="19" viewBox="0 0 21 19" fill="none" xmlns="http://www.w3.org/2000/svg">
<path d="M18.5358 2.46515C18.0715 2.00065 17.5203 1.63218 16.9135 1.38079C16.3068 1.12939 15.6565 1 14.9998 1C14.343 1 13.6927 1.12939 13.086 1.38079C12.4793 1.63218 11.928 2.00065 11.4638 2.46515L10.5002 3.42869L9.53668 2.46515C8.59887 1.52734 7.32693 1.00049 6.00067 1.00049C4.67441 1.00049 3.40247 1.52734 2.46466 2.46515C1.52686 3.40296 1 4.6749 1 6.00116C1 7.32742 1.52686 8.59936 2.46466 9.53717L3.4282 10.5007L10.5002 17.5727L17.5722 10.5007L18.5358 9.53717C19.0003 9.07289 19.3687 8.52165 19.6201 7.91493C19.8715 7.30821 20.0009 6.6579 20.0009 6.00116C20.0009 5.34442 19.8715 4.69411 19.6201 4.08739C19.3687 3.48067 19.0003 2.92943 18.5358 2.46515V2.46515Z" stroke="white" stroke-width="2" stroke-linecap="round" stroke-linejoin="round"/>
</svg>
