<svg width="212" height="184" viewBox="0 0 212 184" fill="none" xmlns="http://www.w3.org/2000/svg">
<mask id="mask0" mask-type="alpha" maskUnits="userSpaceOnUse" x="0" y="0" width="212" height="163">
<path d="M212 0H0V163H212V0Z" fill="#C4C4C4"/>
</mask>
<g mask="url(#mask0)">
<path d="M58.2961 97.7274C66.744 97.7274 73.5923 90.625 73.5923 81.8637C73.5923 73.1024 66.744 66 58.2961 66C49.8483 66 43 73.1024 43 81.8637C43 90.625 49.8483 97.7274 58.2961 97.7274Z" fill="#CE844B"/>
<path d="M153.372 98.4764C161.82 98.4764 168.669 91.374 168.669 82.6127C168.669 73.8514 161.82 66.749 153.372 66.749C144.925 66.749 138.076 73.8514 138.076 82.6127C138.076 91.374 144.925 98.4764 153.372 98.4764Z" fill="#CE844B"/>
<path d="M153.372 92.6391C158.712 92.6391 163.04 88.1501 163.04 82.6127C163.04 77.0754 158.712 72.5864 153.372 72.5864C148.033 72.5864 143.705 77.0754 143.705 82.6127C143.705 88.1501 148.033 92.6391 153.372 92.6391Z" fill="#59361A"/>
<path d="M58.2962 92.6391C63.6354 92.6391 67.9638 88.1501 67.9638 82.6127C67.9638 77.0754 63.6354 72.5864 58.2962 72.5864C52.9569 72.5864 48.6285 77.0754 48.6285 82.6127C48.6285 88.1501 52.9569 92.6391 58.2962 92.6391Z" fill="#59361A"/>
<path d="M81.4011 80.6945C81.4011 80.6945 57.5767 79.241 55.4747 101.769C53.3724 124.297 48.8178 167.174 48.8178 167.174C48.8178 167.174 45.6646 182.071 65.1095 190.792H146.218C146.218 190.792 163.385 187.522 163.035 170.081C162.684 152.639 155.677 110.853 155.677 110.853L153.758 99.6562C153.758 99.6562 153.704 84.8859 136.228 81.261L81.4011 80.6945Z" fill="#CE844B"/>
<path d="M105.526 163.328C114.381 163.328 121.559 152.906 121.559 140.05C121.559 127.194 114.381 116.772 105.526 116.772C96.6722 116.772 89.4942 127.194 89.4942 140.05C89.4942 152.906 96.6722 163.328 105.526 163.328Z" fill="#F0EE90"/>
<path d="M131.565 118.173C134.22 118.173 136.372 115.941 136.372 113.188C136.372 110.434 134.22 108.201 131.565 108.201C128.909 108.201 126.757 110.434 126.757 113.188C126.757 115.941 128.909 118.173 131.565 118.173Z" fill="#55371B"/>
<path d="M105.873 132.418C105.873 132.418 109.904 132.896 113.586 126.814C117.268 120.732 108.949 119.601 108.949 119.601H103.767C89.0371 121.015 102.326 130.992 102.326 130.992C103.358 131.8 104.586 132.293 105.873 132.418Z" fill="#55371B"/>
<path d="M106.617 130.884H104.436V157.348H106.617V130.884Z" fill="#55371B"/>
<path d="M78.2412 118.173C80.8962 118.173 83.0486 115.941 83.0486 113.188C83.0486 110.434 80.8962 108.201 78.2412 108.201C75.5861 108.201 73.4335 110.434 73.4335 113.188C73.4335 115.941 75.5861 118.173 78.2412 118.173Z" fill="#55371B"/>
<path d="M98.1687 155.149C98.1687 155.149 105.529 162.662 113.5 155.149V153.488C113.5 153.488 105.573 161.826 98.1687 153.488V155.149Z" fill="#59361A" stroke="#603913" stroke-miterlimit="10"/>
</g>
<rect x="-0.241845" y="0.664463" width="21" height="43.9694" rx="10.5" transform="matrix(0.422619 0.906308 -0.906308 0.422618 167.219 145.603)" fill="#CE844B" stroke="white"/>
<path d="M40.067 153.276C36.8914 158.777 38.7759 165.81 44.2763 168.986L58.8231 177.384C64.3235 180.56 71.3568 178.675 74.5324 173.175C77.7081 167.675 75.8235 160.641 70.3232 157.466L55.7763 149.067C50.2759 145.891 43.2426 147.776 40.067 153.276Z" fill="#CE844B" stroke="white"/>
</svg>
