<svg width="610" height="681" viewBox="0 0 610 681" fill="none" xmlns="http://www.w3.org/2000/svg">
<path fill-rule="evenodd" clip-rule="evenodd" d="M306.347 0.582867C370.741 5.15087 423.315 48.5113 475.559 86.4327C525.11 122.4 580.185 157.531 601.598 214.894C622.531 270.97 593.978 330.723 589.018 390.372C583.668 454.714 608.621 526.629 571.299 579.313C533.588 632.546 460.904 644.733 397.615 660.559C336.485 675.846 271.434 691.571 212.599 669.009C155.322 647.045 122.767 589.804 85.6807 540.939C50.9093 495.125 13.5789 449.893 3.34197 393.296C-7.09895 335.572 8.52333 277.959 28.113 222.665C49.2677 162.954 71.4606 100.797 120.971 61.2786C172.838 19.8787 240.15 -4.11314 306.347 0.582867Z" fill="#CBE4FF"/>
<mask id="mask0" mask-type="alpha" maskUnits="userSpaceOnUse" x="0" y="0" width="610" height="681">
<path fill-rule="evenodd" clip-rule="evenodd" d="M306.347 0.582867C370.741 5.15087 423.315 48.5113 475.559 86.4327C525.11 122.4 580.185 157.531 601.598 214.894C622.531 270.97 593.978 330.723 589.018 390.372C583.668 454.714 608.621 526.629 571.299 579.313C533.588 632.546 460.904 644.733 397.615 660.559C336.485 675.846 271.434 691.571 212.599 669.009C155.322 647.045 122.767 589.804 85.6807 540.939C50.9093 495.125 13.5789 449.893 3.34197 393.296C-7.09895 335.572 8.52333 277.959 28.113 222.665C49.2677 162.954 71.4606 100.797 120.971 61.2786C172.838 19.8787 240.15 -4.11314 306.347 0.582867Z" fill="#7FBDFF"/>
</mask>
<g mask="url(#mask0)">
<rect x="31" y="510" width="578" height="182" fill="#F2F2F2"/>
<mask id="mask1" mask-type="alpha" maskUnits="userSpaceOnUse" x="210" y="57" width="170" height="212">
<rect x="210" y="57" width="170" height="212" fill="#4F4F4F"/>
</mask>
<g mask="url(#mask1)">
<rect x="210" y="57" width="170" height="212" fill="url(#paint0_linear)"/>
<path d="M507.931 244.166V243.07L507.045 242.523L506.453 243.07V244.166L471.288 244.978V246.613H467.122V245.809H463.657V246.613H461.787V253.112L448.136 253.433V251.209L446.447 250.556L446.043 251.209V255.821H444.892V250.373H437.226L436.864 250.921H436.22L435.918 250.373H433.751L433.265 245.261H431.646L431.127 249.095H427.919V251.651H424.432L418.536 243.707L399.438 245.261L399.107 243.707H396.792L396.36 245.261H393.097L392.655 241.781H390.119L389.679 245.261H378.977L378.663 246.331H368.515L365.79 250.373H356.209V245.809L352.272 233.029H351.633V231.722L353.25 231.112L350.632 224.112L350.488 221.306H349.922V224.112L347.826 231.112L349.419 231.722V233.029H348.849L345.002 245.809V249.095H338.27V242.705L335.822 236.863H331.578L329.129 242.705V248.182H323.829V247.118L321.964 246.904L321.758 245.261H321.424L321.196 244.166H320.755V242.705H320.199V240.902H319.914V239.648H318.846V240.902H318.518V242.705H318.019V244.166H317.608L317.352 245.261H317.066V248.182H316.345V248.55H315.185V250.008H314.426V254.207L311.667 254.39V253.112H310.013L309.412 252.186L307.567 251.651L308.256 253.112L306.814 255.303H302.641V254.207L299.325 252.747V248.182H298.295V245.809L296.453 245.261H293.912V249.095L292.628 248.182L287.054 250.556L285.282 250.373V249.46L284.706 249.095L285.282 240.514H273.414L264.637 228.821L256.168 229.377H252.903V230.094H248.639V208.747L242.37 196L235.438 208.747V231.112L227.17 231.203L226.875 229.069L224.109 228.821L223.835 230.572L221.691 230.472L221.361 229.336L219.245 229.069V231.194L217.366 231.203V230.472L214.624 230.375L210 231.112V270.2L513.911 270.4V244.348L507.931 244.166Z" fill="black"/>
</g>
<rect x="360.742" y="121.899" width="4" height="4" rx="2" transform="rotate(-15 360.742 121.899)" fill="white"/>
<rect x="314.895" y="136.254" width="3" height="3" rx="1.5" transform="rotate(-15 314.895 136.254)" fill="white"/>
<rect x="288.297" y="141.31" width="2" height="2" rx="1" transform="rotate(-15 288.297 141.31)" fill="white"/>
<rect x="258.284" y="145.211" width="3" height="3" rx="1.5" transform="rotate(-15 258.284 145.211)" fill="white"/>
<rect x="243.176" y="169.965" width="2" height="2" rx="1" transform="rotate(-15 243.176 169.965)" fill="white"/>
<rect x="357.553" y="148.635" width="2" height="2" rx="1" transform="rotate(-15 357.553 148.635)" fill="white"/>
<rect x="329.541" y="156.141" width="3" height="3" rx="1.5" transform="rotate(-15 329.541 156.141)" fill="white"/>
<path fill-rule="evenodd" clip-rule="evenodd" d="M338.013 240.611C338.013 255.817 339.213 268.143 355.318 268.143C371.424 268.143 372.624 255.817 372.624 240.611" fill="#F2F2F2"/>
<path fill-rule="evenodd" clip-rule="evenodd" d="M360.11 231.124C359.519 232.145 358.993 233.186 358.528 234.243C358.511 232.067 358.632 229.874 358.96 227.652C359.522 223.845 360.38 220.058 361.186 216.277C361.766 213.56 361.729 208.68 363.928 206.515C364.531 206.047 364.676 206.965 364.676 207.363C364.684 207.447 364.675 205.737 364.089 206.035C360.61 207.832 359.483 213.482 358.369 216.31C356.744 220.439 355.361 224.66 354.792 228.956C354.648 230.041 354.57 231.126 354.552 232.209C354.434 231.919 354.323 231.627 354.2 231.338C352.192 226.629 349.482 222.034 346.102 217.796C345.27 216.753 334.81 206.464 333.991 208.039C334.072 208.267 334.241 208.457 334.499 208.608C334.514 208.625 334.515 208.616 334.506 208.59C335.12 209.583 336.867 211.115 337.411 211.985C338.78 214.173 339.844 216.495 340.926 218.773C343.211 223.587 345.33 228.449 347.385 233.322C347.863 234.456 348.362 235.585 348.871 236.71C343.626 229.146 336.63 222.279 327 218.348C330.289 220.021 332.446 223.17 334.667 225.58C337.346 228.488 340.168 231.317 342.852 234.221C346.018 237.648 349.743 241.256 352.788 245.047C355.738 251.24 358.604 257.439 360.374 263.949C359.649 261.7 360.317 258.592 360.193 256.231C360.094 254.352 359.875 252.489 359.574 250.629C359.946 251.468 360.267 252.307 360.412 253.088C360.279 251.778 360.126 250.477 359.962 249.182C360.384 247.97 360.797 246.839 361.077 245.907C362.508 241.128 364.213 236.43 366.535 231.852C368.684 227.617 371.148 223.436 373.834 219.382C375.086 217.492 376.356 215.609 377.618 213.723C378.444 212.488 379.231 210.511 380.381 209.328C372.947 216.124 364.826 222.97 360.11 231.124Z" fill="#F2F2F2"/>
<rect x="195" y="57" width="200" height="35" fill="#C4C4C4"/>
<rect x="210" y="266" width="170" height="10" fill="#C4C4C4"/>
<path d="M237 382H361L399 448H195L237 382Z" fill="#C4C4C4"/>
<rect x="195" y="448" width="204" height="17" fill="#BDBDBD"/>
<rect x="198" y="465" width="10" height="103" fill="#C4C4C4"/>
<rect x="238" y="465" width="10" height="53" fill="#C4C4C4"/>
<rect x="346" y="465" width="10" height="53" fill="#C4C4C4"/>
<rect x="386" y="465" width="10" height="103" fill="#C4C4C4"/>
<path d="M439.233 165.236L457.801 146.656C460.924 143.531 465.989 143.53 469.114 146.653C469.115 146.654 469.116 146.655 469.117 146.656L518.549 196.113C521.548 199.114 523.233 203.182 523.233 207.424V535" stroke="#CBCBCB" stroke-width="8"/>
<path d="M549.233 534H496.233C494.576 534 493.233 535.343 493.233 537V538C493.233 539.657 494.576 541 496.233 541H549.233C550.89 541 552.233 539.657 552.233 538V537C552.233 535.343 550.89 534 549.233 534Z" fill="#AFB9C5"/>
<path fill-rule="evenodd" clip-rule="evenodd" d="M450.401 154.335C463.288 167.222 463.288 188.116 450.401 201.004L430.602 220.803L383.933 174.134L403.732 154.335C416.619 141.447 437.513 141.447 450.401 154.335Z" fill="#C5CFD6"/>
<path d="M403.461 201.527C416.348 214.414 428.853 222.804 431.391 220.265C433.93 217.727 425.54 205.222 412.653 192.335C399.766 179.447 387.261 171.058 384.723 173.596C382.184 176.135 390.574 188.64 403.461 201.527Z" fill="url(#paint1_linear)"/>
<path fill-rule="evenodd" clip-rule="evenodd" d="M451.678 582.07C450.559 585.056 450 587.291 450 588.774C450 590.577 450.3 593.208 450.901 596.668C452.993 596.668 471.794 596.668 507.303 596.668C508.769 591.823 507.923 589.207 504.765 588.82C501.607 588.434 498.984 588.085 496.895 587.774L470.68 576.087C470.176 575.862 469.584 576.089 469.359 576.593C469.356 576.602 469.352 576.61 469.348 576.619L467.663 580.707C464.74 582.071 462.364 582.753 460.537 582.753C459.052 582.753 457.001 582.153 454.384 580.953L454.384 580.953C453.38 580.493 452.193 580.934 451.733 581.938C451.713 581.981 451.695 582.025 451.678 582.07Z" fill="#BDBDBD"/>
<path fill-rule="evenodd" clip-rule="evenodd" d="M464.846 591.678C463.615 594.963 463 597.421 463 599.052C463 601.036 463.33 603.931 463.991 607.737C466.293 607.737 486.975 607.737 526.039 607.737C527.652 602.406 526.721 599.529 523.247 599.104C519.773 598.679 516.887 598.295 514.589 597.952L485.75 585.096C485.195 584.848 484.545 585.098 484.297 585.652C484.293 585.662 484.289 585.671 484.285 585.681L482.431 590.178C479.215 591.678 476.602 592.429 474.591 592.429C472.958 592.429 470.702 591.769 467.823 590.449L467.823 590.449C466.719 589.943 465.413 590.428 464.906 591.533C464.885 591.58 464.864 591.629 464.846 591.678Z" fill="#E0E0E0"/>
<path opacity="0.2" fill-rule="evenodd" clip-rule="evenodd" d="M37.0922 194.719C34.8414 193.603 31.8409 194.897 33.0926 197.847C34.4334 201.007 39.3906 201.046 42.1902 200.983C41.91 200.969 41.0077 198.071 40.6988 197.634C39.7878 196.342 38.4759 195.406 37.0922 194.719ZM63.0082 252.287C63.8032 252.967 63.0729 252.351 63.0082 252.287V252.287ZM34.4762 209.388C33.1304 210.406 33.0671 212.206 34.1675 213.425C35.4779 214.875 37.8692 214.824 39.6542 214.684C40.4616 214.62 44.773 214.28 43.7506 213.581C43.8293 213.61 43.9935 213.682 44.1692 213.779C44.264 214.121 44.3634 214.462 44.4671 214.802C44.4417 214.816 44.4201 214.832 44.393 214.847C44.4224 214.834 44.443 214.82 44.4688 214.807C45.5074 218.2 46.9849 221.431 48.9189 224.454C48.1958 224.172 47.4468 223.958 46.6872 223.863C44.4377 223.58 39.7069 225.309 42.2244 228.276C44.6383 231.121 48.3926 228.072 51.1303 227.653C53.7879 231.325 56.7177 234.844 59.788 238.246C59.6001 238.304 59.4351 238.426 59.3406 238.615C58.1093 237.996 56.826 237.11 55.6866 236.87C54.0424 236.524 50.6711 236.313 49.4293 237.77C47.9019 239.561 49.5409 241.017 51.3467 241.362C53.9652 241.862 57.3918 240.597 59.9107 239.742C60.1989 239.792 60.5134 239.709 60.7012 239.481C60.7569 239.463 60.8126 239.445 60.8667 239.428C63.9759 242.813 67.204 246.087 70.4123 249.289C70.3782 249.287 70.3441 249.285 70.3085 249.283C69.4717 248.739 68.5742 248.293 67.6016 248.059C65.3515 247.515 62.7044 247.511 60.8795 249.122C59.0617 250.726 58.4189 253.533 60.3013 255.337C64.0691 258.947 69.6135 250.723 71.513 250.38C74.7734 253.6 78.2207 256.609 81.7222 259.556C81.3246 259.436 80.917 259.348 80.4957 259.308C77.0635 258.981 69.01 263.144 73.224 267.246C76.8963 270.82 81.141 263.946 84.0977 261.543C87.3972 264.29 90.7146 267.019 93.939 269.854C92.1809 269.391 90.4821 269.322 88.598 269.885C86.6485 270.468 83.503 271.925 84.7369 274.533C85.9919 277.185 89.7695 275.98 91.7369 275.139C92.8099 274.681 94.961 273.132 96.8501 272.48C101.995 277.292 106.453 282.59 109.829 288.831C111.936 292.728 113.536 296.891 114.663 301.169C115.382 303.9 116.799 308.486 116.517 312.04C117.863 304.927 115.418 296.383 112.786 290.023C110.366 284.176 106.746 279.041 102.507 274.419C103.568 271.253 112.516 266.689 107.164 263.744C104.322 262.186 101.414 264.767 100.794 267.5C100.368 269.379 101.019 271.74 101.71 273.564C100.376 272.155 98.9901 270.791 97.5616 269.473C95.5875 267.651 93.5661 265.881 91.5254 264.134C94.8851 261.008 98.0617 252.07 93.5541 250.605C86.8977 248.449 90.1085 260.645 90.5739 262.931C90.7057 262.939 90.8085 262.9 90.884 262.815C90.8467 263.024 90.8034 263.248 90.7509 263.474C86.845 260.147 82.8813 256.886 79.048 253.48C79.3931 253.228 79.9414 252.262 80.3724 251.749C81.3452 250.591 82.2759 249.381 82.9559 248.026C84.0299 245.885 85.0651 242.469 82.2144 241.208C79.1142 239.834 77.6433 243.697 77.6228 246.002C77.6089 247.596 78.0481 249.11 78.2772 250.673C78.3488 251.16 78.0751 253.357 78.745 252.412C78.7135 252.761 78.7091 253.013 78.7249 253.192C78.0367 252.577 77.3538 251.956 76.6752 251.33C76.7066 251.252 76.7298 251.165 76.7351 251.066C76.7711 250.378 76.0727 250.113 75.5832 250.314C74.6878 249.472 73.8011 248.618 72.9303 247.748C71.0845 245.904 69.212 244.008 67.3524 242.071C67.7554 241.728 67.5948 241.253 67.9718 240.889C68.3481 240.526 69.0895 240.325 69.5321 239.988C70.6452 239.139 71.568 237.902 72.2352 236.684C73.3367 234.672 74.7594 230.451 71.538 229.49C68.2176 228.498 66.5346 232.561 66.3224 235.102C66.2811 235.594 66.6555 240.03 66.9413 241.641C63.5003 238.041 60.1159 234.307 57.0494 230.508C57.9786 230.5 60.612 228.616 61.1443 228.102C62.4431 226.847 64.5073 224.076 62.2284 222.607C60.2021 221.305 57.7063 223.189 56.8411 225.02C56.6989 225.322 56.1983 228.129 56.1597 229.389C54.8905 227.778 53.6798 226.157 52.5533 224.531C51.802 223.451 51.0999 222.341 50.443 221.208C50.6009 221.12 50.7495 220.965 50.8898 220.773C54.2678 220.207 58.5724 214.989 54.6032 213.171C52.7135 212.306 50.6655 214.088 49.7407 215.547C49.5513 215.845 49.2449 217.346 48.9956 218.53C47.1054 214.777 45.6603 210.805 44.5599 206.732C44.854 206.659 45.1029 206.437 45.1356 206.054C46.7753 205.129 48.0701 204.359 49.2142 202.578C49.925 201.473 51.2047 198.946 49.1143 198.331C46.394 197.531 44.6875 201.645 44.466 203.671C44.4403 203.906 44.4416 204.59 44.4508 205.217C44.3564 205.205 44.2609 205.206 44.1673 205.222C43.5413 202.7 43.0414 200.146 42.6436 197.587C44.1279 197.114 44.3807 189.393 43.3916 188.293C41.181 185.83 39.624 189.386 39.7429 191.265C39.8834 193.481 40.8984 195.498 42.1068 197.288C42.2364 197.477 42.1995 197.468 42.2329 197.204C42.2515 197.334 42.2956 197.431 42.361 197.5C42.2993 198.667 42.1785 199.861 42.2373 200.894C42.406 203.85 42.7553 206.823 43.2616 209.741C43.3847 210.451 43.5257 211.155 43.6838 211.853C42.49 210.846 40.8807 209.95 40.2511 209.67C38.6168 208.944 36.0985 208.16 34.4762 209.388ZM116.785 311.759C116.706 312.709 116.471 313.576 116.01 314.286C116.349 313.474 116.603 312.629 116.785 311.759Z" fill="#C1DEE2"/>
<g opacity="0.5">
<path opacity="0.8" fill-rule="evenodd" clip-rule="evenodd" d="M57.6006 291.513C54.9068 287.672 49.9079 277.917 46.1164 276.544C43.6744 275.66 44.3864 284.805 44.3562 286.548C44.2388 293.294 44.8955 299.998 45.7066 306.687C47.1677 318.751 51.9455 329.495 58.4987 339.763C61.8708 345.047 65.826 350.394 71.3042 353.691C73.8258 355.209 76.8599 355.463 79.3501 356.771C82.2504 358.294 80.6709 357.063 81.9779 360.085C83.793 364.281 84.3736 369.694 85.2134 374.171C89.0695 394.724 98.4049 503.372 96.7865 524.278C96.6427 526.131 99.2266 526.574 99.3555 524.312C100.041 512.317 94.1087 429.255 91.1156 402.091C88.1226 374.927 85.0938 350.929 82.0568 341.531C78.3725 330.13 71.7184 316.419 66.1794 305.786C63.6065 300.847 60.8021 296.077 57.6006 291.513Z" fill="#69A1AC"/>
<path opacity="0.8" fill-rule="evenodd" clip-rule="evenodd" d="M37.6063 424.739C30.5967 419.593 23.0093 429.305 29.3523 434.452C32.8588 437.297 36.5247 436.285 38.5885 433.914C39.9283 435.547 41.1822 437.255 42.3871 438.697C46.0581 443.092 49.5277 447.592 52.8436 452.197C59.732 461.763 65.6352 471.869 71.8075 481.791C77.8986 491.583 83.9411 501.425 89.4621 511.465C94.1391 519.972 100.373 529.979 101.974 539.305C99.5447 519.527 90.3257 500.516 79.3474 483.081C68.4584 465.788 55.962 446.903 39.1019 433.256C40.8178 430.732 40.8655 427.13 37.6063 424.739Z" fill="#C1DEE2"/>
<path opacity="0.8" fill-rule="evenodd" clip-rule="evenodd" d="M170.62 376.504C166.697 377.271 160.288 386.144 157.054 389.525C153.212 393.543 149.725 397.825 146.439 402.312C139.365 411.97 133.038 422.238 127.658 432.946C118.887 450.401 111.86 468.32 106.761 487.329C103.639 498.964 101.618 511.024 100.42 523C100.194 525.259 97.8261 542.672 101.238 543.141C104.307 543.564 103.359 529.919 103.507 528.063C105.181 507.124 110.194 486.75 117.168 467.014C118.686 462.714 120.098 457.448 122.527 453.579C124.276 450.792 122.539 451.764 125.614 450.71C128.253 449.803 131.261 450.025 133.964 448.916C139.836 446.508 144.538 441.833 148.66 437.13C156.669 427.991 163.017 418.105 166.325 406.395C168.161 399.902 169.847 393.371 170.783 386.678C171.025 384.947 173.146 376.01 170.62 376.504Z" fill="#69A1AC"/>
<path opacity="0.8" fill-rule="evenodd" clip-rule="evenodd" d="M155.14 228.866C140.364 254.491 128.223 282.639 120.382 311.148C115.632 328.422 112.31 346.147 109.01 363.745C103.899 390.992 99.0652 418.237 97.6902 445.968C96.3069 473.86 93.5714 506.03 102.705 532.894C98.1425 505.62 102.486 476.588 103.255 449.144C103.622 436.043 104.687 423.07 106.084 410.045C107.44 397.41 109.655 384.836 111.717 372.301C112.722 366.196 113.777 360.1 114.851 354.007C115.172 352.19 115.308 346.796 116.461 345.554C117.621 344.304 123.542 343.795 125.401 342.878C129.144 341.031 132.665 338.407 135.781 335.634C141.755 330.32 146.952 323.376 151.054 316.531C160.544 300.692 164.339 281.362 164.147 263.019C164.11 259.457 158.382 221.106 160.683 220.578C160.544 220.416 160.413 220.248 160.29 220.074C158.548 222.99 156.839 225.925 155.14 228.866Z" fill="#89C5CC"/>
<path opacity="0.8" fill-rule="evenodd" clip-rule="evenodd" d="M-4.33732 321.284C-4.5653 320.955 -6.0491 318.668 -5.30191 318.814C-6.82323 318.516 -3.20943 321.336 -7.00004 319.606C-5.20023 321.306 -6.23895 323.514 -6.26298 325.802C-6.30217 329.516 -5.68072 333.2 -4.98116 336.834C-3.87576 342.58 -2.229 348.165 0.161224 353.509C5.37081 365.154 14.217 376.365 24.719 383.645C29.9035 387.24 34.9846 388.464 40.8976 390.119C44.6325 391.164 44.9287 393.096 46.9112 396.721C51.0386 404.269 55.0925 411.791 58.7325 419.594C63.0789 428.912 67.2982 438.24 71.2782 447.722C84.6862 479.662 95.5991 512.752 101.33 546.997C101.47 526.816 96.8021 506.032 90.9133 486.797C86.6237 472.783 81.0395 459.273 75.0833 445.9C73.64 442.661 71.4528 438.493 70.8399 434.917C70.4107 432.411 71.7228 430 72.3236 427.36C74.6656 417.08 74.498 405.563 72.4413 395.227C70.1737 383.831 63.6158 378.541 52.5223 376.927C48.4652 376.336 43.3085 376.553 39.5883 374.823C35.5352 372.939 33.8632 366.747 31.5585 362.772C25.3681 352.095 18.013 341.855 9.56724 332.859C7.2287 330.368 4.71383 328.069 2.04582 325.939C0.36338 324.595 -3.19074 322.939 -4.33732 321.284Z" fill="#89C5CC"/>
<path opacity="0.95" fill-rule="evenodd" clip-rule="evenodd" d="M120.057 525.202H80.6868C78.9167 525.202 77.4817 526.637 77.4817 528.407C77.4817 528.564 77.4931 528.72 77.516 528.875L80.5589 549.508C81.4865 555.798 86.8841 560.458 93.2422 560.458H107.501C113.859 560.458 119.257 555.798 120.185 549.508L123.228 528.875C123.486 527.124 122.276 525.495 120.524 525.236C120.37 525.213 120.213 525.202 120.057 525.202Z" fill="white"/>
</g>
</g>
<line x1="277.521" y1="402.822" x2="264.37" y2="428.632" stroke="#395273" stroke-linecap="round"/>
<path d="M337 385V380L348 398V408L337 385Z" fill="#A3ADB9"/>
<rect x="348" y="398" width="29" height="10" fill="#F2F2F2"/>
<path d="M337 380H360.5L377 398H348L337 380Z" fill="#AFB9C5"/>
<path d="M286.5 400.5H312L325 436H276.5L286.5 400.5Z" fill="white"/>
<line x1="291" y1="405.9" x2="308" y2="405.9" stroke="black" stroke-width="0.2"/>
<line x1="290" y1="408.9" x2="310" y2="408.9" stroke="black" stroke-width="0.2"/>
<line x1="287" y1="412.9" x2="312" y2="412.9" stroke="black" stroke-width="0.2"/>
<rect x="268" y="283" width="65" height="65" fill="white"/>
<rect x="268" y="283" width="65" height="10" fill="#8CAAD2"/>
<rect x="276" y="304" width="10" height="8" fill="#F2F2F2"/>
<rect x="286" y="314" width="10" height="8" fill="#F2F2F2"/>
<rect x="296" y="324" width="10" height="8" fill="#F2F2F2"/>
<rect x="306" y="334" width="10" height="8" fill="#F2F2F2"/>
<rect x="296" y="304" width="10" height="8" fill="#F2F2F2"/>
<rect x="306" y="314" width="10" height="8" fill="#F2F2F2"/>
<rect x="276" y="324" width="10" height="8" fill="#F2F2F2"/>
<rect x="286" y="334" width="10" height="8" fill="#F2F2F2"/>
<rect x="316" y="324" width="10" height="8" fill="#F2F2F2"/>
<rect x="316" y="304" width="10" height="8" fill="#F2F2F2"/>
<defs>
<linearGradient id="paint0_linear" x1="295" y1="57" x2="295" y2="269" gradientUnits="userSpaceOnUse">
<stop stop-color="#1E73FF"/>
<stop offset="1" stop-color="#7FBDFF"/>
</linearGradient>
<linearGradient id="paint1_linear" x1="436" y1="169" x2="403.461" y2="201.527" gradientUnits="userSpaceOnUse">
<stop stop-color="#FFCA30"/>
<stop offset="1" stop-color="white"/>
</linearGradient>
</defs>
</svg>
