<svg width="282" height="133" viewBox="0 0 282 133" fill="none" xmlns="http://www.w3.org/2000/svg">
<path fill-rule="evenodd" clip-rule="evenodd" d="M105.75 65.307C105.75 74.5416 98.2639 82.0287 89.0294 82.0287C79.7936 82.0287 72.3076 74.5416 72.3076 65.307C72.3076 56.0724 79.7936 48.5864 89.0294 48.5864C98.2639 48.5864 105.75 56.0724 105.75 65.307Z" fill="#CD844B"/>
<path fill-rule="evenodd" clip-rule="evenodd" d="M209.692 66.2114C209.692 75.4456 202.207 82.9325 192.971 82.9325C183.737 82.9325 176.25 75.4456 176.25 66.2114C176.25 56.9771 183.737 49.4902 192.971 49.4902C202.207 49.4902 209.692 56.9771 209.692 66.2114Z" fill="#CD844B"/>
<path fill-rule="evenodd" clip-rule="evenodd" d="M204.269 65.7595C204.269 71.7505 199.413 76.6056 193.423 76.6056C187.433 76.6056 182.577 71.7505 182.577 65.7595C182.577 59.7684 187.433 54.9133 193.423 54.9133C199.413 54.9133 204.269 59.7684 204.269 65.7595Z" fill="#58351A"/>
<path fill-rule="evenodd" clip-rule="evenodd" d="M99.4228 65.7595C99.4228 71.7505 94.5665 76.6056 88.5766 76.6056C82.5868 76.6056 77.7305 71.7505 77.7305 65.7595C77.7305 59.7684 82.5868 54.9133 88.5766 54.9133C94.5665 54.9133 99.4228 59.7684 99.4228 65.7595Z" fill="#58351A"/>
<path fill-rule="evenodd" clip-rule="evenodd" d="M113.719 64.8677C113.719 64.8677 87.5567 63.9489 85.2491 78.1873C82.9403 92.4256 77.2788 134.452 77.2788 134.452C77.2788 134.452 77.2788 134.452 95.8285 134.452H176.429H206.981C206.596 123.429 195.28 83.9286 195.28 83.9286L193.172 76.8516C193.172 76.8516 193.114 67.5167 173.924 65.226L113.719 64.8677Z" fill="#CD844B"/>
<path fill-rule="evenodd" clip-rule="evenodd" d="M158.173 126.317C158.173 139.795 149.829 137.163 140.096 137.163C130.363 137.163 122.923 139.795 122.923 126.317C122.923 112.838 130.815 101.913 140.548 101.913C150.281 101.913 158.173 112.838 158.173 126.317Z" fill="#EFED8F"/>
<path fill-rule="evenodd" clip-rule="evenodd" d="M173.538 98.7505C173.538 101.496 171.313 103.721 168.567 103.721C165.822 103.721 163.596 101.496 163.596 98.7505C163.596 96.0046 165.822 93.7788 168.567 93.7788C171.313 93.7788 173.538 96.0046 173.538 98.7505Z" fill="#55371B"/>
<path fill-rule="evenodd" clip-rule="evenodd" d="M141.222 119.077C141.222 119.077 145.75 119.582 149.886 113.153C154.023 106.725 144.677 105.529 144.677 105.529H138.855C122.31 107.023 137.238 117.57 137.238 117.57C137.238 117.57 138.502 118.697 141.222 119.077Z" fill="#55371B"/>
<path fill-rule="evenodd" clip-rule="evenodd" d="M139.192 137.163H141V109.144H139.192V137.163Z" fill="#55371B"/>
<path fill-rule="evenodd" clip-rule="evenodd" d="M114.789 98.7505C114.789 101.496 112.563 103.721 109.817 103.721C107.072 103.721 104.846 101.496 104.846 98.7505C104.846 96.0046 107.072 93.7788 109.817 93.7788C112.563 93.7788 114.789 96.0046 114.789 98.7505Z" fill="#55371B"/>
</svg>
