<svg width="14" height="16" viewBox="0 0 14 16" fill="none" xmlns="http://www.w3.org/2000/svg">
<path d="M11.0018 5.00071C11.0018 3.93966 10.5803 2.92206 9.82999 2.17178C9.07971 1.4215 8.06212 1 7.00106 1C5.94001 1 4.92241 1.4215 4.17214 2.17178C3.42186 2.92206 3.00035 3.93966 3.00035 5.00071C3.00035 9.6682 1 11.0018 1 11.0018H13.0021C13.0021 11.0018 11.0018 9.6682 11.0018 5.00071Z" fill="white" stroke="white" stroke-width="1.5" stroke-linecap="round" stroke-linejoin="round"/>
<path d="M8.15424 13.6689C8.03702 13.871 7.86875 14.0387 7.66631 14.1554C7.46386 14.272 7.23433 14.3333 7.00071 14.3333C6.76708 14.3333 6.53755 14.272 6.3351 14.1554C6.13266 14.0387 5.9644 13.871 5.84717 13.6689" fill="white"/>
<path d="M8.15424 13.6689C8.03702 13.871 7.86875 14.0387 7.66631 14.1554C7.46386 14.272 7.23433 14.3333 7.00071 14.3333C6.76708 14.3333 6.53755 14.272 6.3351 14.1554C6.13266 14.0387 5.9644 13.871 5.84717 13.6689" stroke="white" stroke-width="1.5" stroke-linecap="round" stroke-linejoin="round"/>
</svg>
