<svg xmlns="http://www.w3.org/2000/svg" viewBox="0 0 100 125"><switch><g><path d="M96 54.1l1.5 16.5c.2 1.8-1.8 3.2-3.4 2.3l-4.6-2.3c-7.5 14.3-22.4 24-39.5 24-20.1 0-37.1-13.3-42.7-31.6-.7-2.3 1.1-4.7 3.5-4.7 1.6 0 3 1.1 3.5 2.6C19 76.2 33.2 87.3 50 87.3c14.3 0 26.8-8.1 33-19.9L78.3 65c-1.7-.8-1.7-3.2-.2-4.1l14.2-8.6c1.6-.9 3.5.1 3.7 1.8zM50 5.4c20.1 0 37.1 13.3 42.7 31.6.7 2.3-1.1 4.7-3.5 4.7-1.6 0-3-1.1-3.5-2.6C81 23.8 66.8 12.7 50 12.7c-14.3 0-26.8 8.1-33 19.9l4.7 2.4c1.7.8 1.7 3.2.2 4.1L7.6 47.7c-1.5.9-3.4-.1-3.6-1.8L2.5 29.3c-.2-1.8 1.8-3.2 3.4-2.3l4.6 2.3C18 15.1 32.9 5.4 50 5.4z"/></g></switch></svg>