<svg width="220" height="47" viewBox="0 0 220 47" fill="none" xmlns="http://www.w3.org/2000/svg">
<path d="M25.5615 28.0879C25.5615 31.3105 24.3978 33.8496 22.0703 35.7051C19.7591 37.5605 16.5365 38.4883 12.4023 38.4883C8.59375 38.4883 5.22461 37.7721 2.29492 36.3398V29.3086C4.70378 30.3828 6.73828 31.1396 8.39844 31.5791C10.0749 32.0186 11.6048 32.2383 12.9883 32.2383C14.6484 32.2383 15.918 31.9209 16.7969 31.2861C17.6921 30.6514 18.1396 29.7074 18.1396 28.4541C18.1396 27.7542 17.9443 27.1357 17.5537 26.5986C17.1631 26.0452 16.5853 25.5163 15.8203 25.0117C15.0716 24.5072 13.5335 23.7015 11.2061 22.5947C9.02507 21.5693 7.38932 20.5846 6.29883 19.6406C5.20833 18.6966 4.33757 17.598 3.68652 16.3447C3.03548 15.0915 2.70996 13.6266 2.70996 11.9502C2.70996 8.79264 3.77604 6.31055 5.9082 4.50391C8.05664 2.69727 11.0189 1.79395 14.7949 1.79395C16.6504 1.79395 18.4163 2.01367 20.0928 2.45312C21.7855 2.89258 23.5514 3.51107 25.3906 4.30859L22.9492 10.1924C21.0449 9.41113 19.4661 8.86589 18.2129 8.55664C16.9759 8.2474 15.7552 8.09277 14.5508 8.09277C13.1185 8.09277 12.0199 8.42643 11.2549 9.09375C10.4899 9.76107 10.1074 10.6318 10.1074 11.7061C10.1074 12.3734 10.262 12.9593 10.5713 13.4639C10.8805 13.9521 11.3688 14.4323 12.0361 14.9043C12.7197 15.36 14.3229 16.1901 16.8457 17.3945C20.1823 18.9896 22.4691 20.5928 23.7061 22.2041C24.943 23.7992 25.5615 25.7604 25.5615 28.0879ZM48.7793 38L47.3389 34.2891H47.1436C45.8903 35.8678 44.5964 36.9665 43.2617 37.585C41.9434 38.1872 40.2181 38.4883 38.0859 38.4883C35.4655 38.4883 33.3984 37.7396 31.8848 36.2422C30.3874 34.7448 29.6387 32.6126 29.6387 29.8457C29.6387 26.9486 30.6478 24.8164 32.666 23.4492C34.7005 22.0658 37.7604 21.3008 41.8457 21.1543L46.582 21.0078V19.8115C46.582 17.0446 45.166 15.6611 42.334 15.6611C40.153 15.6611 37.5895 16.3203 34.6436 17.6387L32.1777 12.6094C35.319 10.9655 38.8021 10.1436 42.627 10.1436C46.2891 10.1436 49.0967 10.9411 51.0498 12.5361C53.0029 14.1312 53.9795 16.5563 53.9795 19.8115V38H48.7793ZM46.582 25.3535L43.7012 25.4512C41.5365 25.5163 39.9251 25.9069 38.8672 26.623C37.8092 27.3392 37.2803 28.4297 37.2803 29.8945C37.2803 31.9941 38.4847 33.0439 40.8936 33.0439C42.6188 33.0439 43.9941 32.5475 45.0195 31.5547C46.0612 30.5618 46.582 29.2435 46.582 27.5996V25.3535ZM86.1084 38H78.6621V22.0576C78.6621 20.0882 78.3285 18.6152 77.6611 17.6387C77.0101 16.6458 75.9766 16.1494 74.5605 16.1494C72.6562 16.1494 71.2728 16.8493 70.4102 18.249C69.5475 19.6488 69.1162 21.9518 69.1162 25.1582V38H61.6699V10.7051H67.3584L68.3594 14.1963H68.7744C69.5068 12.943 70.5648 11.9665 71.9482 11.2666C73.3317 10.5505 74.9186 10.1924 76.709 10.1924C80.7943 10.1924 83.5612 11.527 85.0098 14.1963H85.6689C86.4014 12.9268 87.4756 11.9421 88.8916 11.2422C90.3239 10.5423 91.9352 10.1924 93.7256 10.1924C96.818 10.1924 99.1536 10.9899 100.732 12.585C102.327 14.1637 103.125 16.7028 103.125 20.2021V38H95.6543V22.0576C95.6543 20.0882 95.3206 18.6152 94.6533 17.6387C94.0023 16.6458 92.9688 16.1494 91.5527 16.1494C89.7298 16.1494 88.3626 16.8005 87.4512 18.1025C86.556 19.4046 86.1084 21.4717 86.1084 24.3037V38ZM153.296 3.64941C153.296 1.22428 154.647 0.0117188 157.349 0.0117188C160.05 0.0117188 161.401 1.22428 161.401 3.64941C161.401 4.80501 161.06 5.70833 160.376 6.35938C159.709 6.99414 158.7 7.31152 157.349 7.31152C154.647 7.31152 153.296 6.09082 153.296 3.64941ZM161.06 38H153.613V10.7051H161.06V38ZM187.939 29.8945C187.939 32.694 186.963 34.8262 185.01 36.291C183.073 37.7559 180.168 38.4883 176.294 38.4883C174.308 38.4883 172.616 38.3499 171.216 38.0732C169.816 37.8128 168.506 37.4222 167.285 36.9014V30.749C168.669 31.4001 170.223 31.9453 171.948 32.3848C173.69 32.8242 175.22 33.0439 176.538 33.0439C179.24 33.0439 180.591 32.2627 180.591 30.7002C180.591 30.1143 180.412 29.6423 180.054 29.2842C179.696 28.9098 179.077 28.4948 178.198 28.0391C177.319 27.5671 176.147 27.0218 174.683 26.4033C172.583 25.5244 171.037 24.7106 170.044 23.9619C169.067 23.2132 168.351 22.3587 167.896 21.3984C167.456 20.4219 167.236 19.2256 167.236 17.8096C167.236 15.3844 168.172 13.5127 170.044 12.1943C171.932 10.8597 174.601 10.1924 178.052 10.1924C181.34 10.1924 184.538 10.9085 187.646 12.3408L185.4 17.7119C184.033 17.126 182.756 16.6458 181.567 16.2715C180.379 15.8971 179.167 15.71 177.93 15.71C175.732 15.71 174.634 16.304 174.634 17.4922C174.634 18.1595 174.984 18.7373 175.684 19.2256C176.4 19.7139 177.954 20.4382 180.347 21.3984C182.479 22.2611 184.041 23.0667 185.034 23.8154C186.027 24.5641 186.759 25.4268 187.231 26.4033C187.703 27.3799 187.939 28.5436 187.939 29.8945ZM205.054 15.4902C203.475 15.4902 202.238 15.9948 201.343 17.0039C200.448 17.9967 199.935 19.4128 199.805 21.252H210.254C210.221 19.4128 209.741 17.9967 208.813 17.0039C207.886 15.9948 206.632 15.4902 205.054 15.4902ZM206.104 38.4883C201.709 38.4883 198.275 37.2757 195.801 34.8506C193.327 32.4255 192.09 28.9912 192.09 24.5479C192.09 19.9743 193.229 16.4424 195.508 13.9521C197.803 11.4456 200.968 10.1924 205.005 10.1924C208.862 10.1924 211.865 11.291 214.014 13.4883C216.162 15.6855 217.236 18.721 217.236 22.5947V26.208H199.634C199.715 28.3239 200.342 29.9759 201.514 31.1641C202.686 32.3522 204.329 32.9463 206.445 32.9463C208.089 32.9463 209.644 32.7754 211.108 32.4336C212.573 32.0918 214.103 31.5465 215.698 30.7979V36.5596C214.396 37.2106 213.005 37.6908 211.523 38C210.042 38.3255 208.236 38.4883 206.104 38.4883Z" fill="black"/>
<path d="M124.655 11H132.102V26.9424C132.102 28.9118 132.435 30.3848 133.103 31.3613C133.754 32.3542 134.787 32.8506 136.203 32.8506C138.107 32.8506 139.491 32.1507 140.354 30.751C141.216 29.3512 141.647 27.0482 141.647 23.8418V11H149.094V38.2949H143.405L142.404 34.8037H141.989C141.257 36.057 140.199 37.0335 138.815 37.7334C137.432 38.4495 135.845 38.8076 134.055 38.8076C129.969 38.8076 127.202 37.473 125.754 34.8037H125.095C124.362 36.0732 123.288 37.0579 121.872 37.7578C120.44 38.4577 118.828 38.8076 117.038 38.8076C113.946 38.8076 111.61 38.0101 110.031 36.415C108.436 34.8363 107.639 32.2972 107.639 28.7979V11H115.109V26.9424C115.109 28.9118 115.443 30.3848 116.11 31.3613C116.761 32.3542 117.795 32.8506 119.211 32.8506C121.034 32.8506 122.401 32.1995 123.312 30.8975C124.208 29.5954 124.655 27.5283 124.655 24.6963V11Z" fill="#7FBDFF"/>
</svg>
