<?xml version="1.0" encoding="utf-8"?>
<!-- Generator: Adobe Illustrator 22.1.0, SVG Export Plug-In . SVG Version: 6.00 Build 0)  -->
<svg version="1.1" id="Layer_1" xmlns="http://www.w3.org/2000/svg" xmlns:xlink="http://www.w3.org/1999/xlink" x="0px" y="0px"
	 viewBox="0 0 212 90" style="enable-background:new 0 0 212 90;" xml:space="preserve">
<style type="text/css">
	.st0{fill:#C4C4C4;filter:url(#Adobe_OpacityMaskFilter);}
	.st1{mask:url(#mask0_1_);}
	.st2{fill:#CE844B;}
	.st3{fill:#59361A;}
	.st4{fill:#F0EE90;}
	.st5{fill:#55371B;}
	.st6{fill:#CE844B;stroke:#FFFFFF;stroke-width:0.5;}
</style>
<defs>
	<filter id="Adobe_OpacityMaskFilter" filterUnits="userSpaceOnUse" x="44" y="3" width="125.7" height="124.8">
		<feColorMatrix  type="matrix" values="1 0 0 0 0  0 1 0 0 0  0 0 1 0 0  0 0 0 1 0"/>
	</filter>
</defs>
<mask maskUnits="userSpaceOnUse" x="44" y="3" width="125.7" height="124.8" id="mask0_1_">
	<path class="st0" d="M212-81H0V82h212V-81z"/>
</mask>
<g class="st1">
	<path class="st2" d="M59.3,34.7c8.4,0,15.3-7.1,15.3-15.9C74.6,10.1,67.7,3,59.3,3C50.8,3,44,10.1,44,18.8
		C44,27.6,50.8,34.7,59.3,34.7z"/>
	<path class="st2" d="M154.4,35.5c8.4,0,15.3-7.1,15.3-15.9c0-8.8-6.8-15.9-15.3-15.9c-8.4,0-15.3,7.1-15.3,15.9
		C139.1,28.3,145.9,35.5,154.4,35.5z"/>
	<path class="st3" d="M154.4,29.6c5.3,0,9.7-4.5,9.7-10c0-5.5-4.3-10-9.7-10c-5.3,0-9.7,4.5-9.7,10C144.7,25.1,149,29.6,154.4,29.6z
		"/>
	<path class="st3" d="M59.3,29.6c5.3,0,9.7-4.5,9.7-10c0-5.5-4.3-10-9.7-10c-5.3,0-9.7,4.5-9.7,10C49.6,25.1,54,29.6,59.3,29.6z"/>
	<path class="st2" d="M82.4,17.7c0,0-23.8-1.5-25.9,21.1c-2.1,22.5-6.7,65.4-6.7,65.4s-3.2,14.9,16.3,23.6h81.1
		c0,0,17.2-3.3,16.8-20.7c-0.4-17.4-7.4-59.2-7.4-59.2l-1.9-11.2c0,0-0.1-14.8-17.5-18.4L82.4,17.7z"/>
	<path class="st4" d="M106.5,100.3c8.9,0,16-10.4,16-23.3s-7.2-23.3-16-23.3c-8.9,0-16,10.4-16,23.3S97.7,100.3,106.5,100.3z"/>
	<path class="st5" d="M132.6,55.1c2.7,0,4.8-2.2,4.8-5c0-2.8-2.2-5-4.8-5c-2.7,0-4.8,2.2-4.8,5C127.8,52.9,129.9,55.1,132.6,55.1z"
		/>
	<path class="st5" d="M106.9,69.4c0,0,4,0.5,7.7-5.6c3.7-6.1-4.6-7.2-4.6-7.2h-5.2C90,58,103.3,68,103.3,68
		C104.4,68.8,105.6,69.3,106.9,69.4z"/>
	<path class="st5" d="M107.6,67.9h-2.2v26.5h2.2V67.9z"/>
	<path class="st5" d="M79.2,55.1c2.7,0,4.8-2.2,4.8-5c0-2.8-2.2-5-4.8-5c-2.7,0-4.8,2.2-4.8,5C74.4,52.9,76.6,55.1,79.2,55.1z"/>
</g>
<path class="st6" d="M65.8,82.5c0,1.9-1.4,3.8-3.7,5.1c-2.3,1.3-5.5,2.2-9.1,2.2s-6.8-0.8-9.1-2.2c-2.3-1.3-3.7-3.1-3.7-5.1
	s1.4-3.8,3.7-5.1c2.3-1.3,5.5-2.2,9.1-2.2s6.8,0.8,9.1,2.2C64.4,78.7,65.8,80.6,65.8,82.5z"/>
<path class="st6" d="M172.8,82.5c0,1.9-1.4,3.8-3.7,5.1c-2.3,1.3-5.5,2.2-9.1,2.2s-6.8-0.8-9.1-2.2c-2.3-1.3-3.7-3.1-3.7-5.1
	s1.4-3.8,3.7-5.1c2.3-1.3,5.5-2.2,9.1-2.2s6.8,0.8,9.1,2.2C171.4,78.7,172.8,80.6,172.8,82.5z"/>
</svg>
