<svg width="20" height="20" viewBox="0 0 20 20" fill="none" xmlns="http://www.w3.org/2000/svg">
<path d="M13.0018 8.00071C13.0018 6.93966 12.5803 5.92206 11.83 5.17178C11.0797 4.4215 10.0621 4 9.00106 4C7.94001 4 6.92241 4.4215 6.17214 5.17178C5.42186 5.92206 5.00035 6.93966 5.00035 8.00071C5.00035 12.6682 3 14.0018 3 14.0018H15.0021C15.0021 14.0018 13.0018 12.6682 13.0018 8.00071Z" fill="white" fill-opacity="0.4" stroke="#BEBEBE" stroke-width="1.5" stroke-linecap="round" stroke-linejoin="round"/>
<path d="M10.1543 17.0018C10.037 17.2039 9.86878 17.3716 9.66634 17.4882C9.46389 17.6048 9.23436 17.6662 9.00074 17.6662C8.76711 17.6662 8.53758 17.6048 8.33513 17.4882C8.13269 17.3716 7.96443 17.2039 7.8472 17.0018" fill="white" fill-opacity="0.4"/>
<path d="M10.1543 17.0018C10.037 17.2039 9.86878 17.3716 9.66634 17.4882C9.46389 17.6048 9.23436 17.6662 9.00074 17.6662C8.76711 17.6662 8.53758 17.6048 8.33513 17.4882C8.13269 17.3716 7.96443 17.2039 7.8472 17.0018" stroke="#BEBEBE" stroke-width="1.5" stroke-linecap="round" stroke-linejoin="round"/>
</svg>
