<svg width="17" height="14" viewBox="0 0 17 14" fill="none" xmlns="http://www.w3.org/2000/svg">
<path d="M15.6891 1.2377C15.2738 0.845314 14.7806 0.534045 14.2377 0.321676C13.6949 0.109307 13.1131 0 12.5255 0C11.9379 0 11.3561 0.109307 10.8133 0.321676C10.2704 0.534045 9.77724 0.845314 9.36186 1.2377L8.49978 2.05166L7.63771 1.2377C6.79866 0.445478 5.66066 0.000410637 4.47407 0.000410646C3.28747 0.000410654 2.14947 0.445478 1.31042 1.2377C0.471374 2.02993 8.84083e-09 3.10441 0 4.22479C-8.84083e-09 5.34516 0.471374 6.41965 1.31042 7.21187L2.1725 8.02583L8.49978 14L14.8271 8.02583L15.6891 7.21187C16.1047 6.81967 16.4344 6.354 16.6593 5.84146C16.8842 5.32893 17 4.77958 17 4.22479C17 3.67 16.8842 3.12064 16.6593 2.60811C16.4344 2.09558 16.1047 1.6299 15.6891 1.2377Z" fill="#FF8989"/>
</svg>
