<svg viewBox="0 0 35 35" xmlns="http://www.w3.org/2000/svg"><g fill="none" fill-rule="nonzero"><path d="M3 1a2 2 0 0 0-2 2v29a2 2 0 0 0 2 2h29a2 2 0 0 0 2-2V3a2 2 0 0 0-2-2H3z" stroke="#5A5A5A" stroke-width="2" fill="#5A5A5A"/><g transform="translate(6 11)" stroke="#FFF" stroke-width="3"><path d="M11.701 13.666c4.308 0 8.209-2.167 11.701-6.5C19.91 2.832 16.01.665 11.702.665c-4.31 0-8.21 2.167-11.702 6.5 3.493 4.334 7.393 6.501 11.701 6.501z"/><circle cx="11.701" cy="7.166" r="5.2"/></g></g></svg>