<svg width="350" height="450" viewBox="0 0 350 450" fill="none" xmlns="http://www.w3.org/2000/svg">
<rect width="350" height="450" rx="5" fill="white"/>
<path d="M58.5401 327V304.896H51.0881V301.8H69.7721V304.896H62.3561V327H58.5401ZM76.3995 327.432C74.8875 327.432 73.6395 327.18 72.6555 326.676C71.6715 326.172 70.9395 325.512 70.4595 324.696C69.9795 323.856 69.7395 322.944 69.7395 321.96C69.7395 320.232 70.4115 318.864 71.7555 317.856C73.0995 316.848 75.0195 316.344 77.5155 316.344H82.1955V316.02C82.1955 314.628 81.8115 313.584 81.0435 312.888C80.2995 312.192 79.3275 311.844 78.1275 311.844C77.0715 311.844 76.1475 312.108 75.3555 312.636C74.5875 313.14 74.1195 313.896 73.9515 314.904H70.1355C70.2555 313.608 70.6875 312.504 71.4315 311.592C72.1995 310.656 73.1595 309.948 74.3115 309.468C75.4875 308.964 76.7715 308.712 78.1635 308.712C80.6595 308.712 82.5915 309.372 83.9595 310.692C85.3275 311.988 86.0115 313.764 86.0115 316.02V327H82.6995L82.3755 323.94C81.8715 324.924 81.1395 325.752 80.1795 326.424C79.2195 327.096 77.9595 327.432 76.3995 327.432ZM77.1555 324.336C78.1875 324.336 79.0515 324.096 79.7475 323.616C80.4675 323.112 81.0195 322.452 81.4035 321.636C81.8115 320.82 82.0635 319.92 82.1595 318.936H77.9115C76.3995 318.936 75.3195 319.2 74.6715 319.728C74.0475 320.256 73.7355 320.916 73.7355 321.708C73.7355 322.524 74.0355 323.172 74.6355 323.652C75.2595 324.108 76.0995 324.336 77.1555 324.336ZM90.4608 327V301.08H94.2768V316.524L101.117 309.144H105.689L98.0928 317.244L106.805 327H101.981L94.2768 317.856V327H90.4608ZM116.743 327.432C114.991 327.432 113.431 327.048 112.063 326.28C110.719 325.488 109.663 324.396 108.895 323.004C108.127 321.612 107.743 319.992 107.743 318.144C107.743 316.272 108.115 314.628 108.859 313.212C109.627 311.796 110.683 310.692 112.027 309.9C113.395 309.108 114.979 308.712 116.779 308.712C118.531 308.712 120.055 309.108 121.351 309.9C122.647 310.668 123.655 311.7 124.375 312.996C125.095 314.292 125.455 315.72 125.455 317.28C125.455 317.52 125.443 317.784 125.419 318.072C125.419 318.336 125.407 318.636 125.383 318.972H111.487C111.607 320.7 112.171 322.02 113.179 322.932C114.211 323.82 115.399 324.264 116.743 324.264C117.823 324.264 118.723 324.024 119.443 323.544C120.187 323.04 120.739 322.368 121.099 321.528H124.915C124.435 323.208 123.475 324.612 122.035 325.74C120.619 326.868 118.855 327.432 116.743 327.432ZM116.743 311.844C115.471 311.844 114.343 312.228 113.359 312.996C112.375 313.74 111.775 314.868 111.559 316.38H121.639C121.567 314.988 121.075 313.884 120.163 313.068C119.251 312.252 118.111 311.844 116.743 311.844ZM146.944 327.432C145.192 327.432 143.62 327.036 142.228 326.244C140.86 325.452 139.78 324.36 138.988 322.968C138.22 321.552 137.836 319.92 137.836 318.072C137.836 316.224 138.22 314.604 138.988 313.212C139.78 311.796 140.86 310.692 142.228 309.9C143.62 309.108 145.192 308.712 146.944 308.712C149.152 308.712 151 309.288 152.488 310.44C154 311.592 154.972 313.152 155.404 315.12H151.408C151.168 314.136 150.64 313.368 149.824 312.816C149.008 312.264 148.048 311.988 146.944 311.988C146.008 311.988 145.144 312.228 144.352 312.708C143.56 313.164 142.924 313.848 142.444 314.76C141.964 315.648 141.724 316.752 141.724 318.072C141.724 319.392 141.964 320.508 142.444 321.42C142.924 322.308 143.56 322.992 144.352 323.472C145.144 323.952 146.008 324.192 146.944 324.192C148.048 324.192 149.008 323.916 149.824 323.364C150.64 322.812 151.168 322.032 151.408 321.024H155.404C154.996 322.944 154.036 324.492 152.524 325.668C151.012 326.844 149.152 327.432 146.944 327.432ZM167.895 327.432C166.191 327.432 164.655 327.048 163.287 326.28C161.943 325.488 160.875 324.396 160.083 323.004C159.291 321.588 158.895 319.944 158.895 318.072C158.895 316.2 159.291 314.568 160.083 313.176C160.899 311.76 161.991 310.668 163.359 309.9C164.727 309.108 166.251 308.712 167.931 308.712C169.635 308.712 171.159 309.108 172.503 309.9C173.871 310.668 174.951 311.76 175.743 313.176C176.559 314.568 176.967 316.2 176.967 318.072C176.967 319.944 176.559 321.588 175.743 323.004C174.951 324.396 173.871 325.488 172.503 326.28C171.135 327.048 169.599 327.432 167.895 327.432ZM167.895 324.156C168.807 324.156 169.647 323.928 170.415 323.472C171.207 323.016 171.843 322.344 172.323 321.456C172.803 320.544 173.043 319.416 173.043 318.072C173.043 316.728 172.803 315.612 172.323 314.724C171.867 313.812 171.243 313.128 170.451 312.672C169.683 312.216 168.843 311.988 167.931 311.988C167.019 311.988 166.167 312.216 165.375 312.672C164.607 313.128 163.983 313.812 163.503 314.724C163.023 315.612 162.783 316.728 162.783 318.072C162.783 319.416 163.023 320.544 163.503 321.456C163.983 322.344 164.607 323.016 165.375 323.472C166.143 323.928 166.983 324.156 167.895 324.156ZM181.094 327V309.144H184.478L184.766 312.276C185.318 311.172 186.122 310.308 187.178 309.684C188.258 309.036 189.494 308.712 190.886 308.712C193.046 308.712 194.738 309.384 195.962 310.728C197.21 312.072 197.834 314.076 197.834 316.74V327H194.054V317.136C194.054 313.68 192.638 311.952 189.806 311.952C188.39 311.952 187.214 312.456 186.278 313.464C185.366 314.472 184.91 315.912 184.91 317.784V327H181.094ZM209.816 327C208.064 327 206.672 326.58 205.64 325.74C204.608 324.876 204.092 323.352 204.092 321.168V312.348H201.032V309.144H204.092L204.56 304.608H207.908V309.144H212.948V312.348H207.908V321.168C207.908 322.152 208.112 322.836 208.52 323.22C208.952 323.58 209.684 323.76 210.716 323.76H212.768V327H209.816ZM216.883 327V309.144H220.303L220.627 312.528C221.251 311.352 222.115 310.428 223.219 309.756C224.347 309.06 225.703 308.712 227.287 308.712V312.708H226.243C225.187 312.708 224.239 312.888 223.399 313.248C222.583 313.584 221.923 314.172 221.419 315.012C220.939 315.828 220.699 316.968 220.699 318.432V327H216.883ZM238.418 327.432C236.714 327.432 235.178 327.048 233.81 326.28C232.466 325.488 231.398 324.396 230.606 323.004C229.814 321.588 229.418 319.944 229.418 318.072C229.418 316.2 229.814 314.568 230.606 313.176C231.422 311.76 232.514 310.668 233.882 309.9C235.25 309.108 236.774 308.712 238.454 308.712C240.158 308.712 241.682 309.108 243.026 309.9C244.394 310.668 245.474 311.76 246.266 313.176C247.082 314.568 247.49 316.2 247.49 318.072C247.49 319.944 247.082 321.588 246.266 323.004C245.474 324.396 244.394 325.488 243.026 326.28C241.658 327.048 240.122 327.432 238.418 327.432ZM238.418 324.156C239.33 324.156 240.17 323.928 240.938 323.472C241.73 323.016 242.366 322.344 242.846 321.456C243.326 320.544 243.566 319.416 243.566 318.072C243.566 316.728 243.326 315.612 242.846 314.724C242.39 313.812 241.766 313.128 240.974 312.672C240.206 312.216 239.366 311.988 238.454 311.988C237.542 311.988 236.69 312.216 235.898 312.672C235.13 313.128 234.506 313.812 234.026 314.724C233.546 315.612 233.306 316.728 233.306 318.072C233.306 319.416 233.546 320.544 234.026 321.456C234.506 322.344 235.13 323.016 235.898 323.472C236.666 323.928 237.506 324.156 238.418 324.156ZM251.617 327V301.08H255.433V327H251.617ZM277.688 327.432C275.984 327.432 274.448 327.048 273.08 326.28C271.736 325.488 270.668 324.396 269.876 323.004C269.084 321.588 268.688 319.944 268.688 318.072C268.688 316.2 269.084 314.568 269.876 313.176C270.692 311.76 271.784 310.668 273.152 309.9C274.52 309.108 276.044 308.712 277.724 308.712C279.428 308.712 280.952 309.108 282.296 309.9C283.664 310.668 284.744 311.76 285.536 313.176C286.352 314.568 286.76 316.2 286.76 318.072C286.76 319.944 286.352 321.588 285.536 323.004C284.744 324.396 283.664 325.488 282.296 326.28C280.928 327.048 279.392 327.432 277.688 327.432ZM277.688 324.156C278.6 324.156 279.44 323.928 280.208 323.472C281 323.016 281.636 322.344 282.116 321.456C282.596 320.544 282.836 319.416 282.836 318.072C282.836 316.728 282.596 315.612 282.116 314.724C281.66 313.812 281.036 313.128 280.244 312.672C279.476 312.216 278.636 311.988 277.724 311.988C276.812 311.988 275.96 312.216 275.168 312.672C274.4 313.128 273.776 313.812 273.296 314.724C272.816 315.612 272.576 316.728 272.576 318.072C272.576 319.416 272.816 320.544 273.296 321.456C273.776 322.344 274.4 323.016 275.168 323.472C275.936 323.928 276.776 324.156 277.688 324.156ZM291.787 327V312.348H289.231V309.144H291.787V306.552C291.787 304.608 292.267 303.216 293.227 302.376C294.211 301.512 295.591 301.08 297.367 301.08H299.239V304.32H297.943C297.103 304.32 296.503 304.5 296.143 304.86C295.783 305.196 295.603 305.772 295.603 306.588V309.144H299.707V312.348H295.603V327H291.787ZM145.647 374.432C143.391 374.432 141.531 373.88 140.067 372.776C138.603 371.672 137.763 370.208 137.547 368.384H141.399C141.591 369.2 142.047 369.908 142.767 370.508C143.487 371.084 144.435 371.372 145.611 371.372C146.763 371.372 147.603 371.132 148.131 370.652C148.659 370.172 148.923 369.62 148.923 368.996C148.923 368.084 148.551 367.472 147.807 367.16C147.087 366.824 146.079 366.524 144.783 366.26C143.775 366.044 142.767 365.756 141.759 365.396C140.775 365.036 139.947 364.532 139.275 363.884C138.627 363.212 138.303 362.312 138.303 361.184C138.303 359.624 138.903 358.328 140.103 357.296C141.303 356.24 142.983 355.712 145.143 355.712C147.135 355.712 148.743 356.192 149.967 357.152C151.215 358.112 151.947 359.468 152.163 361.22H148.491C148.371 360.452 148.011 359.852 147.411 359.42C146.835 358.988 146.055 358.772 145.071 358.772C144.111 358.772 143.367 358.976 142.839 359.384C142.311 359.768 142.047 360.272 142.047 360.896C142.047 361.52 142.407 362.012 143.127 362.372C143.871 362.732 144.843 363.056 146.043 363.344C147.243 363.608 148.347 363.92 149.355 364.28C150.387 364.616 151.215 365.12 151.839 365.792C152.463 366.464 152.775 367.448 152.775 368.744C152.799 370.376 152.163 371.732 150.867 372.812C149.595 373.892 147.855 374.432 145.647 374.432ZM165.401 374.432C163.649 374.432 162.077 374.036 160.685 373.244C159.317 372.452 158.237 371.36 157.445 369.968C156.677 368.552 156.293 366.92 156.293 365.072C156.293 363.224 156.677 361.604 157.445 360.212C158.237 358.796 159.317 357.692 160.685 356.9C162.077 356.108 163.649 355.712 165.401 355.712C167.609 355.712 169.457 356.288 170.945 357.44C172.457 358.592 173.429 360.152 173.861 362.12H169.865C169.625 361.136 169.097 360.368 168.281 359.816C167.465 359.264 166.505 358.988 165.401 358.988C164.465 358.988 163.601 359.228 162.809 359.708C162.017 360.164 161.381 360.848 160.901 361.76C160.421 362.648 160.181 363.752 160.181 365.072C160.181 366.392 160.421 367.508 160.901 368.42C161.381 369.308 162.017 369.992 162.809 370.472C163.601 370.952 164.465 371.192 165.401 371.192C166.505 371.192 167.465 370.916 168.281 370.364C169.097 369.812 169.625 369.032 169.865 368.024H173.861C173.453 369.944 172.493 371.492 170.981 372.668C169.469 373.844 167.609 374.432 165.401 374.432ZM178 374V348.08H181.816V359.024C182.416 357.992 183.244 357.188 184.3 356.612C185.38 356.012 186.568 355.712 187.864 355.712C190 355.712 191.68 356.384 192.904 357.728C194.128 359.072 194.74 361.076 194.74 363.74V374H190.96V364.136C190.96 360.68 189.58 358.952 186.82 358.952C185.38 358.952 184.18 359.456 183.22 360.464C182.284 361.472 181.816 362.912 181.816 364.784V374H178ZM207.586 374.432C205.834 374.432 204.274 374.048 202.906 373.28C201.562 372.488 200.506 371.396 199.738 370.004C198.97 368.612 198.586 366.992 198.586 365.144C198.586 363.272 198.958 361.628 199.702 360.212C200.47 358.796 201.526 357.692 202.87 356.9C204.238 356.108 205.822 355.712 207.622 355.712C209.374 355.712 210.898 356.108 212.194 356.9C213.49 357.668 214.498 358.7 215.218 359.996C215.938 361.292 216.298 362.72 216.298 364.28C216.298 364.52 216.286 364.784 216.262 365.072C216.262 365.336 216.25 365.636 216.226 365.972H202.33C202.45 367.7 203.014 369.02 204.022 369.932C205.054 370.82 206.242 371.264 207.586 371.264C208.666 371.264 209.566 371.024 210.286 370.544C211.03 370.04 211.582 369.368 211.942 368.528H215.758C215.278 370.208 214.318 371.612 212.878 372.74C211.462 373.868 209.698 374.432 207.586 374.432ZM207.586 358.844C206.314 358.844 205.186 359.228 204.202 359.996C203.218 360.74 202.618 361.868 202.402 363.38H212.482C212.41 361.988 211.918 360.884 211.006 360.068C210.094 359.252 208.954 358.844 207.586 358.844ZM228.394 374.432C226.666 374.432 225.142 374.024 223.822 373.208C222.502 372.392 221.47 371.276 220.726 369.86C219.982 368.444 219.61 366.836 219.61 365.036C219.61 363.236 219.982 361.64 220.726 360.248C221.47 358.832 222.502 357.728 223.822 356.936C225.166 356.12 226.702 355.712 228.43 355.712C229.846 355.712 231.082 355.988 232.138 356.54C233.218 357.092 234.058 357.872 234.658 358.88V348.08H238.474V374H235.054L234.658 371.228C234.082 372.068 233.29 372.812 232.282 373.46C231.274 374.108 229.978 374.432 228.394 374.432ZM229.078 371.12C230.71 371.12 232.042 370.556 233.074 369.428C234.13 368.3 234.658 366.848 234.658 365.072C234.658 363.272 234.13 361.82 233.074 360.716C232.042 359.588 230.71 359.024 229.078 359.024C227.446 359.024 226.102 359.588 225.046 360.716C223.99 361.82 223.462 363.272 223.462 365.072C223.462 366.248 223.702 367.292 224.182 368.204C224.662 369.116 225.322 369.836 226.162 370.364C227.026 370.868 227.998 371.12 229.078 371.12ZM259.701 356.144V374H256.317L256.029 370.868C255.477 371.972 254.661 372.848 253.581 373.496C252.525 374.12 251.301 374.432 249.909 374.432C247.749 374.432 246.045 373.76 244.797 372.416C243.573 371.072 242.961 369.068 242.961 366.404V356.144H246.741V366.008C246.741 369.464 248.157 371.192 250.989 371.192C252.405 371.192 253.569 370.688 254.481 369.68C255.417 368.672 255.885 367.232 255.885 365.36V356.144H259.701ZM264.519 374V348.08H268.335V374H264.519ZM281.52 374.432C279.768 374.432 278.208 374.048 276.84 373.28C275.496 372.488 274.44 371.396 273.672 370.004C272.904 368.612 272.52 366.992 272.52 365.144C272.52 363.272 272.892 361.628 273.636 360.212C274.404 358.796 275.46 357.692 276.804 356.9C278.172 356.108 279.756 355.712 281.556 355.712C283.308 355.712 284.832 356.108 286.128 356.9C287.424 357.668 288.432 358.7 289.152 359.996C289.872 361.292 290.232 362.72 290.232 364.28C290.232 364.52 290.22 364.784 290.196 365.072C290.196 365.336 290.184 365.636 290.16 365.972H276.264C276.384 367.7 276.948 369.02 277.956 369.932C278.988 370.82 280.176 371.264 281.52 371.264C282.6 371.264 283.5 371.024 284.22 370.544C284.964 370.04 285.516 369.368 285.876 368.528H289.692C289.212 370.208 288.252 371.612 286.812 372.74C285.396 373.868 283.632 374.432 281.52 374.432ZM281.52 358.844C280.248 358.844 279.12 359.228 278.136 359.996C277.152 360.74 276.552 361.868 276.336 363.38H286.416C286.344 361.988 285.852 360.884 284.94 360.068C284.028 359.252 282.888 358.844 281.52 358.844ZM295.703 374.216C294.983 374.216 294.383 373.988 293.903 373.532C293.447 373.052 293.219 372.488 293.219 371.84C293.219 371.168 293.447 370.604 293.903 370.148C294.383 369.668 294.983 369.428 295.703 369.428C296.423 369.428 297.011 369.668 297.467 370.148C297.923 370.604 298.151 371.168 298.151 371.84C298.151 372.488 297.923 373.052 297.467 373.532C297.011 373.988 296.423 374.216 295.703 374.216Z" fill="black"/>
<path d="M55.916 381.92L60.2 372.524H59.156L52.1 356.144H56.24L61.712 369.356L67.436 356.144H71.468L59.948 381.92H55.916ZM81.3402 374.432C79.6362 374.432 78.1002 374.048 76.7322 373.28C75.3882 372.488 74.3202 371.396 73.5282 370.004C72.7362 368.588 72.3402 366.944 72.3402 365.072C72.3402 363.2 72.7362 361.568 73.5282 360.176C74.3442 358.76 75.4362 357.668 76.8042 356.9C78.1722 356.108 79.6962 355.712 81.3762 355.712C83.0802 355.712 84.6042 356.108 85.9482 356.9C87.3162 357.668 88.3962 358.76 89.1882 360.176C90.0042 361.568 90.4122 363.2 90.4122 365.072C90.4122 366.944 90.0042 368.588 89.1882 370.004C88.3962 371.396 87.3162 372.488 85.9482 373.28C84.5802 374.048 83.0442 374.432 81.3402 374.432ZM81.3402 371.156C82.2522 371.156 83.0922 370.928 83.8602 370.472C84.6522 370.016 85.2882 369.344 85.7682 368.456C86.2482 367.544 86.4882 366.416 86.4882 365.072C86.4882 363.728 86.2482 362.612 85.7682 361.724C85.3122 360.812 84.6882 360.128 83.8962 359.672C83.1282 359.216 82.2882 358.988 81.3762 358.988C80.4642 358.988 79.6122 359.216 78.8202 359.672C78.0522 360.128 77.4282 360.812 76.9482 361.724C76.4682 362.612 76.2282 363.728 76.2282 365.072C76.2282 366.416 76.4682 367.544 76.9482 368.456C77.4282 369.344 78.0522 370.016 78.8202 370.472C79.5882 370.928 80.4282 371.156 81.3402 371.156ZM110.955 356.144V374H107.571L107.283 370.868C106.731 371.972 105.915 372.848 104.835 373.496C103.779 374.12 102.555 374.432 101.163 374.432C99.003 374.432 97.299 373.76 96.051 372.416C94.827 371.072 94.215 369.068 94.215 366.404V356.144H97.995V366.008C97.995 369.464 99.411 371.192 102.243 371.192C103.659 371.192 104.823 370.688 105.735 369.68C106.671 368.672 107.139 367.232 107.139 365.36V356.144H110.955ZM115.773 374V356.144H119.193L119.517 359.528C120.141 358.352 121.005 357.428 122.109 356.756C123.237 356.06 124.593 355.712 126.177 355.712V359.708H125.133C124.077 359.708 123.129 359.888 122.289 360.248C121.473 360.584 120.813 361.172 120.309 362.012C119.829 362.828 119.589 363.968 119.589 365.432V374H115.773Z" fill="#7FBDFF"/>
<rect x="69" y="29" width="200" height="200" rx="100" fill="#6FCF97"/>
<rect x="99" y="61" width="140" height="140" fill="white"/>
<rect x="109" y="89" width="120" height="24" fill="#F2F2F2"/>
<rect x="109" y="141" width="120" height="24" fill="#F2F2F2"/>
<rect x="109" y="167" width="120" height="24" fill="#F2F2F2"/>
<g filter="url(#filter0_d)">
<rect x="99" y="61" width="140" height="26" fill="#EB5757"/>
</g>
<g filter="url(#filter1_d)">
<rect x="111" y="113" width="24" height="28.8" fill="#56CCF2"/>
</g>
<g filter="url(#filter2_d)">
<rect x="157" y="113" width="24" height="28.8" fill="#56CCF2"/>
</g>
<g filter="url(#filter3_d)">
<rect x="203" y="113" width="24" height="28.8" fill="#56CCF2"/>
</g>
<rect x="221" y="70" width="8" height="8" fill="#F2C94C"/>
<rect x="109" y="70" width="8" height="8" fill="#F2C94C"/>
<path d="M245.909 180.818L253.182 188.091L245.909 195.364" stroke="#333333" stroke-width="2" stroke-linecap="round" stroke-linejoin="round"/>
<path d="M220.455 199V195.364C220.455 193.435 221.221 191.585 222.585 190.221C223.949 188.857 225.798 188.091 227.727 188.091H253.182" stroke="#333333" stroke-width="2" stroke-linecap="round" stroke-linejoin="round"/>
<path d="M227.727 220.818L220.455 213.545L227.727 206.273" stroke="#333333" stroke-width="2" stroke-linecap="round" stroke-linejoin="round"/>
<path d="M253.182 202.636V206.273C253.182 208.202 252.416 210.052 251.052 211.415C249.688 212.779 247.838 213.546 245.909 213.546H220.455" stroke="#333333" stroke-width="2" stroke-linecap="round" stroke-linejoin="round"/>
<defs>
<filter id="filter0_d" x="96" y="59" width="146" height="32" filterUnits="userSpaceOnUse" color-interpolation-filters="sRGB">
<feFlood flood-opacity="0" result="BackgroundImageFix"/>
<feColorMatrix in="SourceAlpha" type="matrix" values="0 0 0 0 0 0 0 0 0 0 0 0 0 0 0 0 0 0 127 0"/>
<feOffset dy="1"/>
<feGaussianBlur stdDeviation="1.5"/>
<feColorMatrix type="matrix" values="0 0 0 0 0 0 0 0 0 0 0 0 0 0 0 0 0 0 0.12 0"/>
<feBlend mode="normal" in2="BackgroundImageFix" result="effect1_dropShadow"/>
<feBlend mode="normal" in="SourceGraphic" in2="effect1_dropShadow" result="shape"/>
</filter>
<filter id="filter1_d" x="109" y="111" width="28" height="32.8" filterUnits="userSpaceOnUse" color-interpolation-filters="sRGB">
<feFlood flood-opacity="0" result="BackgroundImageFix"/>
<feColorMatrix in="SourceAlpha" type="matrix" values="0 0 0 0 0 0 0 0 0 0 0 0 0 0 0 0 0 0 127 0"/>
<feOffset/>
<feGaussianBlur stdDeviation="1"/>
<feColorMatrix type="matrix" values="0 0 0 0 0 0 0 0 0 0 0 0 0 0 0 0 0 0 0.15 0"/>
<feBlend mode="normal" in2="BackgroundImageFix" result="effect1_dropShadow"/>
<feBlend mode="normal" in="SourceGraphic" in2="effect1_dropShadow" result="shape"/>
</filter>
<filter id="filter2_d" x="155" y="111" width="28" height="32.8" filterUnits="userSpaceOnUse" color-interpolation-filters="sRGB">
<feFlood flood-opacity="0" result="BackgroundImageFix"/>
<feColorMatrix in="SourceAlpha" type="matrix" values="0 0 0 0 0 0 0 0 0 0 0 0 0 0 0 0 0 0 127 0"/>
<feOffset/>
<feGaussianBlur stdDeviation="1"/>
<feColorMatrix type="matrix" values="0 0 0 0 0 0 0 0 0 0 0 0 0 0 0 0 0 0 0.15 0"/>
<feBlend mode="normal" in2="BackgroundImageFix" result="effect1_dropShadow"/>
<feBlend mode="normal" in="SourceGraphic" in2="effect1_dropShadow" result="shape"/>
</filter>
<filter id="filter3_d" x="201" y="111" width="28" height="32.8" filterUnits="userSpaceOnUse" color-interpolation-filters="sRGB">
<feFlood flood-opacity="0" result="BackgroundImageFix"/>
<feColorMatrix in="SourceAlpha" type="matrix" values="0 0 0 0 0 0 0 0 0 0 0 0 0 0 0 0 0 0 127 0"/>
<feOffset/>
<feGaussianBlur stdDeviation="1"/>
<feColorMatrix type="matrix" values="0 0 0 0 0 0 0 0 0 0 0 0 0 0 0 0 0 0 0.15 0"/>
<feBlend mode="normal" in2="BackgroundImageFix" result="effect1_dropShadow"/>
<feBlend mode="normal" in="SourceGraphic" in2="effect1_dropShadow" result="shape"/>
</filter>
</defs>
</svg>
