<svg xmlns="http://www.w3.org/2000/svg" style="isolation:isolate" viewBox="0 0 49 49"><defs><clipPath id="hide_svg__a"><path d="M0 0h49v49H0z"/></clipPath></defs><g clip-path="url(#hide_svg__a)"><mask id="hide_svg__b" x="-200%" y="-200%" width="400%" height="400%"><rect x="-200%" y="-200%" width="400%" height="400%" fill="#fff"/><path d="M10 8a2 2 0 0 0-2 2v29a2 2 0 0 0 2 2h29a2 2 0 0 0 2-2V10a2 2 0 0 0-2-2H10z"/></mask><path d="M10 8a2 2 0 0 0-2 2v29a2 2 0 0 0 2 2h29a2 2 0 0 0 2-2V10a2 2 0 0 0-2-2H10z" fill="none" mask="url(#hide_svg__b)" vector-effect="non-scaling-stroke" stroke-width="4" stroke="#5A5A5A"/><mask id="hide_svg__c" x="-200%" y="-200%" width="400%" height="400%"><rect x="-200%" y="-200%" width="400%" height="400%" fill="#fff"/><path d="M24.572 31.666c4.308 0 8.208-2.167 11.701-6.5-3.493-4.334-7.393-6.501-11.701-6.501-4.309 0-8.209 2.167-11.702 6.501 3.493 4.333 7.393 6.5 11.702 6.5z"/></mask><path d="M24.572 31.666c4.308 0 8.208-2.167 11.701-6.5-3.493-4.334-7.393-6.501-11.701-6.501-4.309 0-8.209 2.167-11.702 6.501 3.493 4.333 7.393 6.5 11.702 6.5z" fill="none" mask="url(#hide_svg__c)" vector-effect="non-scaling-stroke" stroke-width="6" stroke="#5A5A5A"/><circle vector-effect="non-scaling-stroke" cx="24.572" cy="25.166" r="5.2" fill="none" stroke-width="3" stroke="#5A5A5A"/><mask id="hide_svg__d" x="-200%" y="-200%" width="400%" height="400%"><rect x="-200%" y="-200%" width="400%" height="400%" fill="#fff"/><path d="M12.421 12.421l24.158 24.158"/></mask><path mask="url(#hide_svg__d)" vector-effect="non-scaling-stroke" stroke-width="4" stroke="#5A5A5A" stroke-linejoin="round" d="M12.421 12.421l24.158 24.158"/></g></svg>