<svg width="50" height="50" viewBox="0 0 50 50" fill="none" xmlns="http://www.w3.org/2000/svg">
<circle cx="25" cy="25" r="25" fill="#7FBDFF"/>
<path d="M13.0938 33.9531C13.0938 34.5312 12.8958 34.9766 12.5 35.2891C12.1068 35.599 11.543 35.7539 10.8086 35.7539H10.1367V38H9.47266V32.2891H10.9531C12.3802 32.2891 13.0938 32.8438 13.0938 33.9531ZM10.1367 35.1836H10.7344C11.3229 35.1836 11.7487 35.0885 12.0117 34.8984C12.2747 34.7083 12.4062 34.4036 12.4062 33.9844C12.4062 33.6068 12.2826 33.3255 12.0352 33.1406C11.7878 32.9557 11.4023 32.8633 10.8789 32.8633H10.1367V35.1836ZM16.0039 38.0781C15.3711 38.0781 14.8711 37.8854 14.5039 37.5C14.1393 37.1146 13.957 36.5794 13.957 35.8945C13.957 35.2044 14.1263 34.6562 14.4648 34.25C14.806 33.8438 15.263 33.6406 15.8359 33.6406C16.3724 33.6406 16.7969 33.8177 17.1094 34.1719C17.4219 34.5234 17.5781 34.9883 17.5781 35.5664V35.9766H14.6289C14.6419 36.4792 14.7682 36.8607 15.0078 37.1211C15.25 37.3815 15.5898 37.5117 16.0273 37.5117C16.4883 37.5117 16.944 37.4154 17.3945 37.2227V37.8008C17.1654 37.8997 16.9479 37.9701 16.7422 38.0117C16.5391 38.056 16.293 38.0781 16.0039 38.0781ZM15.8281 34.1836C15.4844 34.1836 15.2096 34.2956 15.0039 34.5195C14.8008 34.7435 14.681 35.0534 14.6445 35.4492H16.8828C16.8828 35.0404 16.7917 34.7279 16.6094 34.5117C16.4271 34.293 16.1667 34.1836 15.8281 34.1836ZM20.6406 33.6406C20.8307 33.6406 21.0013 33.6562 21.1523 33.6875L21.0625 34.2891C20.8854 34.25 20.7292 34.2305 20.5938 34.2305C20.2474 34.2305 19.9505 34.3711 19.7031 34.6523C19.4583 34.9336 19.3359 35.2839 19.3359 35.7031V38H18.6875V33.7188H19.2227L19.2969 34.5117H19.3281C19.487 34.2331 19.6784 34.0182 19.9023 33.8672C20.1263 33.7161 20.3724 33.6406 20.6406 33.6406ZM24.7148 36.832C24.7148 37.2305 24.5664 37.5378 24.2695 37.7539C23.9727 37.9701 23.556 38.0781 23.0195 38.0781C22.4518 38.0781 22.0091 37.9883 21.6914 37.8086V37.207C21.8971 37.3112 22.1172 37.3932 22.3516 37.4531C22.5885 37.513 22.8164 37.543 23.0352 37.543C23.3737 37.543 23.6341 37.4896 23.8164 37.3828C23.9987 37.2734 24.0898 37.1081 24.0898 36.8867C24.0898 36.7201 24.0169 36.5781 23.8711 36.4609C23.7279 36.3411 23.4466 36.2005 23.0273 36.0391C22.6289 35.8906 22.3451 35.7617 22.1758 35.6523C22.0091 35.5404 21.8841 35.4141 21.8008 35.2734C21.7201 35.1328 21.6797 34.9648 21.6797 34.7695C21.6797 34.4206 21.8216 34.1458 22.1055 33.9453C22.3893 33.7422 22.7786 33.6406 23.2734 33.6406C23.7344 33.6406 24.1849 33.7344 24.625 33.9219L24.3945 34.4492C23.9648 34.2721 23.5755 34.1836 23.2266 34.1836C22.9193 34.1836 22.6875 34.2318 22.5312 34.3281C22.375 34.4245 22.2969 34.5573 22.2969 34.7266C22.2969 34.8411 22.3255 34.9388 22.3828 35.0195C22.4427 35.1003 22.5378 35.1771 22.668 35.25C22.7982 35.3229 23.0482 35.4284 23.418 35.5664C23.9258 35.7513 24.2682 35.9375 24.4453 36.125C24.625 36.3125 24.7148 36.5482 24.7148 36.832ZM29.4688 35.8555C29.4688 36.5534 29.293 37.099 28.9414 37.4922C28.5898 37.8828 28.1042 38.0781 27.4844 38.0781C27.1016 38.0781 26.7617 37.9883 26.4648 37.8086C26.168 37.6289 25.9388 37.3711 25.7773 37.0352C25.6159 36.6992 25.5352 36.306 25.5352 35.8555C25.5352 35.1576 25.7096 34.6146 26.0586 34.2266C26.4076 33.8359 26.8919 33.6406 27.5117 33.6406C28.1107 33.6406 28.5859 33.8398 28.9375 34.2383C29.2917 34.6367 29.4688 35.1758 29.4688 35.8555ZM26.207 35.8555C26.207 36.4023 26.3164 36.819 26.5352 37.1055C26.7539 37.3919 27.0755 37.5352 27.5 37.5352C27.9245 37.5352 28.2461 37.3932 28.4648 37.1094C28.6862 36.8229 28.7969 36.4049 28.7969 35.8555C28.7969 35.3112 28.6862 34.8984 28.4648 34.6172C28.2461 34.3333 27.9219 34.1914 27.4922 34.1914C27.0677 34.1914 26.7474 34.3307 26.5312 34.6094C26.3151 34.888 26.207 35.3034 26.207 35.8555ZM33.5391 38V35.2305C33.5391 34.8815 33.4596 34.6211 33.3008 34.4492C33.1419 34.2773 32.8932 34.1914 32.5547 34.1914C32.1068 34.1914 31.7786 34.3125 31.5703 34.5547C31.362 34.7969 31.2578 35.1966 31.2578 35.7539V38H30.6094V33.7188H31.1367L31.2422 34.3047H31.2734C31.4062 34.0938 31.5924 33.931 31.832 33.8164C32.0716 33.6992 32.3385 33.6406 32.6328 33.6406C33.1484 33.6406 33.5365 33.7656 33.7969 34.0156C34.0573 34.263 34.1875 34.6602 34.1875 35.207V38H33.5391ZM38.1562 38L38.0273 37.3906H37.9961C37.7826 37.6589 37.569 37.8411 37.3555 37.9375C37.1445 38.0312 36.8802 38.0781 36.5625 38.0781C36.138 38.0781 35.8047 37.9688 35.5625 37.75C35.3229 37.5312 35.2031 37.2201 35.2031 36.8164C35.2031 35.9518 35.8945 35.4987 37.2773 35.457L38.0039 35.4336V35.168C38.0039 34.832 37.931 34.5846 37.7852 34.4258C37.6419 34.2643 37.4115 34.1836 37.0938 34.1836C36.737 34.1836 36.3333 34.293 35.8828 34.5117L35.6836 34.0156C35.8945 33.901 36.125 33.8112 36.375 33.7461C36.6276 33.681 36.8802 33.6484 37.1328 33.6484C37.6432 33.6484 38.0208 33.7617 38.2656 33.9883C38.513 34.2148 38.6367 34.5781 38.6367 35.0781V38H38.1562ZM36.6914 37.543C37.0951 37.543 37.4115 37.4323 37.6406 37.2109C37.8724 36.9896 37.9883 36.6797 37.9883 36.2812V35.8945L37.3398 35.9219C36.8242 35.9401 36.4518 36.0208 36.2227 36.1641C35.9961 36.3047 35.8828 36.5247 35.8828 36.8242C35.8828 37.0586 35.9531 37.237 36.0938 37.3594C36.237 37.4818 36.4362 37.543 36.6914 37.543ZM40.625 38H39.9766V31.9219H40.625V38Z" fill="white"/>
<rect x="30" y="12" width="5" height="17" rx="1" stroke="white" stroke-width="2"/>
<rect x="16" y="11" width="10" height="18" rx="1" stroke="white" stroke-width="2"/>
</svg>
