<?xml version="1.0" encoding="UTF-8"?>
<svg width="200px" height="200px" viewBox="0 0 36 36" version="1.1" xmlns="http://www.w3.org/2000/svg" xmlns:xlink="http://www.w3.org/1999/xlink">
    <!-- Generator: Sketch 52.4 (67378) - http://www.bohemiancoding.com/sketch -->
    <title>icon/settings</title>
    <desc>Created with Sketch.</desc>
    <g id="icon/settings" stroke="none" stroke-width="1" fill="none" fill-rule="evenodd">
        <circle id="Oval" stroke="#5A5A5A" stroke-width="3" fill-rule="nonzero" cx="18" cy="18" r="4.5"></circle>
        <path d="M1.5,15.5 L1.5,21.5 L6.47373932,21.5 L6.84999822,22.4452598 C6.9480566,22.6916078 7.0543479,22.9347168 7.16875374,23.1742069 L7.62599397,24.1313653 L4.21141777,27.5459415 L8.45405846,31.7885822 L11.8686347,28.374006 L12.8257931,28.8312463 C13.0652832,28.9456521 13.3083922,29.0519434 13.5547402,29.1500018 L14.5,29.5262607 L14.5,34.5 L20.5,34.5 L20.5,29.7904044 L21.5568667,29.463596 C22.1029867,29.2947226 22.6365178,29.086856 23.1535009,28.8411131 L24.1274021,28.3781788 L27.4999062,31.8705089 L31.815945,27.7025587 L28.3703418,24.1345321 L28.8217851,23.1939657 C28.9397966,22.9480927 29.049245,22.6983869 29.1500018,22.4452598 L29.5262607,21.5 L34.5,21.5 L34.5,15.5 L29.7904044,15.5 L29.463596,14.4431333 C29.292465,13.8897122 29.0812937,13.3492268 28.8312463,12.8257931 L28.374006,11.8686347 L31.7885822,8.45405845 L27.5459415,4.21141777 L24.1313653,7.62599397 L23.1742069,7.16875373 C22.6507732,6.91870635 22.1102878,6.707535 21.5568667,6.53640397 L20.5,6.20959556 L20.5,1.5 L14.5,1.5 L14.5,6.47373931 L13.5547402,6.84999822 C13.2817936,6.95864411 13.0128298,7.07739408 12.7483638,7.20608633 L11.7693464,7.68248758 L8.41776326,4.21182163 L4.10172445,8.37977185 L7.56920102,11.9704489 L7.13087986,12.9058405 C6.89730678,13.404293 6.69881838,13.9179009 6.53640398,14.4431333 L6.20959556,15.5 L1.5,15.5 Z" id="Combined-Shape" stroke="#5A5A5A" stroke-width="3" fill-rule="nonzero" transform="translate(18.000000, 18.000000) rotate(180.000000) translate(-18.000000, -18.000000) "></path>
    </g>
</svg>
