<svg width="38" height="38" viewBox="0 0 38 38" fill="none" xmlns="http://www.w3.org/2000/svg">
<path d="M4.27588 34.3301H1.59521L0.993164 36H0.123047L2.56641 29.6016H3.30469L5.75244 36H4.88672L4.27588 34.3301ZM1.8501 33.6357H4.02539L2.93555 30.6431L1.8501 33.6357ZM6.28857 33.583C6.28857 32.8535 6.46143 32.2676 6.80713 31.8252C7.15283 31.3799 7.60547 31.1572 8.16504 31.1572C8.72168 31.1572 9.1626 31.3477 9.48779 31.7285V29.25H10.3008V36H9.55371L9.51416 35.4902C9.18896 35.8887 8.73633 36.0879 8.15625 36.0879C7.60547 36.0879 7.15576 35.8623 6.80713 35.4111C6.46143 34.96 6.28857 34.3711 6.28857 33.6445V33.583ZM7.10156 33.6753C7.10156 34.2144 7.21289 34.6362 7.43555 34.9409C7.6582 35.2456 7.96582 35.3979 8.3584 35.3979C8.87402 35.3979 9.25049 35.1665 9.48779 34.7036V32.5195C9.24463 32.0713 8.87109 31.8472 8.36719 31.8472C7.96875 31.8472 7.6582 32.001 7.43555 32.3086C7.21289 32.6162 7.10156 33.0718 7.10156 33.6753ZM11.3687 33.583C11.3687 32.8535 11.5415 32.2676 11.8872 31.8252C12.2329 31.3799 12.6855 31.1572 13.2451 31.1572C13.8018 31.1572 14.2427 31.3477 14.5679 31.7285V29.25H15.3809V36H14.6338L14.5942 35.4902C14.269 35.8887 13.8164 36.0879 13.2363 36.0879C12.6855 36.0879 12.2358 35.8623 11.8872 35.4111C11.5415 34.96 11.3687 34.3711 11.3687 33.6445V33.583ZM12.1816 33.6753C12.1816 34.2144 12.293 34.6362 12.5156 34.9409C12.7383 35.2456 13.0459 35.3979 13.4385 35.3979C13.9541 35.3979 14.3306 35.1665 14.5679 34.7036V32.5195C14.3247 32.0713 13.9512 31.8472 13.4473 31.8472C13.0488 31.8472 12.7383 32.001 12.5156 32.3086C12.293 32.6162 12.1816 33.0718 12.1816 33.6753ZM23.2515 30.2959H21.1948V36H20.3555V30.2959H18.3032V29.6016H23.2515V30.2959ZM26.5078 36C26.4609 35.9062 26.4229 35.7393 26.3936 35.499C26.0156 35.8916 25.5645 36.0879 25.04 36.0879C24.5713 36.0879 24.186 35.9561 23.8843 35.6924C23.5854 35.4258 23.436 35.0889 23.436 34.6816C23.436 34.1865 23.6235 33.8027 23.9985 33.5303C24.3765 33.2549 24.9067 33.1172 25.5894 33.1172H26.3804V32.7437C26.3804 32.4595 26.2954 32.2339 26.1255 32.0669C25.9556 31.897 25.7051 31.812 25.374 31.812C25.084 31.812 24.8408 31.8853 24.6445 32.0317C24.4482 32.1782 24.3501 32.3555 24.3501 32.5635H23.5327C23.5327 32.3262 23.6162 32.0977 23.7832 31.8779C23.9531 31.6553 24.1816 31.4795 24.4688 31.3506C24.7588 31.2217 25.0767 31.1572 25.4224 31.1572C25.9702 31.1572 26.3994 31.2949 26.71 31.5703C27.0205 31.8428 27.1816 32.2192 27.1934 32.6997V34.8882C27.1934 35.3247 27.249 35.6719 27.3604 35.9297V36H26.5078ZM25.1587 35.3804C25.4136 35.3804 25.6553 35.3145 25.8838 35.1826C26.1123 35.0508 26.2778 34.8794 26.3804 34.6685V33.6929H25.7432C24.7471 33.6929 24.249 33.9844 24.249 34.5674C24.249 34.8223 24.334 35.0215 24.5039 35.165C24.6738 35.3086 24.8921 35.3804 25.1587 35.3804ZM31.2363 34.7388C31.2363 34.519 31.1528 34.3491 30.9858 34.229C30.8218 34.106 30.5332 34.0005 30.1201 33.9126C29.71 33.8247 29.3833 33.7192 29.1401 33.5962C28.8999 33.4731 28.7212 33.3267 28.604 33.1567C28.4897 32.9868 28.4326 32.7847 28.4326 32.5503C28.4326 32.1606 28.5967 31.8311 28.9248 31.5615C29.2559 31.292 29.6777 31.1572 30.1904 31.1572C30.7295 31.1572 31.166 31.2964 31.5 31.5747C31.8369 31.853 32.0054 32.209 32.0054 32.6426H31.188C31.188 32.4199 31.0928 32.228 30.9023 32.0669C30.7148 31.9058 30.4775 31.8252 30.1904 31.8252C29.8945 31.8252 29.6631 31.8896 29.4961 32.0186C29.3291 32.1475 29.2456 32.3159 29.2456 32.5239C29.2456 32.7202 29.3232 32.8682 29.4785 32.9678C29.6338 33.0674 29.9136 33.1626 30.3179 33.2534C30.7251 33.3442 31.0547 33.4526 31.3066 33.5786C31.5586 33.7046 31.7446 33.8569 31.8647 34.0356C31.9878 34.2114 32.0493 34.4268 32.0493 34.6816C32.0493 35.1064 31.8794 35.4478 31.5396 35.7056C31.1997 35.9604 30.7588 36.0879 30.2168 36.0879C29.8359 36.0879 29.499 36.0205 29.2061 35.8857C28.9131 35.751 28.6831 35.5635 28.5161 35.3232C28.3521 35.0801 28.27 34.8179 28.27 34.5366H29.083C29.0977 34.8091 29.2061 35.0259 29.4082 35.187C29.6133 35.3452 29.8828 35.4243 30.2168 35.4243C30.5244 35.4243 30.7705 35.3628 30.9551 35.2397C31.1426 35.1138 31.2363 34.9468 31.2363 34.7388ZM34.4355 33.7983L33.9258 34.3301V36H33.1128V29.25H33.9258V33.3325L34.3608 32.8096L35.8418 31.2451H36.8306L34.9805 33.2314L37.0459 36H36.0923L34.4355 33.7983Z" fill="black"/>
<path d="M19 22C24.5228 22 29 17.5228 29 12C29 6.47715 24.5228 2 19 2C13.4772 2 9 6.47715 9 12C9 17.5228 13.4772 22 19 22Z" stroke="black" stroke-width="1.5" stroke-linecap="round" stroke-linejoin="round"/>
<path d="M19 16L23 12L19 8" stroke="black" stroke-width="1.5" stroke-linecap="round" stroke-linejoin="round"/>
<path d="M15 12H23" stroke="black" stroke-width="1.5" stroke-linecap="round" stroke-linejoin="round"/>
</svg>
