<svg id="Layer_1" data-name="Layer 1" xmlns="http://www.w3.org/2000/svg" viewBox="0 0 9.43 7.64"><defs><style>.cls-1{fill:#ce844b;}.cls-2{fill:#bb7a47;}.cls-3,.cls-6{fill:#59361a;}.cls-4{fill:#f0ee90;}.cls-5{fill:#55371b;}.cls-6{stroke:#603913;stroke-miterlimit:10;stroke-width:0.1px;}</style></defs><title>Bear icon final</title><path class="cls-1" d="M7.22,12.63" transform="translate(-0.3 -2.36)"/><path class="cls-2" d="M10.1,21" transform="translate(-0.3 -2.36)"/><circle class="cls-1" cx="1.15" cy="1.15" r="1.15"/><circle class="cls-1" cx="8.28" cy="1.2" r="1.15"/><circle class="cls-3" cx="8.28" cy="1.2" r="0.73"/><circle class="cls-3" cx="1.15" cy="1.2" r="0.73"/><path class="cls-1" d="M9.31,10c0-1.26-.56-4.4-.56-4.4l-.14-.81A1.46,1.46,0,0,0,7.29,3.46l-4.11,0s-1.79-.1-1.95,1.52-.55,5-.55,5" transform="translate(-0.3 -2.36)"/><path class="cls-1" d="M7.46,11.38" transform="translate(-0.3 -2.36)"/><ellipse class="cls-4" cx="4.69" cy="5.36" rx="1.2" ry="1.68"/><circle class="cls-5" cx="6.64" cy="3.41" r="0.36"/><path class="cls-5" d="M5,7.16s.31,0,.58-.4-.34-.53-.34-.53H4.86c-1.11.11-.11.83-.11.83A.45.45,0,0,0,5,7.16Z" transform="translate(-0.3 -2.36)"/><rect class="cls-5" x="4.61" y="4.69" width="0.16" height="1.91"/><circle class="cls-5" cx="2.64" cy="3.41" r="0.36"/><path class="cls-6" d="M4.44,8.81a.82.82,0,0,0,1.15,0V8.69a.78.78,0,0,1-1.15,0Z" transform="translate(-0.3 -2.36)"/></svg>