<svg width="601" height="600" viewBox="0 0 601 600" fill="none" xmlns="http://www.w3.org/2000/svg">
<mask id="mask0" mask-type="alpha" maskUnits="userSpaceOnUse" x="0" y="0" width="600" height="600">
<rect width="600" height="600" rx="50" fill="url(#paint0_linear)"/>
</mask>
<g mask="url(#mask0)">
<path d="M99.7201 427.44C135.464 427.44 164.44 398.464 164.44 362.72C164.44 326.976 135.464 298 99.7201 298C63.9762 298 35 326.976 35 362.72C35 398.464 63.9762 427.44 99.7201 427.44Z" fill="#CE844B"/>
<path d="M502 430.496C537.744 430.496 566.72 401.52 566.72 365.776C566.72 330.032 537.744 301.056 502 301.056C466.256 301.056 437.28 330.032 437.28 365.776C437.28 401.52 466.256 430.496 502 430.496Z" fill="#CE844B"/>
<path d="M502 406.681C524.591 406.681 542.904 388.367 542.904 365.776C542.904 343.185 524.591 324.871 502 324.871C479.408 324.871 461.095 343.185 461.095 365.776C461.095 388.367 479.408 406.681 502 406.681Z" fill="#59361A"/>
<path d="M99.7202 406.681C122.311 406.681 140.625 388.367 140.625 365.776C140.625 343.185 122.311 324.871 99.7202 324.871C77.1291 324.871 58.8154 343.185 58.8154 365.776C58.8154 388.367 77.1291 406.681 99.7202 406.681Z" fill="#59361A"/>
<path d="M197.48 357.95C197.48 357.95 96.6759 352.02 87.7815 443.93C78.887 535.839 59.6156 710.764 59.6156 710.764C59.6156 710.764 46.2739 771.543 128.548 807.121H471.727C471.727 807.121 544.365 793.779 542.882 722.623C541.4 651.467 511.752 480.99 511.752 480.99L503.631 435.309C503.631 435.309 503.404 375.05 429.461 360.261L197.48 357.95Z" fill="#CE844B"/>
<path d="M299.557 695.074C337.021 695.074 367.392 652.555 367.392 600.105C367.392 547.656 337.021 505.137 299.557 505.137C262.094 505.137 231.723 547.656 231.723 600.105C231.723 652.555 262.094 695.074 299.557 695.074Z" fill="#F0EE90"/>
<path d="M409.728 510.854C420.962 510.854 430.069 501.747 430.069 490.513C430.069 479.278 420.962 470.171 409.728 470.171C398.494 470.171 389.387 479.278 389.387 490.513C389.387 501.747 398.494 510.854 409.728 510.854Z" fill="#55371B"/>
<path d="M301.025 568.971C301.025 568.971 318.078 570.92 333.659 546.107C349.239 521.293 314.039 516.677 314.039 516.677H292.111C229.789 522.448 286.018 563.153 286.018 563.153C290.383 566.447 295.58 568.461 301.025 568.971Z" fill="#55371B"/>
<path d="M304.169 562.712H294.945V670.678H304.169V562.712Z" fill="#55371B"/>
<path d="M184.11 510.854C195.344 510.854 204.451 501.747 204.451 490.513C204.451 479.278 195.344 470.171 184.11 470.171C172.876 470.171 163.769 479.278 163.769 490.513C163.769 501.747 172.876 510.854 184.11 510.854Z" fill="#55371B"/>
</g>
<defs>
<linearGradient id="paint0_linear" x1="300" y1="0" x2="300" y2="600" gradientUnits="userSpaceOnUse">
<stop stop-color="#7ED4E5"/>
<stop offset="1" stop-color="#54AFFF"/>
</linearGradient>
</defs>
</svg>
